<svg width="32" height="32" viewBox="0 0 32 32" fill="none" xmlns="http://www.w3.org/2000/svg">
<path d="M0 0H32V32H0V0Z" fill="#F9D26E"/>
<path d="M30.6461 8.04575C30.0806 7.48073 29.2519 7.54834 28.6988 8.10047L23.2158 13.5845C22.6736 14.1266 22.1352 14.1071 21.7078 13.6797C21.317 13.2889 21.4089 12.7367 21.7921 12.3536L27.4388 6.66492C28.0638 6.03949 27.9182 5.09367 27.4122 4.58818C26.9061 4.08169 25.9613 3.93696 25.3358 4.56105L19.6681 10.2302C19.2849 10.6119 18.7109 10.6834 18.3206 10.2925C17.8937 9.86556 17.8741 9.3272 18.4163 8.78503L23.8993 3.30151C24.4524 2.74885 24.52 1.91975 23.9545 1.35473C23.3885 0.788709 22.5998 0.974862 22.0609 1.39187C21.5221 1.80789 17.0792 5.62347 14.8619 7.77024C12.6457 9.91794 12.6804 12.238 13.1998 13.6583C13.5553 14.6294 13.3735 15.7704 12.5767 16.5671L1.35653 27.3884C1.13142 27.6049 1.00286 27.9048 1.00005 28.2171C0.997178 28.5303 1.12046 28.8311 1.34177 29.053L2.94783 30.658C3.16867 30.8798 3.46949 31.0026 3.78274 30.9998C4.09545 30.9969 4.39481 30.8684 4.61143 30.6437L15.4332 19.4235C16.2296 18.6276 17.3715 18.4449 18.342 18.8004C19.7624 19.3192 22.0824 19.354 24.2297 17.1378C26.3769 14.921 30.1925 10.4786 30.609 9.9388C31.025 9.39991 31.2111 8.61171 30.6461 8.04575Z" fill="white"/>
</svg>
