<svg width="192" height="192" viewBox="0 0 192 192" fill="none" xmlns="http://www.w3.org/2000/svg">
<path d="M0 0H192V192H0V0Z" fill="white"/>
<path d="M155.614 114.066L158.254 112.552L162.565 119.823L159.925 121.338L155.614 114.066Z" fill="#F9D26E"/>
<path d="M178.315 101.039L180.955 99.5247L185.266 106.796L182.627 108.311L178.315 101.039Z" fill="#F9D26E"/>
<path d="M158.649 110.236L162.345 108.116L168.504 118.503L164.809 120.623L158.649 110.236Z" fill="#F9D26E"/>
<path d="M172.376 102.359L176.072 100.239L182.231 110.626L178.535 112.747L172.376 102.359Z" fill="#F9D26E"/>
<path d="M159.444 76.6347C160.516 78.4889 162.771 83.1241 165.889 85.9309C170.728 90.2859 172.622 86.6509 175.929 89.3492L182.445 94.8538L184.678 92.2955L184.723 92.3103L162.297 73.3668C160.408 71.7714 157.776 73.749 159.444 76.6347Z" fill="#F9D26E"/>
<path d="M7.99949 101.172C6.2282 103.331 6.68937 107.478 10.3669 110.398C12.4736 112.071 15.0517 112.061 16.3592 111.844C17.6382 111.631 18.5436 111.36 19.1665 111.855L29.0953 120.467C29.3961 120.715 29.7858 120.833 30.1758 120.796C30.5659 120.759 30.9248 120.568 31.1711 120.268L31.8616 119.427C32.1076 119.126 32.2212 118.742 32.1762 118.358C32.1308 117.975 31.9315 117.626 31.6219 117.389L20.9691 109.657C20.3466 109.163 20.4247 108.235 20.3661 106.961C20.3071 105.657 19.7728 103.176 17.6669 101.503C13.9894 98.5826 9.77075 99.0137 7.99949 101.172Z" fill="#F9D26E"/>
<path d="M173.366 107.012L174.906 109.609L167.514 113.85L165.975 111.253L173.366 107.012Z" fill="#F9D26E"/>
<path d="M155.614 114.066L158.254 112.552L162.565 119.823L159.925 121.338L155.614 114.066Z" fill="#C5D64B"/>
<path d="M178.315 101.039L180.955 99.5247L185.266 106.796L182.627 108.311L178.315 101.039Z" fill="#C5D64B"/>
<path d="M158.649 110.236L162.345 108.116L168.504 118.503L164.809 120.623L158.649 110.236Z" fill="#C5D64B"/>
<path d="M172.376 102.359L176.072 100.239L182.231 110.626L178.535 112.747L172.376 102.359Z" fill="#C5D64B"/>
<path d="M173.366 107.012L174.906 109.609L167.514 113.85L165.975 111.253L173.366 107.012Z" fill="#C5D64B"/>
<path d="M31.4308 77.5439C30.9785 77.0993 30.3157 77.1525 29.8733 77.587L25.4878 81.902C25.0541 82.3285 24.6235 82.3132 24.2817 81.9769C23.9691 81.6694 24.0425 81.2349 24.349 80.9334L28.8655 76.4574C29.3654 75.9653 29.2489 75.2211 28.8442 74.8233C28.4395 74.4248 27.6838 74.3109 27.1835 74.802L22.6503 79.2627C22.3438 79.5631 21.8847 79.6193 21.5725 79.3117C21.231 78.9758 21.2154 78.5522 21.649 78.1255L26.0345 73.8109C26.4769 73.3761 26.531 72.7237 26.0786 72.2791C25.6259 71.8337 24.9951 71.9802 24.5641 72.3083C24.1331 72.6357 20.5796 75.6379 18.8061 77.3271C17.0335 79.017 17.0613 80.8425 17.4767 81.9601C17.761 82.7241 17.6156 83.6219 16.9783 84.2488L8.00408 92.7634C7.82402 92.9338 7.7212 93.1698 7.71895 93.4155C7.71665 93.6619 7.81525 93.8987 7.99226 94.0732L9.27684 95.3361C9.45348 95.5106 9.69409 95.6073 9.94464 95.605C10.1947 95.6027 10.4342 95.5016 10.6074 95.3248L19.263 86.4963C19.9 85.8701 20.8133 85.7263 21.5896 86.0061C22.7257 86.4143 24.5813 86.4416 26.2987 84.6979C28.0162 82.9536 31.068 79.4581 31.4011 79.0334C31.7338 78.6094 31.8827 77.9892 31.4308 77.5439Z" fill="#FDA6A6"/>
<path d="M31.1417 88.764C29.6494 88.6073 28.1138 88.536 26.5346 88.5503C24.97 88.5503 23.4488 88.5574 21.971 88.5716C21.971 88.5859 21.971 88.593 21.971 88.593C21.9855 88.593 21.9928 88.6001 21.9928 88.6144C21.9638 88.9564 21.9493 89.3127 21.9493 89.6833C21.9493 90.0539 21.9493 90.403 21.9493 90.7308C21.9638 91.0444 21.9783 91.3152 21.9928 91.5432C22.0217 91.7712 22.0507 91.9137 22.0797 91.9708C22.1666 91.9993 22.3187 92.0135 22.5361 92.0135C22.7534 92.0135 22.9924 92.0206 23.2532 92.0349C23.514 92.0349 23.7747 92.0491 24.0355 92.0776C24.2963 92.0919 24.5136 92.1418 24.6875 92.2273L24.7092 92.2487C24.7961 94.244 24.8468 95.9471 24.8613 97.358C24.8903 98.769 24.8975 99.9306 24.883 100.843C24.883 101.741 24.8758 102.418 24.8613 102.874C24.8468 103.33 24.8468 103.586 24.8613 103.643C25.1221 103.6 25.4046 103.579 25.7088 103.579C26.0131 103.579 26.3173 103.579 26.6215 103.579C26.9403 103.579 27.2518 103.579 27.556 103.579C27.8747 103.565 28.1645 103.536 28.4252 103.494V103.451C28.3963 101.897 28.3745 100.551 28.3601 99.4104C28.3456 98.2559 28.3311 97.2725 28.3166 96.4602C28.3021 95.6335 28.2876 94.9637 28.2731 94.4506C28.2731 93.9233 28.2731 93.5029 28.2731 93.1893C28.2731 92.8615 28.2731 92.6264 28.2731 92.4838C28.2876 92.3271 28.3021 92.213 28.3166 92.1418C28.3166 92.1275 28.3166 92.1204 28.3166 92.1204C28.3311 92.1061 28.3383 92.0919 28.3383 92.0776H28.4035C29.0844 92.0491 29.6277 92.0278 30.0334 92.0135C30.439 91.9993 30.7795 92.0206 31.0547 92.0776C31.1272 91.5646 31.1634 91.0016 31.1634 90.3888C31.1779 89.7759 31.1706 89.2343 31.1417 88.764Z" fill="#C5D64B"/>
<path d="M123.53 92.8686C123.067 92.8829 122.668 92.8829 122.335 92.8686C122.002 92.8544 121.741 92.8401 121.553 92.8259C121.48 92.8259 121.372 92.8188 121.227 92.8045C121.096 92.7903 121.002 92.7903 120.944 92.8045V92.8259C120.857 93.6668 120.814 94.5361 120.814 95.434C120.814 96.3176 120.828 97.2155 120.857 98.1277C120.886 99.0398 120.901 99.9591 120.901 100.885C120.915 101.812 120.886 102.724 120.814 103.622C120.915 103.593 121.118 103.586 121.422 103.6C121.727 103.615 122.045 103.622 122.378 103.622C122.726 103.636 123.045 103.636 123.335 103.622C123.624 103.622 123.806 103.579 123.878 103.494C123.777 101.769 123.748 100.009 123.791 98.2132C123.849 96.4174 123.885 94.6573 123.9 92.9328V92.8686H123.53ZM120.857 88.2082C120.843 88.8638 120.85 89.4196 120.879 89.8757C120.922 90.3175 120.944 90.7451 120.944 91.1584C121.219 91.1441 121.516 91.1513 121.835 91.1798C122.154 91.194 122.451 91.2083 122.726 91.2225C123.016 91.2225 123.262 91.2083 123.465 91.1798C123.682 91.1513 123.82 91.0942 123.878 91.0087C123.878 90.795 123.871 90.5527 123.856 90.2819C123.856 89.9968 123.849 89.7261 123.834 89.4695C123.834 89.1987 123.827 88.9564 123.813 88.7427C123.813 88.5146 123.813 88.3579 123.813 88.2723L120.857 88.2082Z" fill="#C5D64B"/>
<path d="M129.268 88.9992C129.021 89.0277 128.775 89.0348 128.529 89.0206C128.283 89.0063 128.036 88.9921 127.79 88.9778C127.544 88.9493 127.305 88.9279 127.073 88.9137C126.856 88.8994 126.653 88.9066 126.464 88.9351C126.435 89.2058 126.414 89.5123 126.399 89.8543C126.399 90.1964 126.399 90.5527 126.399 90.9232C126.399 91.2938 126.406 91.6643 126.421 92.0349C126.435 92.3912 126.443 92.7261 126.443 93.0397C126.211 93.0397 125.965 93.0397 125.704 93.0397C125.458 93.0397 125.19 93.0325 124.9 93.0183L124.835 95.6264C125.139 95.6264 125.414 95.6264 125.66 95.6264C125.921 95.6264 126.167 95.6193 126.399 95.605C126.385 96.6454 126.392 97.6573 126.421 98.6407C126.45 99.6099 126.559 100.643 126.747 101.741C126.935 102.182 127.24 102.532 127.66 102.788C128.094 103.045 128.587 103.237 129.137 103.365C129.688 103.494 130.275 103.579 130.898 103.622C131.521 103.65 132.122 103.65 132.701 103.622C132.774 103.408 132.817 103.173 132.832 102.916C132.861 102.66 132.868 102.403 132.853 102.147C132.839 101.89 132.817 101.641 132.788 101.399C132.759 101.156 132.73 100.935 132.701 100.736C132.455 100.75 132.165 100.75 131.832 100.736C131.513 100.722 131.195 100.686 130.876 100.629C130.557 100.558 130.26 100.465 129.985 100.351C129.71 100.237 129.5 100.08 129.355 99.8807C129.34 99.2393 129.333 98.5552 129.333 97.8284C129.333 97.0873 129.333 96.3319 129.333 95.5623H132.701C132.672 95.377 132.665 95.1561 132.68 94.8996C132.709 94.6288 132.73 94.3651 132.745 94.1086C132.759 93.852 132.759 93.6169 132.745 93.4031C132.73 93.1751 132.672 93.004 132.571 92.89C131.832 92.9328 131.209 92.9684 130.702 92.9969C130.209 93.0254 129.739 93.0468 129.29 93.061C129.29 92.8473 129.282 92.6406 129.268 92.4411C129.268 92.2415 129.268 92.0491 129.268 91.8639V88.9992Z" fill="#C5D64B"/>
<path d="M142.149 99.5172C141.989 99.4745 141.786 99.4531 141.54 99.4531C141.294 99.4389 141.033 99.4389 140.758 99.4531C140.483 99.4674 140.222 99.4816 139.975 99.4959C139.729 99.4959 139.534 99.4887 139.389 99.4745C139.345 99.6598 139.28 99.8735 139.193 100.116C139.121 100.344 139.012 100.508 138.867 100.608C138.693 100.722 138.461 100.8 138.172 100.843C137.882 100.871 137.599 100.857 137.324 100.8C137.049 100.729 136.81 100.6 136.607 100.415C136.419 100.23 136.339 99.9733 136.368 99.6455C136.397 99.1467 136.411 98.6692 136.411 98.2132C136.411 97.7571 136.44 97.3082 136.498 96.8664C136.542 96.6383 136.607 96.4958 136.694 96.4388C136.882 96.2108 137.129 96.054 137.433 95.9685C137.998 95.826 138.454 95.8972 138.802 96.1823C139.15 96.453 139.36 96.8378 139.432 97.3367C139.621 97.3652 139.831 97.3937 140.062 97.4222C140.309 97.4507 140.555 97.4721 140.801 97.4863C141.062 97.5006 141.308 97.5077 141.54 97.5077C141.786 97.5077 142.004 97.4863 142.192 97.4436C142.178 96.9732 142.163 96.5386 142.149 96.1395C142.149 95.7262 142.12 95.3556 142.062 95.0278C142.004 94.7 141.917 94.415 141.801 94.1727C141.699 93.9304 141.547 93.738 141.345 93.5955C141.04 93.3105 140.678 93.0967 140.258 92.9542C139.838 92.8116 139.396 92.7261 138.932 92.6976C138.628 92.6691 138.338 92.6691 138.063 92.6976C137.802 92.7119 137.527 92.7047 137.237 92.6762C136.89 92.6762 136.542 92.6976 136.194 92.7404C135.861 92.7831 135.542 92.8615 135.238 92.9755C134.948 93.0753 134.687 93.2036 134.456 93.3603C134.238 93.5171 134.079 93.7024 133.978 93.9162C133.934 94.0587 133.869 94.2653 133.782 94.5361C133.695 94.8069 133.644 95.0207 133.63 95.1775C133.543 95.6906 133.5 96.2036 133.5 96.7167C133.557 97.187 133.572 97.7072 133.543 98.2773C133.528 98.8474 133.536 99.4175 133.565 99.9876C133.594 100.543 133.681 101.078 133.825 101.591C133.97 102.104 134.238 102.532 134.63 102.874C135.137 103.372 135.76 103.686 136.498 103.814C136.904 103.814 137.353 103.829 137.846 103.857C138.338 103.9 138.816 103.9 139.28 103.857C139.744 103.829 140.171 103.743 140.562 103.6C140.968 103.458 141.294 103.216 141.54 102.874C141.642 102.774 141.721 102.617 141.779 102.403C141.852 102.175 141.91 101.912 141.953 101.612C141.996 101.299 142.033 100.964 142.062 100.608C142.091 100.251 142.12 99.8878 142.149 99.5172Z" fill="#C5D64B"/>
<path d="M146.242 94.0872C146.242 94.0302 146.242 93.852 146.242 93.5527C146.242 93.2534 146.242 92.8971 146.242 92.4838C146.242 92.0705 146.242 91.6287 146.242 91.1584C146.242 90.6738 146.242 90.2249 146.242 89.8116C146.242 89.384 146.242 89.0206 146.242 88.7213C146.242 88.4077 146.235 88.2153 146.22 88.1441C146.22 88.1013 146.163 88.0799 146.047 88.0799C145.931 88.0657 145.8 88.0657 145.655 88.0799C145.511 88.0942 145.366 88.1156 145.221 88.1441C145.076 88.1583 144.975 88.1654 144.917 88.1654C144.743 88.1797 144.598 88.1939 144.482 88.2082C144.366 88.2082 144.257 88.2082 144.156 88.2082C144.055 88.2082 143.946 88.2082 143.83 88.2082C143.714 88.1939 143.569 88.1797 143.395 88.1654C143.381 88.7925 143.366 89.5336 143.352 90.3888C143.352 91.2296 143.352 92.1275 143.352 93.0824C143.352 94.0373 143.352 95.0207 143.352 96.0326C143.352 97.0303 143.352 97.9994 143.352 98.94C143.366 99.8807 143.374 100.764 143.374 101.591C143.388 102.403 143.395 103.102 143.395 103.686C143.743 103.657 144.033 103.65 144.265 103.665C144.496 103.679 144.707 103.686 144.895 103.686C145.083 103.7 145.264 103.7 145.438 103.686C145.627 103.672 145.844 103.629 146.09 103.558V103.472C146.148 103.002 146.177 102.532 146.177 102.061C146.177 101.591 146.163 101.121 146.134 100.65C146.119 100.166 146.105 99.6883 146.09 99.2179C146.076 98.7334 146.083 98.2417 146.112 97.7429C146.141 97.3581 146.242 97.073 146.416 96.8877C146.59 96.6882 146.786 96.5599 147.003 96.5029C147.22 96.4317 147.437 96.4174 147.655 96.4602C147.887 96.4887 148.06 96.5314 148.176 96.5884C148.191 96.6027 148.205 96.6098 148.22 96.6098C148.234 96.6098 148.249 96.6169 148.263 96.6312C148.379 96.7167 148.466 96.8378 148.524 96.9946C148.596 97.1514 148.647 97.3295 148.676 97.5291C148.72 97.7286 148.749 97.9353 148.763 98.149C148.778 98.3486 148.792 98.5338 148.807 98.7049C148.836 99.0897 148.85 99.503 148.85 99.9448C148.864 100.387 148.864 100.828 148.85 101.27C148.85 101.712 148.85 102.14 148.85 102.553C148.85 102.966 148.864 103.337 148.893 103.665C149.401 103.665 149.85 103.665 150.241 103.665C150.646 103.679 151.103 103.65 151.61 103.579C151.581 103.095 151.574 102.532 151.588 101.89C151.603 101.249 151.617 100.586 151.632 99.9021C151.646 99.2037 151.653 98.5196 151.653 97.8497C151.668 97.1656 151.661 96.5386 151.632 95.9685C151.617 95.3984 151.566 94.9138 151.479 94.5148C151.407 94.1014 151.298 93.8307 151.154 93.7024C150.849 93.4458 150.509 93.2677 150.132 93.1679C149.755 93.0682 149.364 93.0254 148.959 93.0397C148.567 93.0539 148.184 93.1252 147.807 93.2534C147.43 93.3817 147.09 93.5527 146.786 93.7665C146.713 93.8235 146.619 93.8805 146.503 93.9375C146.402 93.9946 146.315 94.0444 146.242 94.0872Z" fill="#C5D64B"/>
<path d="M155.744 98.2559C155.889 98.2844 156.121 98.3058 156.44 98.3201C156.758 98.3343 157.113 98.3414 157.505 98.3414C157.91 98.3414 158.33 98.3343 158.765 98.3201C159.2 98.3058 159.605 98.2844 159.982 98.2559C160.373 98.2274 160.706 98.1989 160.982 98.1704C161.271 98.1419 161.467 98.1134 161.568 98.0849C161.612 97.4863 161.612 96.8949 161.568 96.3105C161.525 95.7262 161.394 95.1917 161.177 94.7072C160.974 94.2226 160.67 93.8093 160.264 93.4672C159.859 93.1252 159.323 92.8971 158.656 92.7831C158.135 92.6549 157.599 92.5978 157.048 92.6121C156.498 92.6264 155.976 92.7119 155.483 92.8686C154.991 93.0112 154.549 93.2321 154.158 93.5314C153.767 93.8164 153.477 94.1656 153.289 94.5789C153.115 95.0492 152.999 95.5338 152.941 96.0326C152.897 96.5172 152.854 97.0231 152.811 97.5505C152.782 98.1348 152.796 98.7191 152.854 99.3035C152.912 99.8878 153.021 100.444 153.18 100.971C153.339 101.484 153.549 101.961 153.81 102.403C154.071 102.831 154.397 103.18 154.788 103.451C155.136 103.65 155.512 103.779 155.918 103.836C156.324 103.836 156.766 103.85 157.244 103.878C157.736 103.907 158.214 103.907 158.678 103.878C159.142 103.85 159.569 103.764 159.96 103.622C160.351 103.479 160.67 103.237 160.916 102.895C161.018 102.809 161.097 102.66 161.155 102.446C161.228 102.218 161.286 101.954 161.329 101.655C161.373 101.342 161.409 101.007 161.438 100.65C161.467 100.294 161.496 99.9306 161.525 99.56C161.365 99.5172 161.163 99.4959 160.916 99.4959C160.67 99.4816 160.409 99.4816 160.134 99.4959C159.873 99.5101 159.62 99.5244 159.373 99.5386C159.127 99.5386 158.932 99.5315 158.787 99.5172C158.816 100.102 158.721 100.543 158.504 100.843C158.301 101.128 158.048 101.299 157.744 101.356C157.439 101.413 157.128 101.363 156.809 101.206C156.49 101.049 156.244 100.807 156.07 100.479C155.911 100.223 155.817 99.9591 155.788 99.6883C155.773 99.4175 155.759 99.0683 155.744 98.6407V98.2559ZM158.374 94.9423C158.635 95.0706 158.837 95.263 158.982 95.5195C159.142 95.7761 159.221 96.0469 159.221 96.3319C159.221 96.4459 159.221 96.5243 159.221 96.5671C159.221 96.5956 159.178 96.6169 159.091 96.6312C159.018 96.6312 158.888 96.6241 158.7 96.6098C158.511 96.5956 158.229 96.5884 157.852 96.5884C157.302 96.5884 156.882 96.5956 156.592 96.6098C156.317 96.6098 156.114 96.6027 155.983 96.5884C155.853 96.5599 155.78 96.5172 155.766 96.4602C155.766 96.3889 155.78 96.2749 155.809 96.1181C155.838 95.9328 155.882 95.7547 155.94 95.5837C156.012 95.4126 156.114 95.263 156.244 95.1347C156.374 95.0065 156.548 94.9067 156.766 94.8354C156.983 94.7642 157.265 94.7285 157.613 94.7285C157.773 94.7285 157.91 94.7499 158.026 94.7927C158.142 94.8212 158.258 94.8711 158.374 94.9423Z" fill="#C5D64B"/>
<path d="M35.0177 94.0872V88.7213C35.0177 88.4077 35.0104 88.2153 34.9959 88.1441C34.9959 88.1013 34.938 88.0799 34.8221 88.0799C34.7062 88.0657 34.5758 88.0657 34.4309 88.0799C34.2861 88.0942 34.1412 88.1156 33.9963 88.1441C33.8514 88.1583 33.75 88.1654 33.6921 88.1654C33.5182 88.1797 33.3733 88.1939 33.2574 88.2082H32.6055C32.4896 88.1939 32.3447 88.1797 32.1709 88.1654C32.1564 88.7925 32.1419 89.5336 32.1274 90.3888V98.94C32.1419 99.8807 32.1491 100.764 32.1491 101.591C32.1636 102.403 32.1709 103.102 32.1709 103.686C32.5186 103.657 32.8083 103.65 33.0401 103.665C33.2719 103.679 33.482 103.686 33.6703 103.686C33.8587 103.7 34.0398 103.7 34.2136 103.686C34.402 103.672 34.6193 103.629 34.8656 103.558V103.472C34.9235 103.002 34.9525 102.532 34.9525 102.061C34.9525 101.591 34.938 101.121 34.909 100.65C34.8945 100.166 34.88 99.6883 34.8656 99.2179C34.8511 98.7334 34.8583 98.2417 34.8873 97.7429C34.9163 97.3581 35.0177 97.073 35.1915 96.8877C35.3654 96.6882 35.561 96.5599 35.7783 96.5029C35.9956 96.4317 36.2129 96.4174 36.4302 96.4602C36.662 96.4887 36.8359 96.5314 36.9518 96.5884C36.9663 96.6027 36.9807 96.6098 36.9952 96.6098C37.0097 96.6098 37.0242 96.6169 37.0387 96.6312C37.1546 96.7167 37.2415 96.8378 37.2995 96.9946C37.3719 97.1514 37.4226 97.3295 37.4516 97.5291C37.4951 97.7286 37.524 97.9353 37.5385 98.149C37.553 98.3486 37.5675 98.5338 37.582 98.7049C37.611 99.0897 37.6254 99.503 37.6254 99.9448C37.6399 100.387 37.6399 100.828 37.6254 101.27V102.553C37.6254 102.966 37.6399 103.337 37.6689 103.665H39.0162C39.4219 103.679 39.8783 103.65 40.3853 103.579C40.3563 103.095 40.3491 102.532 40.3636 101.89C40.3781 101.249 40.3926 100.586 40.4071 99.9021C40.4215 99.2037 40.4288 98.5196 40.4288 97.8497C40.4433 97.1656 40.436 96.5386 40.4071 95.9685C40.3926 95.3984 40.3419 94.9138 40.2549 94.5148C40.1825 94.1014 40.0738 93.8307 39.929 93.7024C39.6247 93.4458 39.2843 93.2677 38.9076 93.1679C38.5309 93.0682 38.1397 93.0254 37.7341 93.0397C37.3429 93.0539 36.959 93.1252 36.5823 93.2534C36.2057 93.3817 35.8652 93.5527 35.561 93.7665C35.4885 93.8235 35.3944 93.8805 35.2785 93.9375C35.177 93.9946 35.0901 94.0444 35.0177 94.0872Z" fill="#C5D64B"/>
<path fill-rule="evenodd" clip-rule="evenodd" d="M44.5195 98.2559C44.6644 98.2844 44.8962 98.3058 45.2149 98.3201C45.5337 98.3343 45.8886 98.3414 46.2798 98.3414C46.6854 98.3414 47.1056 98.3343 47.5402 98.3201C47.9748 98.3058 48.3805 98.2844 48.7571 98.2559C49.1483 98.2274 49.4815 98.1989 49.7568 98.1704C50.0465 98.1419 50.2421 98.1134 50.3435 98.0849C50.387 97.4863 50.387 96.8949 50.3435 96.3105C50.3001 95.7262 50.1697 95.1917 49.9524 94.7072C49.7495 94.2226 49.4453 93.8093 49.0396 93.4672C48.634 93.1252 48.098 92.8971 47.4315 92.7831C46.91 92.6549 46.3739 92.5978 45.8234 92.6121C45.2729 92.6264 44.7513 92.7119 44.2588 92.8686C43.7662 93.0112 43.3243 93.2321 42.9331 93.5314C42.542 93.8164 42.2522 94.1656 42.0639 94.5789C41.89 95.0492 41.7741 95.5338 41.7162 96.0326C41.6727 96.5172 41.6293 97.0231 41.5858 97.5505C41.5568 98.1348 41.5713 98.7191 41.6293 99.3035C41.6872 99.8878 41.7959 100.444 41.9552 100.971C42.1146 101.484 42.3247 101.961 42.5854 102.403C42.8462 102.831 43.1722 103.18 43.5634 103.451C43.9111 103.65 44.2877 103.779 44.6934 103.836C45.099 103.836 45.5409 103.85 46.019 103.878C46.5116 103.907 46.9897 103.907 47.4533 103.878C47.9169 103.85 48.3442 103.764 48.7354 103.622C49.1266 103.479 49.4453 103.237 49.6916 102.895C49.793 102.809 49.8727 102.66 49.9306 102.446C50.0031 102.218 50.061 101.954 50.1045 101.655C50.1479 101.342 50.1842 101.007 50.2131 100.65C50.2421 100.294 50.2711 99.9306 50.3001 99.56C50.1407 99.5172 49.9379 99.4959 49.6916 99.4959C49.4453 99.4816 49.1845 99.4816 48.9093 99.4959C48.6485 99.5101 48.395 99.5244 48.1487 99.5386C47.9024 99.5386 47.7068 99.5315 47.5619 99.5172C47.5909 100.102 47.4967 100.543 47.2794 100.843C47.0766 101.128 46.8231 101.299 46.5188 101.356C46.2146 101.413 45.9031 101.363 45.5844 101.206C45.2656 101.049 45.0193 100.807 44.8455 100.479C44.6861 100.223 44.592 99.9591 44.563 99.6883C44.5485 99.4175 44.534 99.0683 44.5195 98.6407V98.2559ZM47.7575 95.5195C47.6126 95.263 47.4098 95.0706 47.149 94.9423C47.0331 94.8711 46.9172 94.8212 46.8013 94.7927C46.6854 94.7499 46.5478 94.7285 46.3884 94.7285C46.0407 94.7285 45.7582 94.7642 45.5409 94.8354C45.3236 94.9067 45.1497 95.0065 45.0193 95.1347C44.889 95.263 44.7875 95.4126 44.7151 95.5837C44.6572 95.7547 44.6137 95.9328 44.5847 96.1181C44.5557 96.2749 44.5413 96.3889 44.5413 96.4602C44.5557 96.5172 44.6282 96.5599 44.7586 96.5884C44.889 96.6027 45.0918 96.6098 45.3671 96.6098C45.6568 96.5956 46.0769 96.5884 46.6275 96.5884C47.0041 96.5884 47.2867 96.5956 47.475 96.6098C47.6633 96.6241 47.7937 96.6312 47.8662 96.6312C47.9531 96.6169 47.9965 96.5956 47.9965 96.5671V96.3319C47.9965 96.0469 47.9169 95.7761 47.7575 95.5195Z" fill="#C5D64B"/>
<path fill-rule="evenodd" clip-rule="evenodd" d="M63.0026 96.1181C62.9446 95.8758 62.8649 95.548 62.7635 95.1347C62.6621 94.7214 62.5535 94.2653 62.4376 93.7665C62.3217 93.2677 62.1985 92.7475 62.0681 92.2059C61.9522 91.6643 61.8363 91.1584 61.7204 90.6881C61.619 90.2035 61.5176 89.7759 61.4162 89.4054C61.3293 89.0206 61.2641 88.7355 61.2206 88.5503C60.7425 88.593 60.3514 88.6215 60.0471 88.6358H58.8736C58.7577 88.6358 58.6491 88.6429 58.5477 88.6571C58.2 89.7973 57.8812 90.9446 57.5915 92.099C57.3017 93.2534 57.0337 94.3651 56.7874 95.434C56.5411 96.5029 56.3238 97.5148 56.1355 98.4697C55.9616 99.4103 55.8095 100.244 55.6791 100.971C55.5487 101.698 55.4473 102.289 55.3749 102.745C55.3024 103.201 55.2517 103.479 55.2228 103.579C55.2372 103.593 55.2517 103.6 55.2662 103.6C56.2514 103.586 56.9758 103.593 57.4394 103.622C57.903 103.65 58.1927 103.65 58.3086 103.622H58.3303C58.3448 103.608 58.3593 103.6 58.3738 103.6C58.5042 103.358 58.6056 103.08 58.678 102.767C58.7505 102.453 58.8157 102.133 58.8736 101.805C58.9461 101.463 59.0113 101.142 59.0692 100.843C59.1416 100.529 59.2286 100.258 59.33 100.03H59.6994C59.8008 100.016 59.8877 100.009 59.9602 100.009H60.2427C60.3441 100.009 60.489 100.023 60.6773 100.052C60.7787 100.265 60.8729 100.522 60.9598 100.821C61.0468 101.121 61.1264 101.434 61.1989 101.762C61.2858 102.09 61.3655 102.41 61.4379 102.724C61.5248 103.038 61.6118 103.308 61.6987 103.536H61.7204C62.184 103.636 62.6766 103.693 63.1982 103.707C63.7197 103.736 64.1978 103.707 64.6324 103.622V103.6L63.0026 96.1181ZM59.9602 97.5291C60.2354 97.5148 60.5107 97.5077 60.786 97.5077C60.6411 96.282 60.5107 95.3271 60.3948 94.643C60.2934 93.9589 60.1992 93.4957 60.1123 93.2534C60.0399 93.0112 59.9602 92.9613 59.8733 93.1038C59.8008 93.2321 59.7284 93.5029 59.6559 93.9162C59.598 94.3295 59.5256 94.8497 59.4386 95.4768C59.3662 96.1039 59.2793 96.7808 59.1779 97.5077C59.4241 97.5219 59.6849 97.5291 59.9602 97.5291Z" fill="#C5D64B"/>
<path d="M78.8443 88.9992C78.598 89.0277 78.3517 89.0348 78.1054 89.0206L77.3665 88.9778C77.1203 88.9493 76.8812 88.9279 76.6494 88.9137C76.4321 88.8994 76.2293 88.9066 76.0409 88.9351C76.0119 89.2058 75.9902 89.5123 75.9757 89.8543V90.9232C75.9757 91.2938 75.983 91.6643 75.9975 92.0349C76.012 92.3912 76.0192 92.7261 76.0192 93.0397H75.2803C75.034 93.0397 74.766 93.0325 74.4763 93.0183L74.4111 95.6264H75.2369C75.4976 95.6264 75.7439 95.6193 75.9757 95.605C75.9612 96.6454 75.9685 97.6573 75.9975 98.6407C76.0264 99.6099 76.1351 100.643 76.3234 101.741C76.5118 102.182 76.816 102.532 77.2362 102.788C77.6708 103.045 78.1634 103.237 78.7139 103.365C79.2644 103.494 79.8512 103.579 80.4741 103.622C81.0971 103.65 81.6983 103.65 82.2778 103.622C82.3503 103.408 82.3937 103.173 82.4082 102.916C82.4372 102.66 82.4444 102.403 82.4299 102.147C82.4155 101.89 82.3937 101.641 82.3647 101.399C82.3358 101.156 82.3068 100.935 82.2778 100.736C82.0315 100.75 81.7418 100.75 81.4086 100.736C81.0898 100.722 80.7711 100.686 80.4524 100.629C80.1337 100.558 79.8367 100.465 79.5614 100.351C79.2861 100.237 79.0761 100.08 78.9312 99.8807C78.9167 99.2393 78.9095 98.5552 78.9095 97.8284V95.5623H82.2778C82.2488 95.377 82.2416 95.1561 82.2561 94.8996C82.2851 94.6288 82.3068 94.3651 82.3213 94.1086C82.3358 93.852 82.3358 93.6169 82.3213 93.4031C82.3068 93.1751 82.2489 93.004 82.1474 92.89C81.4086 92.9328 80.7856 92.9684 80.2785 92.9969C79.786 93.0254 79.3151 93.0468 78.866 93.061C78.866 92.8473 78.8588 92.6406 78.8443 92.4411V88.9992Z" fill="#C5D64B"/>
<path d="M86.0097 92.8686C85.5461 92.8829 85.1477 92.8829 84.8145 92.8686C84.4813 92.8544 84.2205 92.8401 84.0322 92.8259C83.9597 92.8259 83.8511 92.8188 83.7062 92.8045C83.5758 92.7903 83.4817 92.7903 83.4237 92.8045V92.8259C83.3368 93.6668 83.2933 94.5361 83.2933 95.434C83.2933 96.3177 83.3078 97.2155 83.3368 98.1277C83.3658 99.0398 83.3802 99.9591 83.3802 100.885C83.3947 101.812 83.3658 102.724 83.2933 103.622C83.3947 103.593 83.5976 103.586 83.9018 103.6C84.206 103.615 84.5248 103.622 84.858 103.622C85.2057 103.636 85.5244 103.636 85.8142 103.622C86.1039 103.622 86.285 103.579 86.3574 103.494C86.256 101.769 86.227 100.009 86.2705 98.2132C86.3285 96.4174 86.3647 94.6573 86.3792 92.9328V92.8686H86.0097Z" fill="#C5D64B"/>
<path d="M116.468 95.9471C116.728 95.3485 117.033 94.7499 117.38 94.1513L118.423 92.3556C118.786 91.757 119.119 91.1584 119.423 90.5598C119.742 89.9612 119.988 89.3626 120.162 88.764C119.698 88.6928 119.206 88.6714 118.684 88.6999C118.163 88.7284 117.67 88.7284 117.206 88.6999C116.902 89.1275 116.627 89.555 116.381 89.9826L115.685 91.2653C115.468 91.6928 115.236 92.1133 114.99 92.5266C114.744 92.9399 114.468 93.339 114.164 93.7238C114.135 93.7523 114.106 93.7879 114.077 93.8307C114.063 93.8592 114.055 93.8663 114.055 93.852C114.026 93.0397 114.019 92.1845 114.034 91.2867C114.048 90.3888 114.041 89.5336 114.012 88.7213C113.548 88.7213 113.063 88.7141 112.556 88.6999C112.063 88.6714 111.578 88.6643 111.1 88.6785C111.114 91.1726 111.078 93.6596 110.991 96.1395C110.919 98.6051 110.941 101.064 111.056 103.515C111.245 103.558 111.477 103.593 111.752 103.622C112.042 103.65 112.339 103.665 112.643 103.665C112.947 103.665 113.237 103.65 113.512 103.622C113.787 103.608 114.026 103.572 114.229 103.515C114.229 103.116 114.222 102.681 114.208 102.211C114.208 101.741 114.2 101.263 114.186 100.779C114.171 100.294 114.157 99.8165 114.142 99.3462C114.142 98.8617 114.15 98.4127 114.164 97.9994C114.396 98.3984 114.628 98.8474 114.859 99.3462C115.091 99.845 115.323 100.351 115.555 100.864C115.801 101.377 116.055 101.876 116.315 102.361C116.576 102.831 116.859 103.237 117.163 103.579C117.627 103.593 118.126 103.615 118.662 103.643C119.213 103.672 119.72 103.636 120.184 103.536L116.468 95.9471Z" fill="#C5D64B"/>
<path fill-rule="evenodd" clip-rule="evenodd" d="M99.5058 98.2559C99.6507 98.2844 99.8825 98.3058 100.201 98.3201C100.52 98.3343 100.875 98.3414 101.266 98.3414C101.672 98.3414 102.092 98.3343 102.526 98.3201C102.961 98.3058 103.367 98.2844 103.743 98.2559C104.135 98.2274 104.468 98.1989 104.743 98.1704C105.033 98.1419 105.228 98.1134 105.33 98.0849C105.373 97.4863 105.373 96.8949 105.33 96.3105C105.286 95.7262 105.156 95.1917 104.939 94.7072C104.736 94.2226 104.432 93.8093 104.026 93.4672C103.62 93.1252 103.084 92.8971 102.418 92.7831C101.896 92.6549 101.36 92.5978 100.81 92.6121C100.259 92.6264 99.7376 92.7119 99.245 92.8686C98.7524 93.0112 98.3106 93.2321 97.9194 93.5314C97.5283 93.8164 97.2385 94.1656 97.0502 94.5789C96.8763 95.0492 96.7604 95.5338 96.7025 96.0326C96.659 96.5172 96.6155 97.0231 96.5721 97.5505C96.5431 98.1348 96.5576 98.7191 96.6155 99.3035C96.6735 99.8878 96.7821 100.444 96.9415 100.971C97.1009 101.484 97.3109 101.961 97.5717 102.403C97.8325 102.831 98.1585 103.18 98.5496 103.451C98.8973 103.65 99.274 103.779 99.6797 103.836C100.085 103.836 100.527 103.85 101.005 103.878C101.498 103.907 101.976 103.907 102.44 103.878C102.903 103.85 103.331 103.764 103.722 103.622C104.113 103.479 104.432 103.237 104.678 102.895C104.779 102.809 104.859 102.66 104.917 102.446C104.989 102.218 105.047 101.954 105.091 101.655C105.134 101.342 105.17 101.007 105.199 100.65C105.228 100.294 105.257 99.9306 105.286 99.56C105.127 99.5172 104.924 99.4959 104.678 99.4959C104.432 99.4816 104.171 99.4816 103.896 99.4959C103.635 99.5101 103.381 99.5244 103.135 99.5386C102.889 99.5386 102.693 99.5315 102.548 99.5172C102.577 100.102 102.483 100.543 102.266 100.843C102.063 101.128 101.809 101.299 101.505 101.356C101.201 101.413 100.889 101.363 100.571 101.206C100.252 101.049 100.006 100.807 99.8318 100.479C99.6724 100.223 99.5782 99.9591 99.5493 99.6883C99.5348 99.4175 99.5203 99.0683 99.5058 98.6407V98.2559ZM102.744 95.5195C102.599 95.263 102.396 95.0706 102.135 94.9423C102.019 94.8711 101.903 94.8212 101.788 94.7927C101.672 94.7499 101.534 94.7285 101.375 94.7285C101.027 94.7285 100.744 94.7642 100.527 94.8354C100.31 94.9067 100.136 95.0065 100.006 95.1347C99.8752 95.263 99.7738 95.4126 99.7014 95.5837C99.6434 95.7547 99.6 95.9328 99.571 96.1181C99.542 96.2749 99.5275 96.3889 99.5275 96.4602C99.542 96.5172 99.6145 96.5599 99.7449 96.5884C99.8752 96.6027 100.078 96.6098 100.353 96.6098C100.643 96.5956 101.063 96.5884 101.614 96.5884C101.99 96.5884 102.273 96.5956 102.461 96.6098C102.65 96.6241 102.78 96.6312 102.852 96.6312C102.939 96.6169 102.983 96.5956 102.983 96.5671V96.3319C102.983 96.0469 102.903 95.7761 102.744 95.5195Z" fill="#F9D26E"/>
<path d="M73.7075 99.5172C73.5482 99.4745 73.3453 99.4531 73.099 99.4531C72.8528 99.4389 72.592 99.4389 72.3167 99.4531C72.0415 99.4674 71.7807 99.4816 71.5344 99.4959C71.2881 99.4959 71.0925 99.4887 70.9476 99.4745C70.9042 99.6598 70.839 99.8735 70.7521 100.116C70.6796 100.344 70.571 100.508 70.4261 100.608C70.2522 100.722 70.0204 100.8 69.7307 100.843C69.4409 100.871 69.1584 100.857 68.8832 100.8C68.6079 100.729 68.3689 100.6 68.166 100.415C67.9777 100.23 67.898 99.9733 67.927 99.6455C67.956 99.1467 67.9705 98.6692 67.9705 98.2132C67.9705 97.7571 67.9994 97.3082 68.0574 96.8664C68.1008 96.6383 68.166 96.4958 68.253 96.4388C68.4413 96.2108 68.6876 96.054 68.9918 95.9685C69.5568 95.826 70.0132 95.8972 70.3609 96.1823C70.7086 96.453 70.9187 96.8378 70.9911 97.3367C71.1795 97.3652 71.3895 97.3937 71.6213 97.4222C71.8676 97.4507 72.1139 97.4721 72.3602 97.4863C72.621 97.5006 72.8672 97.5077 73.099 97.5077C73.3453 97.5077 73.5627 97.4863 73.751 97.4436C73.7365 96.9732 73.722 96.5386 73.7075 96.1395C73.7075 95.7262 73.6786 95.3556 73.6206 95.0278C73.5627 94.7 73.4757 94.415 73.3598 94.1727C73.2584 93.9304 73.1063 93.738 72.9035 93.5955C72.5992 93.3105 72.237 93.0967 71.8169 92.9542C71.3968 92.8116 70.9549 92.7261 70.4913 92.6976C70.187 92.6691 69.8973 92.6691 69.622 92.6976C69.3613 92.7119 69.086 92.7047 68.7962 92.6762C68.4485 92.6762 68.1008 92.6976 67.7531 92.7404C67.4199 92.7831 67.1012 92.8615 66.797 92.9755C66.5072 93.0753 66.2464 93.2036 66.0146 93.3603C65.7973 93.5171 65.638 93.7024 65.5365 93.9162C65.4931 94.0587 65.4279 94.2653 65.341 94.5361C65.254 94.8069 65.2033 95.0207 65.1888 95.1775C65.1019 95.6906 65.0585 96.2036 65.0585 96.7167C65.1164 97.187 65.1309 97.7072 65.1019 98.2773C65.0874 98.8474 65.0947 99.4175 65.1236 99.9876C65.1526 100.543 65.2395 101.078 65.3844 101.591C65.5293 102.104 65.7973 102.532 66.1885 102.874C66.6955 103.372 67.3185 103.686 68.0574 103.814C68.463 103.814 68.9121 103.829 69.4047 103.857C69.8973 103.9 70.3754 103.9 70.839 103.857C71.3026 103.829 71.73 103.743 72.1211 103.6C72.5268 103.458 72.8528 103.216 73.099 102.874C73.2005 102.774 73.2801 102.617 73.3381 102.403C73.4105 102.175 73.4685 101.912 73.5119 101.612C73.5554 101.299 73.5916 100.964 73.6206 100.608C73.6496 100.251 73.6786 99.8878 73.7075 99.5172Z" fill="#F9D26E"/>
<path d="M90.3347 92.9969C89.8711 92.9399 89.3785 92.9328 88.857 92.9755C88.3499 93.004 87.8356 92.9898 87.3141 92.9328C87.7777 94.6145 88.1978 96.3818 88.5745 98.2346C88.9512 100.087 89.2844 101.904 89.5741 103.686H90.5086C90.8708 103.7 91.2329 103.707 91.5951 103.707C91.9718 103.722 92.334 103.722 92.6817 103.707C93.0439 103.707 93.3699 103.686 93.6596 103.643C93.9059 102.745 94.1305 101.84 94.3333 100.928C94.5361 100.002 94.7389 99.0826 94.9418 98.1704C95.1446 97.2583 95.3547 96.3675 95.572 95.4982C95.8038 94.6145 96.0718 93.7665 96.376 92.9542C96.0718 92.9399 95.7965 92.9328 95.5502 92.9328C95.304 92.9328 95.0649 92.9399 94.8331 92.9542C94.6013 92.9684 94.3768 92.9827 94.1594 92.9969C93.9421 93.0112 93.7103 93.0183 93.464 93.0183C93.2902 93.4459 93.1308 93.9874 92.9859 94.643C92.8411 95.2986 92.7034 95.9756 92.5731 96.674C92.4572 97.3723 92.334 98.0493 92.2036 98.7049C92.0732 99.3462 91.9284 99.8807 91.769 100.308C91.6096 99.8807 91.4647 99.3605 91.3344 98.7476C91.204 98.1205 91.0808 97.4649 90.9649 96.7808C90.849 96.0967 90.7404 95.4269 90.639 94.7713C90.5375 94.1014 90.4361 93.51 90.3347 92.9969Z" fill="#F9D26E"/>
<path d="M44.5195 98.2559C44.6644 98.2844 44.8962 98.3058 45.2149 98.3201C45.5337 98.3343 45.8886 98.3414 46.2798 98.3414C46.6854 98.3414 47.1056 98.3343 47.5402 98.3201C47.9748 98.3058 48.3805 98.2844 48.7571 98.2559C49.1483 98.2274 49.4815 98.1989 49.7568 98.1704C50.0465 98.1419 50.2421 98.1134 50.3435 98.0849C50.387 97.4863 50.387 96.8949 50.3435 96.3105L47.9965 96.5671C47.9965 96.5956 47.9531 96.6169 47.8662 96.6312C47.7937 96.6312 47.6633 96.6241 47.475 96.6098C47.2867 96.5956 47.0041 96.5884 46.6275 96.5884C46.0769 96.5884 45.6568 96.5956 45.3671 96.6098C45.0918 96.6098 44.889 96.6027 44.7586 96.5884C44.6282 96.5599 44.5557 96.5172 44.5413 96.4602L44.5195 98.2559Z" fill="#C5D64B"/>
<path d="M91.5951 103.707C91.9718 103.722 92.334 103.722 92.6817 103.707C93.0439 103.707 93.3699 103.686 93.6596 103.643C93.9059 102.745 94.1305 101.84 94.3333 100.928C94.5361 100.002 94.7389 99.0826 94.9418 98.1704C95.1446 97.2583 95.3547 96.3675 95.572 95.4982C95.8038 94.6145 96.0718 93.7665 96.376 92.9542C96.0718 92.9399 95.7965 92.9328 95.5502 92.9328C95.304 92.9328 95.0649 92.9399 94.8331 92.9542C94.6013 92.9684 94.3768 92.9827 94.1594 92.9969C93.9421 93.0112 93.7103 93.0183 93.464 93.0183C93.2902 93.4459 93.1308 93.9874 92.9859 94.643C92.8411 95.2986 92.7034 95.9756 92.5731 96.674C92.4572 97.3723 92.334 98.0493 92.2036 98.7049C92.0732 99.3462 91.9284 99.8807 91.769 100.308L91.5951 103.707Z" fill="#C5D64B"/>
<path d="M101.266 98.3414C101.672 98.3414 102.092 98.3343 102.526 98.3201C102.961 98.3058 103.367 98.2844 103.743 98.2559C104.135 98.2274 104.468 98.1989 104.743 98.1704C105.033 98.1419 105.228 98.1134 105.33 98.0849C105.373 97.4863 105.373 96.8949 105.33 96.3105C105.286 95.7262 105.156 95.1917 104.939 94.7072C104.736 94.2226 104.432 93.8093 104.026 93.4672C103.62 93.1252 103.084 92.8971 102.418 92.7831C101.896 92.6549 101.36 92.5978 100.81 92.6121V94.7686C100.974 94.7419 101.162 94.7285 101.375 94.7285C101.534 94.7285 101.672 94.7499 101.788 94.7927C101.903 94.8212 102.019 94.8711 102.135 94.9423C102.396 95.0706 102.599 95.263 102.744 95.5195C102.903 95.7761 102.983 96.0469 102.983 96.3319V96.5671C102.983 96.5956 102.939 96.6169 102.852 96.6312C102.78 96.6312 102.65 96.6241 102.461 96.6098C102.273 96.5956 101.99 96.5884 101.614 96.5884C101.305 96.5884 101.036 96.5907 100.81 96.5952V98.338C100.956 98.3403 101.108 98.3414 101.266 98.3414Z" fill="#C5D64B"/>
<path d="M123.53 92.8686C123.067 92.8829 122.668 92.8829 122.335 92.8686C122.002 92.8544 121.741 92.8401 121.553 92.8259C121.48 92.8259 121.372 92.8188 121.227 92.8045C121.096 92.7903 121.002 92.7903 120.944 92.8045V92.8259C120.857 93.6668 120.814 94.5361 120.814 95.434C120.814 96.3176 120.828 97.2155 120.857 98.1277C120.886 99.0398 120.901 99.9591 120.901 100.885C120.915 101.812 120.886 102.724 120.814 103.622C120.915 103.593 121.118 103.586 121.422 103.6C121.727 103.615 122.045 103.622 122.378 103.622C122.726 103.636 123.045 103.636 123.335 103.622C123.624 103.622 123.806 103.579 123.878 103.494C123.777 101.769 123.748 100.009 123.791 98.2132C123.849 96.4174 123.885 94.6573 123.9 92.9328V92.8686H123.53Z" fill="#C5D64B"/>
<path d="M129.333 95.5623H132.701C132.672 95.377 132.665 95.1561 132.68 94.8996C132.709 94.6288 132.73 94.3651 132.745 94.1086C132.759 93.852 132.759 93.6169 132.745 93.4031C132.73 93.1751 132.672 93.004 132.571 92.89C131.832 92.9328 131.209 92.9684 130.702 92.9969C130.209 93.0254 129.739 93.0468 129.29 93.061L129.333 95.5623Z" fill="#C5D64B"/>
<path d="M126.443 93.0397H125.704C125.458 93.0397 125.19 93.0325 124.9 93.0183L124.835 95.6264H125.66C125.921 95.6264 126.167 95.6193 126.399 95.605L126.443 93.0397Z" fill="#C5D64B"/>
<path d="M138.802 96.1823C139.15 96.453 139.36 96.8378 139.432 97.3367C139.621 97.3652 139.831 97.3937 140.062 97.4222C140.309 97.4507 140.555 97.4721 140.801 97.4863C141.062 97.5006 141.308 97.5077 141.54 97.5077C141.786 97.5077 142.004 97.4863 142.192 97.4436C142.178 96.9732 142.163 96.5386 142.149 96.1395C142.149 95.7262 142.12 95.3556 142.062 95.0278C142.004 94.7 141.917 94.415 141.801 94.1727C141.699 93.9304 141.547 93.738 141.345 93.5955C141.04 93.3105 140.678 93.0967 140.258 92.9542C139.838 92.8116 139.396 92.7261 138.932 92.6976C138.628 92.6691 138.338 92.6691 138.063 92.6976C137.802 92.7119 137.527 92.7047 137.237 92.6762L138.802 96.1823Z" fill="#C5D64B"/>
<path d="M146.242 94.0872V93.5527V92.4838V91.1584V89.8116V88.7213C146.242 88.4077 146.235 88.2153 146.22 88.1441C146.22 88.1013 146.163 88.0799 146.047 88.0799C145.931 88.0657 145.8 88.0657 145.655 88.0799C145.511 88.0942 145.366 88.1156 145.221 88.1441C145.076 88.1583 144.975 88.1654 144.917 88.1654C144.743 88.1797 144.598 88.1939 144.482 88.2082H144.156H143.83C143.714 88.1939 143.569 88.1797 143.395 88.1654C143.381 88.7925 143.366 89.5336 143.352 90.3888V93.0824V96.0326V98.94C143.366 99.8807 143.374 100.764 143.374 101.591C143.388 102.403 143.395 103.102 143.395 103.686C143.743 103.657 144.033 103.65 144.265 103.665C144.496 103.679 144.707 103.686 144.895 103.686C145.083 103.7 145.264 103.7 145.438 103.686C145.627 103.672 145.844 103.629 146.09 103.558V103.472C146.148 103.002 146.177 102.532 146.177 102.061C146.177 101.591 146.163 101.121 146.134 100.65C146.119 100.166 146.105 99.6883 146.09 99.2179C146.076 98.7334 146.083 98.2417 146.112 97.7429L146.242 94.0872Z" fill="#C5D64B"/>
<path d="M155.744 98.2559C155.889 98.2844 156.121 98.3058 156.44 98.3201C156.758 98.3343 157.113 98.3414 157.505 98.3414C157.91 98.3414 158.33 98.3343 158.765 98.3201C159.2 98.3058 159.605 98.2844 159.982 98.2559C160.373 98.2274 160.706 98.1989 160.982 98.1704C161.271 98.1419 161.467 98.1134 161.568 98.0849C161.612 97.4863 161.612 96.8949 161.568 96.3105L159.221 96.5671C159.221 96.5956 159.178 96.6169 159.091 96.6312C159.018 96.6312 158.888 96.6241 158.7 96.6098C158.511 96.5956 158.229 96.5884 157.852 96.5884C157.302 96.5884 156.882 96.5956 156.592 96.6098C156.317 96.6098 156.114 96.6027 155.983 96.5884C155.853 96.5599 155.78 96.5172 155.766 96.4602L152.941 96.0326C152.897 96.5172 152.854 97.0231 152.811 97.5505C152.782 98.1348 152.796 98.7191 152.854 99.3035C152.912 99.8878 153.021 100.444 153.18 100.971C153.339 101.484 153.549 101.961 153.81 102.403C154.071 102.831 154.397 103.18 154.788 103.451C155.136 103.65 155.512 103.779 155.918 103.836C156.324 103.836 156.766 103.85 157.244 103.878C157.736 103.907 158.214 103.907 158.678 103.878C159.142 103.85 159.569 103.764 159.96 103.622C160.351 103.479 160.67 103.237 160.916 102.895C161.018 102.809 161.097 102.66 161.155 102.446C161.228 102.218 161.286 101.954 161.329 101.655C161.373 101.342 161.409 101.007 161.438 100.65C161.467 100.294 161.496 99.9306 161.525 99.56C161.365 99.5172 161.163 99.4959 160.916 99.4959C160.67 99.4816 160.409 99.4816 160.134 99.4959C159.873 99.5101 159.62 99.5244 159.373 99.5386C159.127 99.5386 158.932 99.5315 158.787 99.5172C158.816 100.102 158.721 100.543 158.504 100.843C158.301 101.128 158.048 101.299 157.744 101.356C157.439 101.413 157.128 101.363 156.809 101.206C156.49 101.049 156.244 100.807 156.07 100.479C155.911 100.223 155.817 99.9591 155.788 99.6883C155.773 99.4175 155.759 99.0683 155.744 98.6407V98.2559Z" fill="#C5D64B"/>
<path d="M116.468 95.9471C116.728 95.3485 117.033 94.7499 117.38 94.1513L118.423 92.3556C118.786 91.757 119.119 91.1584 119.423 90.5598C119.742 89.9612 119.988 89.3626 120.162 88.764C119.698 88.6928 119.206 88.6714 118.684 88.6999C118.163 88.7284 117.67 88.7284 117.206 88.6999C116.902 89.1275 116.627 89.555 116.381 89.9826L115.685 91.2653C115.468 91.6928 115.236 92.1133 114.99 92.5266C114.744 92.9399 114.468 93.339 114.164 93.7238C114.135 93.7523 114.106 93.7879 114.077 93.8307C114.064 93.8556 114.058 93.8642 114.056 93.8564L114.164 97.9994C114.396 98.3984 114.628 98.8474 114.859 99.3462C115.091 99.845 115.323 100.351 115.555 100.864C115.801 101.377 116.055 101.876 116.315 102.361C116.576 102.831 116.859 103.237 117.163 103.579C117.627 103.593 118.126 103.615 118.662 103.643C119.213 103.672 119.72 103.636 120.184 103.536L116.468 95.9471Z" fill="#F9D26E"/>
<path d="M161.568 96.3105C161.525 95.7262 161.394 95.1917 161.177 94.7072C160.974 94.2226 160.67 93.8093 160.264 93.4672C159.859 93.1252 159.323 92.8971 158.656 92.7831C158.135 92.6549 157.599 92.5978 157.048 92.6121C156.498 92.6264 155.976 92.7119 155.483 92.8686C154.991 93.0112 154.549 93.2321 154.158 93.5314C153.767 93.8164 153.477 94.1656 153.289 94.5789C153.115 95.0492 152.999 95.5338 152.941 96.0326L155.766 96.4602C155.766 96.3889 155.78 96.2749 155.809 96.1181C155.838 95.9328 155.882 95.7547 155.94 95.5837C156.012 95.4126 156.114 95.263 156.244 95.1347C156.374 95.0065 156.548 94.9067 156.766 94.8354C156.983 94.7642 157.265 94.7285 157.613 94.7285C157.773 94.7285 157.91 94.7499 158.026 94.7927C158.142 94.8212 158.258 94.8711 158.374 94.9423C158.635 95.0706 158.837 95.263 158.982 95.5195C159.142 95.7761 159.221 96.0469 159.221 96.3319V96.5671L161.568 96.3105Z" fill="#F9D26E"/>
<path d="M86.0097 92.8686C85.5461 92.8829 85.1477 92.8829 84.8145 92.8686C84.4813 92.8544 84.2205 92.8401 84.0322 92.8259C83.9597 92.8259 83.8511 92.8188 83.7062 92.8045C83.5758 92.7903 83.4817 92.7903 83.4237 92.8045V92.8259C83.3368 93.6668 83.2933 94.5361 83.2933 95.434C83.2933 96.3177 83.3078 97.2155 83.3368 98.1277C83.3658 99.0398 83.3802 99.9591 83.3802 100.885C83.3947 101.812 83.3658 102.724 83.2933 103.622C83.3947 103.593 83.5976 103.586 83.9018 103.6C84.206 103.615 84.5248 103.622 84.858 103.622C85.2057 103.636 85.5244 103.636 85.8142 103.622C86.1039 103.622 86.285 103.579 86.3574 103.494C86.256 101.769 86.227 100.009 86.2705 98.2132C86.3285 96.4174 86.3647 94.6573 86.3792 92.9328V92.8686H86.0097Z" fill="#F9D26E"/>
<path d="M31.1417 88.764C29.6494 88.6073 28.1138 88.536 26.5346 88.5503C24.97 88.5503 23.4488 88.5574 21.971 88.5716V88.593C21.9855 88.593 21.9928 88.6001 21.9928 88.6144C21.9638 88.9564 21.9493 89.3127 21.9493 89.6833V90.7308C21.9638 91.0444 21.9783 91.3152 21.9928 91.5432C22.0217 91.7712 22.0507 91.9137 22.0797 91.9708C22.1666 91.9993 22.3187 92.0135 22.5361 92.0135C22.7534 92.0135 22.9924 92.0206 23.2532 92.0349C23.514 92.0349 23.7747 92.0491 24.0355 92.0776C24.2963 92.0919 24.5136 92.1418 24.6875 92.2273L24.7092 92.2487L28.3166 92.1204C28.3311 92.1061 28.3383 92.0919 28.3383 92.0776H28.4035C29.0844 92.0491 29.6277 92.0278 30.0334 92.0135C30.439 91.9993 30.7795 92.0206 31.0547 92.0776C31.1272 91.5646 31.1634 91.0016 31.1634 90.3888C31.1779 89.7759 31.1706 89.2343 31.1417 88.764Z" fill="#FDA6A6"/>
<path d="M24.7092 92.2487C24.7961 94.244 24.8468 95.9471 24.8613 97.358C24.8903 98.769 24.8975 99.9306 24.883 100.843C24.883 101.741 24.8758 102.418 24.8613 102.874C24.8468 103.33 24.8468 103.586 24.8613 103.643C25.1221 103.6 25.4046 103.579 25.7088 103.579H26.6215H27.556C27.8747 103.565 28.1645 103.536 28.4252 103.494V103.451C28.3963 101.897 28.3745 100.551 28.3601 99.4104C28.3456 98.2559 28.3311 97.2725 28.3166 96.4602C28.3021 95.6335 28.2876 94.9637 28.2731 94.4506V93.1893V92.4838C28.2876 92.3271 28.3021 92.213 28.3166 92.1418V92.1204L24.7092 92.2487Z" fill="#FDA6A6"/>
<path d="M35.0177 94.0872V88.7213C35.0177 88.4077 35.0104 88.2153 34.9959 88.1441C34.9959 88.1013 34.938 88.0799 34.8221 88.0799C34.7062 88.0657 34.5758 88.0657 34.4309 88.0799C34.2861 88.0942 34.1412 88.1156 33.9963 88.1441C33.8514 88.1583 33.75 88.1654 33.6921 88.1654C33.5182 88.1797 33.3733 88.1939 33.2574 88.2082H32.6055C32.4896 88.1939 32.3447 88.1797 32.1709 88.1654C32.1564 88.7925 32.1419 89.5336 32.1274 90.3888V98.94C32.1419 99.8807 32.1491 100.764 32.1491 101.591C32.1636 102.403 32.1709 103.102 32.1709 103.686C32.5186 103.657 32.8083 103.65 33.0401 103.665C33.2719 103.679 33.482 103.686 33.6703 103.686C33.8587 103.7 34.0398 103.7 34.2136 103.686C34.402 103.672 34.6193 103.629 34.8656 103.558V103.472C34.9235 103.002 34.9525 102.532 34.9525 102.061C34.9525 101.591 34.938 101.121 34.909 100.65C34.8945 100.166 34.88 99.6883 34.8656 99.2179C34.8511 98.7334 34.8583 98.2417 34.8873 97.7429L35.0177 94.0872Z" fill="#F9D26E"/>
<path d="M34.8873 97.7429C34.9163 97.3581 35.0177 97.073 35.1915 96.8877C35.3654 96.6882 35.561 96.5599 35.7783 96.5029C35.9956 96.4317 36.2129 96.4174 36.4302 96.4602C36.662 96.4887 36.8359 96.5314 36.9518 96.5884C36.9663 96.6027 36.9807 96.6098 36.9952 96.6098C37.0097 96.6098 37.0242 96.6169 37.0387 96.6312C37.1546 96.7167 37.2415 96.8378 37.2995 96.9946C37.3719 97.1514 37.4226 97.3295 37.4516 97.5291C37.4951 97.7286 37.524 97.9353 37.5385 98.149C37.553 98.3486 37.5675 98.5338 37.582 98.7049C37.611 99.0897 37.6254 99.503 37.6254 99.9448C37.6399 100.387 37.6399 100.828 37.6254 101.27V102.553C37.6254 102.966 37.6399 103.337 37.6689 103.665H39.0162C39.4219 103.679 39.8783 103.65 40.3853 103.579C40.3563 103.095 40.3491 102.532 40.3636 101.89C40.3781 101.249 40.3926 100.586 40.4071 99.9021C40.4215 99.2037 40.4288 98.5196 40.4288 97.8497C40.4433 97.1656 40.436 96.5386 40.4071 95.9685C40.3926 95.3984 40.3419 94.9138 40.2549 94.5148C40.1825 94.1014 40.0738 93.8307 39.929 93.7024C39.6247 93.4458 39.2843 93.2677 38.9076 93.1679C38.5309 93.0682 38.1397 93.0254 37.7341 93.0397C37.3429 93.0539 36.959 93.1252 36.5823 93.2534C36.2057 93.3817 35.8652 93.5527 35.561 93.7665C35.4885 93.8235 35.3944 93.8805 35.2785 93.9375C35.177 93.9946 35.0901 94.0444 35.0177 94.0872L34.8873 97.7429Z" fill="#FDA6A6"/>
<path d="M63.0026 96.1181C62.9446 95.8758 62.8649 95.548 62.7635 95.1347C62.6621 94.7214 62.5535 94.2653 62.4376 93.7665C62.3217 93.2677 62.1985 92.7475 62.0681 92.2059C61.9522 91.6643 61.8363 91.1584 61.7204 90.6881C61.619 90.2035 61.5176 89.7759 61.4162 89.4054C61.3293 89.0206 61.2641 88.7355 61.2206 88.5503C60.7425 88.593 60.3514 88.6215 60.0471 88.6358H58.8736C58.7577 88.6358 58.6491 88.6429 58.5477 88.6571L60.082 93.1641C60.0924 93.1902 60.1023 93.22 60.1123 93.2534C60.1992 93.4957 60.2934 93.9589 60.3948 94.643C60.5107 95.3271 60.6411 96.282 60.786 97.5077L60.6773 100.052C60.7787 100.265 60.8729 100.522 60.9598 100.821C61.0468 101.121 61.1264 101.434 61.1989 101.762C61.2858 102.09 61.3655 102.41 61.4379 102.724C61.5248 103.038 61.6118 103.308 61.6987 103.536H61.7204C62.184 103.636 62.6766 103.693 63.1982 103.707C63.7197 103.736 64.1978 103.707 64.6324 103.622V103.6L63.0026 96.1181Z" fill="#FDA6A6"/>
<path d="M58.5477 88.6571C58.2 89.7973 57.8812 90.9446 57.5915 92.099C57.3017 93.2534 57.0337 94.3651 56.7874 95.434C56.5411 96.5029 56.3238 97.5148 56.1355 98.4697C55.9616 99.4103 55.8095 100.244 55.6791 100.971C55.5487 101.698 55.4473 102.289 55.3749 102.745C55.3024 103.201 55.2517 103.479 55.2228 103.579C55.2372 103.593 55.2517 103.6 55.2662 103.6C56.2514 103.586 56.9758 103.593 57.4394 103.622C57.903 103.65 58.1927 103.65 58.3086 103.622H58.3303C58.3448 103.608 58.3593 103.6 58.3738 103.6C58.5042 103.358 58.6056 103.08 58.678 102.767C58.7505 102.453 58.8157 102.133 58.8736 101.805C58.9461 101.463 59.0113 101.142 59.0692 100.843C59.1416 100.529 59.2286 100.258 59.33 100.03H59.6994C59.8008 100.016 59.8877 100.009 59.9602 100.009H60.2427C60.3441 100.009 60.489 100.023 60.6773 100.052L60.786 97.5077C60.5107 97.5077 60.2354 97.5148 59.9602 97.5291C59.6849 97.5291 59.4241 97.5219 59.1779 97.5077C59.2793 96.7808 59.3662 96.1039 59.4386 95.4768C59.5256 94.8497 59.598 94.3295 59.6559 93.9162C59.7284 93.5029 59.8008 93.2321 59.8733 93.1038C59.9484 92.981 60.0177 93.0011 60.082 93.1641L58.5477 88.6571Z" fill="#FDA6A6"/>
<path d="M75.9757 95.605C75.9612 96.6454 75.9685 97.6573 75.9975 98.6407C76.0264 99.6099 76.1351 100.643 76.3234 101.741C76.5118 102.182 76.816 102.532 77.2362 102.788C77.6708 103.045 78.1634 103.237 78.7139 103.365C79.2644 103.494 79.8512 103.579 80.4741 103.622C81.0971 103.65 81.6983 103.65 82.2778 103.622C82.3503 103.408 82.3937 103.173 82.4082 102.916C82.4372 102.66 82.4444 102.403 82.4299 102.147C82.4155 101.89 82.3937 101.641 82.3647 101.399C82.3358 101.156 82.3068 100.935 82.2778 100.736C82.0315 100.75 81.7418 100.75 81.4086 100.736C81.0898 100.722 80.7711 100.686 80.4524 100.629C80.1337 100.558 79.8367 100.465 79.5614 100.351C79.2861 100.237 79.0761 100.08 78.9312 99.8807C78.9167 99.2393 78.9095 98.5552 78.9095 97.8284V95.5623L75.9757 95.605Z" fill="#FDA6A6"/>
<path d="M83.3368 88.2082C83.3223 88.8638 83.3295 89.4196 83.3585 89.8757C83.402 90.3175 83.4237 90.7451 83.4237 91.1584C83.699 91.1441 83.996 91.1513 84.3147 91.1798C84.6334 91.194 84.9304 91.2083 85.2057 91.2225C85.4954 91.2225 85.7417 91.2083 85.9445 91.1798C86.1618 91.1513 86.2995 91.0942 86.3574 91.0087C86.3574 90.795 86.3502 90.5527 86.3357 90.2819C86.3357 89.9968 86.3285 89.7261 86.314 89.4695C86.314 89.1987 86.3067 88.9564 86.2922 88.7427V88.2723L83.3368 88.2082Z" fill="#FDA6A6"/>
<path d="M114.055 93.852C114.026 93.0397 114.019 92.1845 114.034 91.2867C114.048 90.3888 114.041 89.5336 114.012 88.7213C113.548 88.7213 113.063 88.7141 112.556 88.6999C112.063 88.6714 111.578 88.6643 111.1 88.6785C111.114 91.1726 111.078 93.6596 110.991 96.1395C110.919 98.6051 110.941 101.064 111.056 103.515C111.245 103.558 111.477 103.593 111.752 103.622C112.042 103.65 112.339 103.665 112.643 103.665C112.947 103.665 113.237 103.65 113.512 103.622C113.787 103.608 114.026 103.572 114.229 103.515C114.229 103.116 114.222 102.681 114.208 102.211C114.208 101.741 114.2 101.263 114.186 100.779C114.171 100.294 114.157 99.8165 114.142 99.3462C114.142 98.8617 114.15 98.4127 114.164 97.9994L114.056 93.8564C114.056 93.8564 114.056 93.8549 114.056 93.854L114.055 93.852Z" fill="#FDA6A6"/>
<path d="M99.5058 98.2559C99.6507 98.2844 99.8825 98.3058 100.201 98.3201C100.391 98.3286 100.594 98.3345 100.81 98.338V96.5952C100.633 96.5987 100.481 96.6036 100.353 96.6098C100.078 96.6098 99.8752 96.6027 99.7449 96.5884C99.6145 96.5599 99.542 96.5172 99.5275 96.4602C99.5275 96.3889 99.542 96.2749 99.571 96.1181C99.6 95.9328 99.6434 95.7547 99.7014 95.5837C99.7738 95.4126 99.8752 95.263 100.006 95.1347C100.136 95.0065 100.31 94.9067 100.527 94.8354C100.611 94.8078 100.706 94.7855 100.81 94.7686V92.6121C100.259 92.6264 99.7376 92.7119 99.245 92.8686C98.7524 93.0112 98.3106 93.2321 97.9194 93.5314C97.5283 93.8164 97.2385 94.1656 97.0502 94.5789C96.8763 95.0492 96.7604 95.5338 96.7025 96.0326C96.659 96.5172 96.6155 97.0231 96.5721 97.5505C96.5431 98.1348 96.5576 98.7191 96.6155 99.3035C96.6735 99.8878 96.7821 100.444 96.9415 100.971C97.1009 101.484 97.3109 101.961 97.5717 102.403C97.8325 102.831 98.1585 103.18 98.5496 103.451C98.8973 103.65 99.274 103.779 99.6797 103.836C100.085 103.836 100.527 103.85 101.005 103.878C101.498 103.907 101.976 103.907 102.44 103.878C102.903 103.85 103.331 103.764 103.722 103.622C104.113 103.479 104.432 103.237 104.678 102.895C104.779 102.809 104.859 102.66 104.917 102.446C104.989 102.218 105.047 101.954 105.091 101.655C105.134 101.342 105.17 101.007 105.199 100.65C105.228 100.294 105.257 99.9306 105.286 99.56C105.127 99.5172 104.924 99.4959 104.678 99.4959C104.432 99.4816 104.171 99.4816 103.896 99.4959C103.635 99.5101 103.381 99.5244 103.135 99.5386C102.889 99.5386 102.693 99.5315 102.548 99.5172C102.577 100.102 102.483 100.543 102.266 100.843C102.063 101.128 101.809 101.299 101.505 101.356C101.201 101.413 100.889 101.363 100.571 101.206C100.252 101.049 100.006 100.807 99.8318 100.479C99.6724 100.223 99.5782 99.9591 99.5493 99.6883C99.5348 99.4175 99.5203 99.0683 99.5058 98.6407V98.2559Z" fill="#FDA6A6"/>
<path d="M142.149 99.5172C141.989 99.4745 141.786 99.4531 141.54 99.4531C141.294 99.4389 141.033 99.4389 140.758 99.4531C140.483 99.4674 140.222 99.4816 139.975 99.4959C139.729 99.4959 139.534 99.4887 139.389 99.4745C139.345 99.6598 139.28 99.8735 139.193 100.116C139.121 100.344 139.012 100.508 138.867 100.608C138.693 100.722 138.461 100.8 138.172 100.843C137.882 100.871 137.599 100.857 137.324 100.8C137.049 100.729 136.81 100.6 136.607 100.415C136.419 100.23 136.339 99.9733 136.368 99.6455C136.397 99.1467 136.411 98.6692 136.411 98.2132C136.411 97.7571 136.44 97.3082 136.498 96.8664C136.542 96.6383 136.607 96.4958 136.694 96.4388C136.882 96.2108 137.129 96.054 137.433 95.9685C137.998 95.826 138.454 95.8972 138.802 96.1823L137.237 92.6762C136.89 92.6762 136.542 92.6976 136.194 92.7404C135.861 92.7831 135.542 92.8615 135.238 92.9755C134.948 93.0753 134.687 93.2036 134.456 93.3603C134.238 93.5171 134.079 93.7024 133.978 93.9162C133.934 94.0587 133.869 94.2653 133.782 94.5361C133.695 94.8069 133.644 95.0207 133.63 95.1775C133.543 95.6906 133.5 96.2036 133.5 96.7167C133.557 97.187 133.572 97.7072 133.543 98.2773C133.528 98.8474 133.536 99.4175 133.565 99.9876C133.594 100.543 133.681 101.078 133.825 101.591C133.97 102.104 134.238 102.532 134.63 102.874C135.137 103.372 135.76 103.686 136.498 103.814C136.904 103.814 137.353 103.829 137.846 103.857C138.338 103.9 138.816 103.9 139.28 103.857C139.744 103.829 140.171 103.743 140.562 103.6C140.968 103.458 141.294 103.216 141.54 102.874C141.642 102.774 141.721 102.617 141.779 102.403C141.852 102.175 141.91 101.912 141.953 101.612C141.996 101.299 142.033 100.964 142.062 100.608C142.091 100.251 142.12 99.8878 142.149 99.5172Z" fill="#FDA6A6"/>
<path d="M146.112 97.7429C146.141 97.3581 146.242 97.073 146.416 96.8877C146.59 96.6882 146.786 96.5599 147.003 96.5029C147.22 96.4317 147.437 96.4174 147.655 96.4602C147.887 96.4887 148.06 96.5314 148.176 96.5884C148.191 96.6027 148.205 96.6098 148.22 96.6098C148.234 96.6098 148.249 96.6169 148.263 96.6312C148.379 96.7167 148.466 96.8378 148.524 96.9946C148.596 97.1514 148.647 97.3295 148.676 97.5291C148.72 97.7286 148.749 97.9353 148.763 98.149C148.778 98.3486 148.792 98.5338 148.807 98.7049C148.836 99.0897 148.85 99.503 148.85 99.9448C148.864 100.387 148.864 100.828 148.85 101.27V102.553C148.85 102.966 148.864 103.337 148.893 103.665H150.241C150.646 103.679 151.103 103.65 151.61 103.579C151.581 103.095 151.574 102.532 151.588 101.89C151.603 101.249 151.617 100.586 151.632 99.9021C151.646 99.2037 151.653 98.5196 151.653 97.8497C151.668 97.1656 151.661 96.5386 151.632 95.9685C151.617 95.3984 151.566 94.9138 151.479 94.5148C151.407 94.1014 151.298 93.8307 151.154 93.7024C150.849 93.4458 150.509 93.2677 150.132 93.1679C149.755 93.0682 149.364 93.0254 148.959 93.0397C148.567 93.0539 148.184 93.1252 147.807 93.2534C147.43 93.3817 147.09 93.5527 146.786 93.7665C146.713 93.8235 146.619 93.8805 146.503 93.9375C146.402 93.9946 146.315 94.0444 146.242 94.0872L146.112 97.7429Z" fill="#FDA6A6"/>
<path d="M165.552 97.7429C165.581 97.3581 165.683 97.073 165.857 96.8877C166.03 96.6882 166.226 96.5599 166.443 96.5029C166.661 96.4317 166.878 96.4174 167.095 96.4602C167.327 96.4887 167.501 96.5314 167.617 96.5884C167.631 96.6027 167.646 96.6098 167.66 96.6098C167.675 96.6098 167.689 96.6169 167.704 96.6312C167.82 96.7167 167.907 96.8378 167.965 96.9946C168.037 97.1514 168.088 97.3295 168.117 97.5291C168.16 97.7286 168.189 97.9353 168.204 98.149C168.218 98.3486 168.233 98.5338 168.247 98.7049C168.276 99.0897 168.29 99.503 168.29 99.9448C168.305 100.387 168.305 100.828 168.29 101.27V102.553C168.29 102.966 168.305 103.337 168.334 103.665H169.681C170.087 103.679 170.543 103.65 171.05 103.579C171.021 103.095 171.014 102.532 171.029 101.89C171.043 101.249 171.058 100.586 171.072 99.9021C171.087 99.2037 171.094 98.5196 171.094 97.8497C171.108 97.1656 171.101 96.5386 171.072 95.9685C171.058 95.3984 171.007 94.9138 170.92 94.5148C170.848 94.1014 170.739 93.8307 170.594 93.7024C170.29 93.4458 169.949 93.2677 169.573 93.1679C169.196 93.0682 168.805 93.0254 168.399 93.0397C168.008 93.0539 167.624 93.1252 167.247 93.2534C166.871 93.3817 166.53 93.5527 166.226 93.7665C166.154 93.8235 166.059 93.8805 165.943 93.9375C165.842 93.9946 165.755 94.0444 165.683 94.0872L165.552 97.7429Z" fill="#FDA6A6"/>
<path d="M78.8443 88.9992C78.598 89.0277 78.3517 89.0348 78.1054 89.0206L77.3665 88.9778C77.1203 88.9493 76.8812 88.9279 76.6494 88.9137C76.4321 88.8994 76.2293 88.9066 76.0409 88.9351C76.0119 89.2058 75.9902 89.5123 75.9757 89.8543V90.9232C75.9757 91.2938 75.983 91.6643 75.9975 92.0349C76.012 92.3912 76.0192 92.7261 76.0192 93.0397L78.866 93.061C78.866 92.8473 78.8588 92.6406 78.8443 92.4411V88.9992Z" fill="#F9D26E"/>
<path d="M129.268 88.9992C129.021 89.0277 128.775 89.0348 128.529 89.0206L127.79 88.9778C127.544 88.9493 127.305 88.9279 127.073 88.9137C126.856 88.8994 126.653 88.9066 126.464 88.9351C126.435 89.2058 126.414 89.5123 126.399 89.8543V90.9232C126.399 91.2938 126.406 91.6643 126.421 92.0349C126.435 92.3912 126.443 92.7261 126.443 93.0397L126.399 95.605C126.385 96.6454 126.392 97.6573 126.421 98.6407C126.45 99.6099 126.559 100.643 126.747 101.741C126.935 102.182 127.24 102.532 127.66 102.788C128.094 103.045 128.587 103.237 129.137 103.365C129.688 103.494 130.275 103.579 130.898 103.622C131.521 103.65 132.122 103.65 132.701 103.622C132.774 103.408 132.817 103.173 132.832 102.916C132.861 102.66 132.868 102.403 132.853 102.147C132.839 101.89 132.817 101.641 132.788 101.399C132.759 101.156 132.73 100.935 132.701 100.736C132.455 100.75 132.165 100.75 131.832 100.736C131.513 100.722 131.195 100.686 130.876 100.629C130.557 100.558 130.26 100.465 129.985 100.351C129.71 100.237 129.5 100.08 129.355 99.8807C129.34 99.2393 129.333 98.5552 129.333 97.8284V95.5623L129.29 93.061C129.29 92.8473 129.282 92.6406 129.268 92.4411V91.8639V88.9992Z" fill="#F9D26E"/>
<path d="M165.775 94.0872C165.76 93.8877 165.753 93.7095 165.753 93.5527C165.767 93.396 165.76 93.1964 165.731 92.9542C165.731 92.9114 165.673 92.89 165.557 92.89C165.441 92.8758 165.311 92.8758 165.166 92.89C165.021 92.9043 164.876 92.9257 164.732 92.9542C164.587 92.9684 164.485 92.9755 164.427 92.9755C164.253 92.9898 164.109 93.004 163.993 93.0183H163.341C163.225 93.004 163.08 92.9898 162.906 92.9755C162.848 94.8568 162.834 96.6739 162.863 98.427C162.906 100.18 162.928 101.933 162.928 103.686C163.275 103.657 163.565 103.65 163.797 103.665C164.029 103.679 164.239 103.686 164.427 103.686C164.616 103.7 164.797 103.7 164.971 103.686C165.159 103.672 165.376 103.629 165.622 103.558V103.472C165.68 103.002 165.709 102.532 165.709 102.061C165.709 101.591 165.695 101.121 165.666 100.65C165.651 100.166 165.637 99.6883 165.622 99.2179C165.608 98.7334 165.615 98.2417 165.644 97.7429L165.775 94.0872Z" fill="#C5D64B"/>
</svg>
