<svg width="405" height="109" viewBox="0 0 405 109" fill="none" xmlns="http://www.w3.org/2000/svg">
<path d="M377.88 76.612L381.281 82.4425L364.955 91.9655L361.554 86.135L377.88 76.612Z" fill="#F9D26E"/>
<path d="M184.481 47.144C183.457 47.016 182.369 47 181.217 47.096C180.097 47.16 178.961 47.128 177.809 47C178.833 50.776 179.761 54.744 180.593 58.904C181.425 63.064 182.161 67.144 182.801 71.144C183.409 71.144 184.097 71.144 184.865 71.144C185.665 71.176 186.465 71.192 187.265 71.192C188.097 71.224 188.897 71.224 189.665 71.192C190.465 71.192 191.185 71.144 191.825 71.048C192.369 69.032 192.865 67 193.313 64.952C193.761 62.872 194.209 60.808 194.657 58.76C195.105 56.712 195.569 54.712 196.049 52.76C196.561 50.776 197.153 48.872 197.825 47.048C197.153 47.016 196.545 47 196.001 47C195.457 47 194.929 47.016 194.417 47.048C193.905 47.08 193.409 47.112 192.929 47.144C192.449 47.176 191.937 47.192 191.393 47.192C191.009 48.152 190.657 49.368 190.337 50.84C190.017 52.312 189.713 53.832 189.425 55.4C189.169 56.968 188.897 58.488 188.609 59.96C188.321 61.4 188.001 62.6 187.649 63.56C187.297 62.6 186.977 61.432 186.689 60.056C186.401 58.648 186.129 57.176 185.873 55.64C185.617 54.104 185.377 52.6 185.153 51.128C184.929 49.624 184.705 48.296 184.481 47.144Z" fill="#C5D64B"/>
<path d="M204.738 58.952C205.058 59.016 205.57 59.064 206.274 59.096C206.978 59.128 207.762 59.144 208.626 59.144C209.522 59.144 210.45 59.128 211.41 59.096C212.37 59.064 213.266 59.016 214.098 58.952C214.962 58.888 215.698 58.824 216.306 58.76C216.946 58.696 217.378 58.632 217.602 58.568C217.698 57.224 217.698 55.896 217.602 54.584C217.506 53.272 217.218 52.072 216.738 50.984C216.29 49.896 215.618 48.968 214.722 48.2C213.826 47.432 212.642 46.92 211.17 46.664C210.018 46.376 208.834 46.248 207.618 46.28C206.402 46.312 205.25 46.504 204.162 46.856C203.074 47.176 202.098 47.672 201.234 48.344C200.37 48.984 199.73 49.768 199.314 50.696C198.93 51.752 198.674 52.84 198.546 53.96C198.45 55.048 198.354 56.184 198.258 57.368C198.194 58.68 198.226 59.992 198.354 61.304C198.482 62.616 198.722 63.864 199.074 65.048C199.426 66.2 199.89 67.272 200.466 68.264C201.042 69.224 201.762 70.008 202.626 70.616C203.394 71.064 204.226 71.352 205.122 71.48C206.018 71.48 206.994 71.512 208.05 71.576C209.138 71.64 210.194 71.64 211.218 71.576C212.242 71.512 213.186 71.32 214.05 71C214.914 70.68 215.618 70.136 216.162 69.368C216.386 69.176 216.562 68.84 216.69 68.36C216.85 67.848 216.978 67.256 217.074 66.584C217.17 65.88 217.25 65.128 217.314 64.328C217.378 63.528 217.442 62.712 217.506 61.88C217.154 61.784 216.706 61.736 216.162 61.736C215.618 61.704 215.042 61.704 214.434 61.736C213.858 61.768 213.298 61.8 212.754 61.832C212.21 61.832 211.778 61.816 211.458 61.784C211.522 63.096 211.314 64.088 210.834 64.76C210.386 65.4 209.826 65.784 209.154 65.912C208.482 66.04 207.794 65.928 207.09 65.576C206.386 65.224 205.842 64.68 205.458 63.944C205.106 63.368 204.898 62.776 204.834 62.168C204.802 61.56 204.77 60.776 204.738 59.816V58.952ZM210.546 51.512C211.122 51.8 211.57 52.232 211.89 52.808C212.242 53.384 212.418 53.992 212.418 54.632C212.418 54.888 212.418 55.064 212.418 55.16C212.418 55.224 212.322 55.272 212.13 55.304C211.97 55.304 211.682 55.288 211.266 55.256C210.85 55.224 210.226 55.208 209.394 55.208C208.178 55.208 207.25 55.224 206.61 55.256C206.002 55.256 205.554 55.24 205.266 55.208C204.978 55.144 204.818 55.048 204.786 54.92C204.786 54.76 204.818 54.504 204.882 54.152C204.946 53.736 205.042 53.336 205.17 52.952C205.33 52.568 205.554 52.232 205.842 51.944C206.13 51.656 206.514 51.432 206.994 51.272C207.474 51.112 208.098 51.032 208.866 51.032C209.218 51.032 209.522 51.08 209.778 51.176C210.034 51.24 210.29 51.352 210.546 51.512Z" fill="#C5D64B"/>
<path d="M242.204 53.768C242.78 52.424 243.451 51.08 244.219 49.736C244.988 48.392 245.755 47.048 246.523 45.704C247.324 44.36 248.06 43.016 248.732 41.672C249.436 40.328 249.979 38.984 250.363 37.64C249.339 37.48 248.251 37.432 247.1 37.496C245.948 37.56 244.859 37.56 243.835 37.496C243.163 38.456 242.556 39.416 242.012 40.376C241.5 41.336 240.987 42.296 240.475 43.256C239.995 44.216 239.484 45.16 238.939 46.088C238.395 47.016 237.787 47.912 237.115 48.776C237.051 48.84 236.988 48.92 236.924 49.016C236.892 49.08 236.876 49.096 236.876 49.064C236.812 47.24 236.796 45.32 236.827 43.304C236.859 41.288 236.843 39.368 236.779 37.544C235.755 37.544 234.684 37.528 233.564 37.496C232.476 37.432 231.404 37.416 230.348 37.448C230.38 43.048 230.299 48.632 230.107 54.2C229.947 59.736 229.995 65.256 230.251 70.76C230.667 70.856 231.18 70.936 231.788 71C232.428 71.064 233.083 71.096 233.755 71.096C234.427 71.096 235.068 71.064 235.676 71C236.284 70.968 236.812 70.888 237.26 70.76C237.26 69.864 237.243 68.888 237.212 67.832C237.212 66.776 237.195 65.704 237.163 64.616C237.132 63.528 237.1 62.456 237.068 61.4C237.068 60.312 237.083 59.304 237.115 58.376C237.627 59.272 238.14 60.28 238.652 61.4C239.163 62.52 239.676 63.656 240.188 64.808C240.732 65.96 241.292 67.08 241.868 68.168C242.444 69.224 243.068 70.136 243.74 70.904C244.764 70.936 245.867 70.984 247.051 71.048C248.268 71.112 249.387 71.032 250.411 70.808L242.204 53.768Z" fill="#C5D64B"/>
<path d="M257.803 46.856C256.779 46.888 255.899 46.888 255.163 46.856C254.427 46.824 253.851 46.792 253.435 46.76C253.275 46.76 253.035 46.744 252.715 46.712C252.427 46.68 252.219 46.68 252.091 46.712V46.76C251.899 48.648 251.803 50.6 251.803 52.616C251.803 54.6 251.835 56.616 251.899 58.664C251.963 60.712 251.995 62.776 251.995 64.856C252.027 66.936 251.963 68.984 251.803 71C252.027 70.936 252.475 70.92 253.147 70.952C253.819 70.984 254.523 71 255.259 71C256.027 71.032 256.731 71.032 257.371 71C258.011 71 258.411 70.904 258.571 70.712C258.347 66.84 258.283 62.888 258.379 58.856C258.507 54.824 258.587 50.872 258.619 47V46.856H257.803ZM251.899 36.392C251.867 37.864 251.883 39.112 251.947 40.136C252.043 41.128 252.091 42.088 252.091 43.016C252.699 42.984 253.355 43 254.059 43.064C254.763 43.096 255.419 43.128 256.027 43.16C256.667 43.16 257.211 43.128 257.659 43.064C258.139 43 258.443 42.872 258.571 42.68C258.571 42.2 258.555 41.656 258.523 41.048C258.523 40.408 258.507 39.8 258.475 39.224C258.475 38.616 258.459 38.072 258.427 37.592C258.427 37.08 258.427 36.728 258.427 36.536L251.899 36.392Z" fill="#C5D64B"/>
<path d="M270.476 38.168C269.932 38.232 269.388 38.248 268.844 38.216C268.3 38.184 267.756 38.152 267.212 38.12C266.668 38.056 266.14 38.008 265.628 37.976C265.148 37.944 264.7 37.96 264.284 38.024C264.22 38.632 264.172 39.32 264.14 40.088C264.14 40.856 264.14 41.656 264.14 42.488C264.14 43.32 264.156 44.152 264.188 44.984C264.22 45.784 264.236 46.536 264.236 47.24C263.724 47.24 263.18 47.24 262.604 47.24C262.06 47.24 261.468 47.224 260.828 47.192L260.684 53.048C261.356 53.048 261.964 53.048 262.508 53.048C263.084 53.048 263.628 53.032 264.14 53C264.108 55.336 264.124 57.608 264.188 59.816C264.252 61.992 264.492 64.312 264.908 66.776C265.324 67.768 265.996 68.552 266.924 69.128C267.884 69.704 268.972 70.136 270.188 70.424C271.404 70.712 272.7 70.904 274.076 71C275.452 71.064 276.78 71.064 278.06 71C278.22 70.52 278.316 69.992 278.348 69.416C278.412 68.84 278.428 68.264 278.396 67.688C278.364 67.112 278.316 66.552 278.252 66.008C278.188 65.464 278.124 64.968 278.06 64.52C277.516 64.552 276.876 64.552 276.14 64.52C275.436 64.488 274.732 64.408 274.028 64.28C273.324 64.12 272.668 63.912 272.06 63.656C271.452 63.4 270.988 63.048 270.668 62.6C270.636 61.16 270.62 59.624 270.62 57.992C270.62 56.328 270.62 54.632 270.62 52.904H278.06C277.996 52.488 277.98 51.992 278.012 51.416C278.076 50.808 278.124 50.216 278.156 49.64C278.188 49.064 278.188 48.536 278.156 48.056C278.124 47.544 277.996 47.16 277.772 46.904C276.14 47 274.764 47.08 273.644 47.144C272.556 47.208 271.516 47.256 270.524 47.288C270.524 46.808 270.508 46.344 270.476 45.896C270.476 45.448 270.476 45.016 270.476 44.6V38.168Z" fill="#C5D64B"/>
<path d="M298.927 61.784C298.575 61.688 298.127 61.64 297.583 61.64C297.039 61.608 296.463 61.608 295.855 61.64C295.247 61.672 294.671 61.704 294.127 61.736C293.583 61.736 293.151 61.72 292.831 61.688C292.735 62.104 292.591 62.584 292.399 63.128C292.239 63.64 291.999 64.008 291.679 64.232C291.295 64.488 290.783 64.664 290.143 64.76C289.503 64.824 288.879 64.792 288.271 64.664C287.663 64.504 287.135 64.216 286.687 63.8C286.271 63.384 286.095 62.808 286.159 62.072C286.223 60.952 286.255 59.88 286.255 58.856C286.255 57.832 286.319 56.824 286.447 55.832C286.543 55.32 286.687 55 286.879 54.872C287.295 54.36 287.839 54.008 288.511 53.816C289.759 53.496 290.767 53.656 291.535 54.296C292.303 54.904 292.767 55.768 292.927 56.888C293.343 56.952 293.807 57.016 294.319 57.08C294.863 57.144 295.407 57.192 295.951 57.224C296.527 57.256 297.071 57.272 297.583 57.272C298.127 57.272 298.607 57.224 299.023 57.128C298.991 56.072 298.959 55.096 298.927 54.2C298.927 53.272 298.863 52.44 298.735 51.704C298.607 50.968 298.415 50.328 298.159 49.784C297.935 49.24 297.599 48.808 297.151 48.488C296.479 47.848 295.679 47.368 294.751 47.048C293.823 46.728 292.847 46.536 291.823 46.472C291.151 46.408 290.511 46.408 289.903 46.472C289.327 46.504 288.719 46.488 288.079 46.424C287.311 46.424 286.543 46.472 285.775 46.568C285.039 46.664 284.335 46.84 283.663 47.096C283.023 47.32 282.447 47.608 281.935 47.96C281.455 48.312 281.103 48.728 280.879 49.208C280.783 49.528 280.639 49.992 280.447 50.6C280.255 51.208 280.143 51.688 280.111 52.04C279.919 53.192 279.823 54.344 279.823 55.496C279.951 56.552 279.983 57.72 279.919 59C279.887 60.28 279.903 61.56 279.967 62.84C280.031 64.088 280.223 65.288 280.543 66.44C280.863 67.592 281.455 68.552 282.319 69.32C283.439 70.44 284.815 71.144 286.447 71.432C287.343 71.432 288.335 71.464 289.423 71.528C290.511 71.624 291.567 71.624 292.591 71.528C293.615 71.464 294.559 71.272 295.423 70.952C296.319 70.632 297.039 70.088 297.583 69.32C297.807 69.096 297.983 68.744 298.111 68.264C298.271 67.752 298.399 67.16 298.495 66.488C298.591 65.784 298.671 65.032 298.735 64.232C298.799 63.432 298.863 62.616 298.927 61.784Z" fill="#C5D64B"/>
<path d="M307.969 49.592C307.969 49.464 307.969 49.064 307.969 48.392C307.969 47.72 307.969 46.92 307.969 45.992C307.969 45.064 307.969 44.072 307.969 43.016C307.969 41.928 307.969 40.92 307.969 39.992C307.969 39.032 307.969 38.216 307.969 37.544C307.969 36.84 307.953 36.408 307.921 36.248C307.921 36.152 307.793 36.104 307.537 36.104C307.281 36.072 306.993 36.072 306.673 36.104C306.353 36.136 306.033 36.184 305.713 36.248C305.393 36.28 305.169 36.296 305.041 36.296C304.657 36.328 304.337 36.36 304.081 36.392C303.825 36.392 303.585 36.392 303.361 36.392C303.137 36.392 302.897 36.392 302.641 36.392C302.385 36.36 302.065 36.328 301.681 36.296C301.649 37.704 301.617 39.368 301.585 41.288C301.585 43.176 301.585 45.192 301.585 47.336C301.585 49.48 301.585 51.688 301.585 53.96C301.585 56.2 301.585 58.376 301.585 60.488C301.617 62.6 301.633 64.584 301.633 66.44C301.665 68.264 301.681 69.832 301.681 71.144C302.449 71.08 303.089 71.064 303.601 71.096C304.113 71.128 304.577 71.144 304.993 71.144C305.409 71.176 305.809 71.176 306.193 71.144C306.609 71.112 307.089 71.016 307.633 70.856V70.664C307.761 69.608 307.825 68.552 307.825 67.496C307.825 66.44 307.793 65.384 307.729 64.328C307.697 63.24 307.665 62.168 307.633 61.112C307.601 60.024 307.617 58.92 307.681 57.8C307.745 56.936 307.969 56.296 308.353 55.88C308.737 55.432 309.169 55.144 309.649 55.016C310.129 54.856 310.609 54.824 311.089 54.92C311.601 54.984 311.985 55.08 312.241 55.208C312.273 55.24 312.305 55.256 312.337 55.256C312.369 55.256 312.401 55.272 312.433 55.304C312.689 55.496 312.881 55.768 313.009 56.12C313.169 56.472 313.281 56.872 313.345 57.32C313.441 57.768 313.505 58.232 313.537 58.712C313.569 59.16 313.601 59.576 313.633 59.96C313.697 60.824 313.729 61.752 313.729 62.744C313.761 63.736 313.761 64.728 313.729 65.72C313.729 66.712 313.729 67.672 313.729 68.6C313.729 69.528 313.761 70.36 313.825 71.096C314.945 71.096 315.937 71.096 316.801 71.096C317.697 71.128 318.705 71.064 319.825 70.904C319.761 69.816 319.745 68.552 319.777 67.112C319.809 65.672 319.841 64.184 319.873 62.648C319.905 61.08 319.921 59.544 319.921 58.04C319.953 56.504 319.937 55.096 319.873 53.816C319.841 52.536 319.729 51.448 319.537 50.552C319.377 49.624 319.137 49.016 318.817 48.728C318.145 48.152 317.393 47.752 316.561 47.528C315.729 47.304 314.865 47.208 313.969 47.24C313.105 47.272 312.257 47.432 311.425 47.72C310.593 48.008 309.841 48.392 309.169 48.872C309.009 49 308.801 49.128 308.545 49.256C308.321 49.384 308.129 49.496 307.969 49.592Z" fill="#C5D64B"/>
<path d="M328.957 58.952C329.277 59.016 329.789 59.064 330.493 59.096C331.197 59.128 331.981 59.144 332.845 59.144C333.741 59.144 334.669 59.128 335.629 59.096C336.589 59.064 337.485 59.016 338.317 58.952C339.181 58.888 339.917 58.824 340.525 58.76C341.165 58.696 341.597 58.632 341.821 58.568C341.917 57.224 341.917 55.896 341.821 54.584C341.725 53.272 341.437 52.072 340.957 50.984C340.509 49.896 339.837 48.968 338.941 48.2C338.045 47.432 336.861 46.92 335.389 46.664C334.237 46.376 333.053 46.248 331.837 46.28C330.621 46.312 329.469 46.504 328.381 46.856C327.293 47.176 326.317 47.672 325.453 48.344C324.589 48.984 323.949 49.768 323.533 50.696C323.149 51.752 322.893 52.84 322.765 53.96C322.669 55.048 322.573 56.184 322.477 57.368C322.413 58.68 322.445 59.992 322.573 61.304C322.701 62.616 322.941 63.864 323.293 65.048C323.645 66.2 324.109 67.272 324.685 68.264C325.261 69.224 325.981 70.008 326.845 70.616C327.613 71.064 328.445 71.352 329.341 71.48C330.237 71.48 331.213 71.512 332.269 71.576C333.357 71.64 334.413 71.64 335.437 71.576C336.461 71.512 337.405 71.32 338.269 71C339.133 70.68 339.837 70.136 340.381 69.368C340.605 69.176 340.781 68.84 340.909 68.36C341.069 67.848 341.197 67.256 341.293 66.584C341.389 65.88 341.469 65.128 341.533 64.328C341.597 63.528 341.661 62.712 341.725 61.88C341.373 61.784 340.925 61.736 340.381 61.736C339.837 61.704 339.261 61.704 338.653 61.736C338.077 61.768 337.517 61.8 336.973 61.832C336.429 61.832 335.997 61.816 335.677 61.784C335.741 63.096 335.533 64.088 335.053 64.76C334.605 65.4 334.045 65.784 333.373 65.912C332.701 66.04 332.013 65.928 331.309 65.576C330.605 65.224 330.061 64.68 329.677 63.944C329.325 63.368 329.117 62.776 329.053 62.168C329.021 61.56 328.989 60.776 328.957 59.816V58.952ZM334.765 51.512C335.341 51.8 335.789 52.232 336.109 52.808C336.461 53.384 336.637 53.992 336.637 54.632C336.637 54.888 336.637 55.064 336.637 55.16C336.637 55.224 336.541 55.272 336.349 55.304C336.189 55.304 335.901 55.288 335.485 55.256C335.069 55.224 334.445 55.208 333.613 55.208C332.397 55.208 331.469 55.224 330.829 55.256C330.221 55.256 329.773 55.24 329.485 55.208C329.197 55.144 329.037 55.048 329.005 54.92C329.005 54.76 329.037 54.504 329.101 54.152C329.165 53.736 329.261 53.336 329.389 52.952C329.549 52.568 329.773 52.232 330.061 51.944C330.349 51.656 330.733 51.432 331.213 51.272C331.693 51.112 332.317 51.032 333.085 51.032C333.437 51.032 333.741 51.08 333.997 51.176C334.253 51.24 334.509 51.352 334.765 51.512Z" fill="#C5D64B"/>
<path d="M62.2973 49.592V37.544C62.2973 36.84 62.2813 36.408 62.2493 36.248C62.2493 36.152 62.1213 36.104 61.8653 36.104C61.6093 36.072 61.3213 36.072 61.0013 36.104C60.6813 36.136 60.3613 36.184 60.0413 36.248C59.7213 36.28 59.4973 36.296 59.3693 36.296C58.9853 36.328 58.6653 36.36 58.4093 36.392H56.9693C56.7133 36.36 56.3933 36.328 56.0093 36.296C55.9773 37.704 55.9453 39.368 55.9133 41.288V60.488C55.9453 62.6 55.9613 64.584 55.9613 66.44C55.9933 68.264 56.0093 69.832 56.0093 71.144C56.7773 71.08 57.4173 71.064 57.9293 71.096C58.4413 71.128 58.9053 71.144 59.3213 71.144C59.7373 71.176 60.1373 71.176 60.5213 71.144C60.9373 71.112 61.4173 71.016 61.9613 70.856V70.664C62.0893 69.608 62.1533 68.552 62.1533 67.496C62.1533 66.44 62.1213 65.384 62.0573 64.328C62.0253 63.24 61.9933 62.168 61.9613 61.112C61.9293 60.024 61.9453 58.92 62.0093 57.8C62.0733 56.936 62.2973 56.296 62.6813 55.88C63.0653 55.432 63.4973 55.144 63.9773 55.016C64.4573 54.856 64.9373 54.824 65.4173 54.92C65.9293 54.984 66.3133 55.08 66.5693 55.208C66.6013 55.24 66.6333 55.256 66.6653 55.256C66.6973 55.256 66.7293 55.272 66.7613 55.304C67.0173 55.496 67.2093 55.768 67.3373 56.12C67.4973 56.472 67.6093 56.872 67.6733 57.32C67.7693 57.768 67.8333 58.232 67.8653 58.712C67.8973 59.16 67.9293 59.576 67.9613 59.96C68.0253 60.824 68.0573 61.752 68.0573 62.744C68.0893 63.736 68.0893 64.728 68.0573 65.72V68.6C68.0573 69.528 68.0893 70.36 68.1533 71.096H71.1293C72.0253 71.128 73.0333 71.064 74.1533 70.904C74.0893 69.816 74.0733 68.552 74.1053 67.112C74.1373 65.672 74.1693 64.184 74.2013 62.648C74.2333 61.08 74.2493 59.544 74.2493 58.04C74.2813 56.504 74.2653 55.096 74.2013 53.816C74.1693 52.536 74.0573 51.448 73.8653 50.552C73.7053 49.624 73.4653 49.016 73.1453 48.728C72.4733 48.152 71.7213 47.752 70.8893 47.528C70.0573 47.304 69.1933 47.208 68.2973 47.24C67.4333 47.272 66.5853 47.432 65.7533 47.72C64.9213 48.008 64.1693 48.392 63.4973 48.872C63.3373 49 63.1293 49.128 62.8733 49.256C62.6493 49.384 62.4573 49.496 62.2973 49.592Z" fill="#C5D64B"/>
<path fill-rule="evenodd" clip-rule="evenodd" d="M83.2849 58.952C83.6049 59.016 84.1169 59.064 84.8209 59.096C85.5249 59.128 86.3089 59.144 87.1729 59.144C88.0689 59.144 88.9969 59.128 89.9569 59.096C90.9169 59.064 91.8129 59.016 92.6449 58.952C93.5089 58.888 94.2449 58.824 94.8529 58.76C95.4929 58.696 95.9249 58.632 96.1489 58.568C96.2449 57.224 96.2449 55.896 96.1489 54.584C96.0529 53.272 95.7649 52.072 95.2849 50.984C94.8369 49.896 94.1649 48.968 93.2689 48.2C92.3729 47.432 91.1889 46.92 89.7169 46.664C88.5649 46.376 87.3809 46.248 86.1649 46.28C84.9489 46.312 83.7969 46.504 82.7089 46.856C81.6209 47.176 80.6449 47.672 79.7809 48.344C78.9169 48.984 78.2769 49.768 77.8609 50.696C77.4769 51.752 77.2209 52.84 77.0929 53.96C76.9969 55.048 76.9009 56.184 76.8049 57.368C76.7409 58.68 76.7729 59.992 76.9009 61.304C77.0289 62.616 77.2689 63.864 77.6209 65.048C77.9729 66.2 78.4369 67.272 79.0129 68.264C79.5889 69.224 80.3089 70.008 81.1729 70.616C81.9409 71.064 82.7729 71.352 83.6689 71.48C84.5649 71.48 85.5409 71.512 86.5969 71.576C87.6849 71.64 88.7409 71.64 89.7649 71.576C90.7889 71.512 91.7329 71.32 92.5969 71C93.4609 70.68 94.1649 70.136 94.7089 69.368C94.9329 69.176 95.1089 68.84 95.2369 68.36C95.3969 67.848 95.5249 67.256 95.6209 66.584C95.7169 65.88 95.7969 65.128 95.8609 64.328C95.9249 63.528 95.9889 62.712 96.0529 61.88C95.7009 61.784 95.2529 61.736 94.7089 61.736C94.1649 61.704 93.5889 61.704 92.9809 61.736C92.4049 61.768 91.8449 61.8 91.3009 61.832C90.7569 61.832 90.3249 61.816 90.0049 61.784C90.0689 63.096 89.8609 64.088 89.3809 64.76C88.9329 65.4 88.3729 65.784 87.7009 65.912C87.0289 66.04 86.3409 65.928 85.6369 65.576C84.9329 65.224 84.3889 64.68 84.0049 63.944C83.6529 63.368 83.4449 62.776 83.3809 62.168C83.3489 61.56 83.3169 60.776 83.2849 59.816V58.952ZM90.4369 52.808C90.1169 52.232 89.6689 51.8 89.0929 51.512C88.8369 51.352 88.5809 51.24 88.3249 51.176C88.0689 51.08 87.7649 51.032 87.4129 51.032C86.6449 51.032 86.0209 51.112 85.5409 51.272C85.0609 51.432 84.6769 51.656 84.3889 51.944C84.1009 52.232 83.8769 52.568 83.7169 52.952C83.5889 53.336 83.4929 53.736 83.4289 54.152C83.3649 54.504 83.3329 54.76 83.3329 54.92C83.3649 55.048 83.5249 55.144 83.8129 55.208C84.1009 55.24 84.5489 55.256 85.1569 55.256C85.7969 55.224 86.7249 55.208 87.9409 55.208C88.7729 55.208 89.3969 55.224 89.8129 55.256C90.2289 55.288 90.5169 55.304 90.6769 55.304C90.8689 55.272 90.9649 55.224 90.9649 55.16V54.632C90.9649 53.992 90.7889 53.384 90.4369 52.808Z" fill="#C5D64B"/>
<path fill-rule="evenodd" clip-rule="evenodd" d="M124.11 54.152C123.982 53.608 123.806 52.872 123.582 51.944C123.358 51.016 123.118 49.992 122.862 48.872C122.606 47.752 122.334 46.584 122.046 45.368C121.79 44.152 121.534 43.016 121.278 41.96C121.054 40.872 120.83 39.912 120.606 39.08C120.414 38.216 120.27 37.576 120.174 37.16C119.118 37.256 118.254 37.32 117.582 37.352H114.99C114.734 37.352 114.494 37.368 114.27 37.4C113.502 39.96 112.798 42.536 112.158 45.128C111.518 47.72 110.926 50.216 110.382 52.616C109.838 55.016 109.358 57.288 108.942 59.432C108.558 61.544 108.222 63.416 107.934 65.048C107.646 66.68 107.422 68.008 107.262 69.032C107.102 70.056 106.99 70.68 106.926 70.904C106.958 70.936 106.99 70.952 107.022 70.952C109.198 70.92 110.798 70.936 111.822 71C112.846 71.064 113.486 71.064 113.742 71H113.79C113.822 70.968 113.854 70.952 113.886 70.952C114.174 70.408 114.398 69.784 114.558 69.08C114.718 68.376 114.862 67.656 114.99 66.92C115.15 66.152 115.294 65.432 115.422 64.76C115.582 64.056 115.774 63.448 115.998 62.936H116.814C117.038 62.904 117.23 62.888 117.39 62.888H118.014C118.238 62.888 118.558 62.92 118.974 62.984C119.198 63.464 119.406 64.04 119.598 64.712C119.79 65.384 119.966 66.088 120.126 66.824C120.318 67.56 120.494 68.28 120.654 68.984C120.846 69.688 121.038 70.296 121.23 70.808H121.278C122.302 71.032 123.39 71.16 124.542 71.192C125.694 71.256 126.75 71.192 127.71 71V70.952L124.11 54.152ZM117.39 57.32C117.998 57.288 118.606 57.272 119.214 57.272C118.894 54.52 118.606 52.376 118.35 50.84C118.126 49.304 117.918 48.264 117.726 47.72C117.566 47.176 117.39 47.064 117.198 47.384C117.038 47.672 116.878 48.28 116.718 49.208C116.59 50.136 116.43 51.304 116.238 52.712C116.078 54.12 115.886 55.64 115.662 57.272C116.206 57.304 116.782 57.32 117.39 57.32Z" fill="#C5D64B"/>
<path d="M147.755 61.784C147.403 61.688 146.955 61.64 146.411 61.64C145.867 61.608 145.291 61.608 144.683 61.64C144.075 61.672 143.499 61.704 142.955 61.736C142.411 61.736 141.979 61.72 141.659 61.688C141.563 62.104 141.419 62.584 141.227 63.128C141.067 63.64 140.827 64.008 140.507 64.232C140.123 64.488 139.611 64.664 138.971 64.76C138.331 64.824 137.707 64.792 137.099 64.664C136.491 64.504 135.963 64.216 135.515 63.8C135.099 63.384 134.923 62.808 134.987 62.072C135.051 60.952 135.083 59.88 135.083 58.856C135.083 57.832 135.147 56.824 135.275 55.832C135.371 55.32 135.515 55 135.707 54.872C136.123 54.36 136.667 54.008 137.339 53.816C138.587 53.496 139.595 53.656 140.363 54.296C141.131 54.904 141.595 55.768 141.755 56.888C142.171 56.952 142.635 57.016 143.147 57.08C143.691 57.144 144.235 57.192 144.779 57.224C145.355 57.256 145.899 57.272 146.411 57.272C146.955 57.272 147.435 57.224 147.851 57.128C147.819 56.072 147.787 55.096 147.755 54.2C147.755 53.272 147.691 52.44 147.563 51.704C147.435 50.968 147.243 50.328 146.987 49.784C146.763 49.24 146.427 48.808 145.979 48.488C145.307 47.848 144.507 47.368 143.579 47.048C142.651 46.728 141.675 46.536 140.651 46.472C139.979 46.408 139.339 46.408 138.731 46.472C138.155 46.504 137.547 46.488 136.907 46.424C136.139 46.424 135.371 46.472 134.603 46.568C133.867 46.664 133.163 46.84 132.491 47.096C131.851 47.32 131.275 47.608 130.763 47.96C130.283 48.312 129.931 48.728 129.707 49.208C129.611 49.528 129.467 49.992 129.275 50.6C129.083 51.208 128.971 51.688 128.939 52.04C128.747 53.192 128.651 54.344 128.651 55.496C128.779 56.552 128.811 57.72 128.747 59C128.715 60.28 128.731 61.56 128.795 62.84C128.859 64.088 129.051 65.288 129.371 66.44C129.691 67.592 130.283 68.552 131.147 69.32C132.267 70.44 133.643 71.144 135.275 71.432C136.171 71.432 137.163 71.464 138.251 71.528C139.339 71.624 140.395 71.624 141.419 71.528C142.443 71.464 143.387 71.272 144.251 70.952C145.147 70.632 145.867 70.088 146.411 69.32C146.635 69.096 146.811 68.744 146.939 68.264C147.099 67.752 147.227 67.16 147.323 66.488C147.419 65.784 147.499 65.032 147.563 64.232C147.627 63.432 147.691 62.616 147.755 61.784Z" fill="#C5D64B"/>
<path d="M159.101 38.168C158.557 38.232 158.013 38.248 157.469 38.216L155.837 38.12C155.293 38.056 154.765 38.008 154.253 37.976C153.773 37.944 153.325 37.96 152.909 38.024C152.845 38.632 152.797 39.32 152.765 40.088V42.488C152.765 43.32 152.781 44.152 152.813 44.984C152.845 45.784 152.861 46.536 152.861 47.24H151.229C150.685 47.24 150.093 47.224 149.453 47.192L149.309 53.048H151.133C151.709 53.048 152.253 53.032 152.765 53C152.733 55.336 152.749 57.608 152.813 59.816C152.877 61.992 153.117 64.312 153.533 66.776C153.949 67.768 154.621 68.552 155.549 69.128C156.509 69.704 157.597 70.136 158.813 70.424C160.029 70.712 161.325 70.904 162.701 71C164.077 71.064 165.405 71.064 166.685 71C166.845 70.52 166.941 69.992 166.973 69.416C167.037 68.84 167.053 68.264 167.021 67.688C166.989 67.112 166.941 66.552 166.877 66.008C166.813 65.464 166.749 64.968 166.685 64.52C166.141 64.552 165.501 64.552 164.765 64.52C164.061 64.488 163.357 64.408 162.653 64.28C161.949 64.12 161.293 63.912 160.685 63.656C160.077 63.4 159.613 63.048 159.293 62.6C159.261 61.16 159.245 59.624 159.245 57.992V52.904H166.685C166.621 52.488 166.605 51.992 166.637 51.416C166.701 50.808 166.749 50.216 166.781 49.64C166.813 49.064 166.813 48.536 166.781 48.056C166.749 47.544 166.621 47.16 166.397 46.904C164.765 47 163.389 47.08 162.269 47.144C161.181 47.208 160.141 47.256 159.149 47.288C159.149 46.808 159.133 46.344 159.101 45.896V38.168Z" fill="#C5D64B"/>
<path d="M174.928 46.856C173.904 46.888 173.024 46.888 172.288 46.856C171.552 46.824 170.976 46.792 170.56 46.76C170.4 46.76 170.16 46.744 169.84 46.712C169.552 46.68 169.344 46.68 169.216 46.712V46.76C169.024 48.648 168.928 50.6 168.928 52.616C168.928 54.6 168.96 56.616 169.024 58.664C169.088 60.712 169.12 62.776 169.12 64.856C169.152 66.936 169.088 68.984 168.928 71C169.152 70.936 169.6 70.92 170.272 70.952C170.944 70.984 171.648 71 172.384 71C173.152 71.032 173.856 71.032 174.496 71C175.136 71 175.536 70.904 175.696 70.712C175.472 66.84 175.408 62.888 175.504 58.856C175.632 54.824 175.712 50.872 175.744 47V46.856H174.928Z" fill="#C5D64B"/>
<path d="M53.736 37.64C50.44 37.288 47.048 37.128 43.56 37.16C40.104 37.16 36.744 37.176 33.48 37.208V37.256C33.512 37.256 33.528 37.272 33.528 37.304C33.464 38.072 33.432 38.872 33.432 39.704V42.056C33.464 42.76 33.496 43.368 33.528 43.88C33.592 44.392 33.656 44.712 33.72 44.84C33.912 44.904 34.248 44.936 34.728 44.936C35.208 44.936 35.736 44.952 36.312 44.984C36.888 44.984 37.464 45.016 38.04 45.08C38.616 45.112 39.096 45.224 39.48 45.416L39.528 45.464L47.496 45.176C47.528 45.144 47.544 45.112 47.544 45.08H47.688C49.192 45.016 50.392 44.968 51.288 44.936C52.184 44.904 52.936 44.952 53.544 45.08C53.704 43.928 53.784 42.664 53.784 41.288C53.816 39.912 53.8 38.696 53.736 37.64Z" fill="#F9D26E"/>
<path d="M83.2849 58.952C83.6049 59.016 84.1169 59.064 84.8209 59.096C85.5249 59.128 86.3089 59.144 87.1729 59.144C88.0689 59.144 88.9969 59.128 89.9569 59.096C90.9169 59.064 91.8129 59.016 92.6449 58.952C93.5089 58.888 94.2449 58.824 94.8529 58.76C95.4929 58.696 95.9249 58.632 96.1489 58.568C96.2449 57.224 96.2449 55.896 96.1489 54.584L90.9649 55.16C90.9649 55.224 90.8689 55.272 90.6769 55.304C90.5169 55.304 90.2289 55.288 89.8129 55.256C89.3969 55.224 88.7729 55.208 87.9409 55.208C86.7249 55.208 85.7969 55.224 85.1569 55.256C84.5489 55.256 84.1009 55.24 83.8129 55.208C83.5249 55.144 83.3649 55.048 83.3329 54.92L83.2849 58.952Z" fill="#F9D26E"/>
<path fill-rule="evenodd" clip-rule="evenodd" d="M62.2973 49.592L62.0093 57.8C61.9453 58.92 61.9293 60.024 61.9613 61.112C61.9933 62.168 62.0253 63.24 62.0573 64.328C62.1213 65.384 62.1533 66.44 62.1533 67.496C62.1533 68.552 62.0893 69.608 61.9613 70.664V70.856C61.4173 71.016 60.9373 71.112 60.5213 71.144C60.1373 71.176 59.7373 71.176 59.3213 71.144C58.9053 71.144 58.4413 71.128 57.9293 71.096C57.4173 71.064 56.7773 71.08 56.0093 71.144C56.0093 69.832 55.9933 68.264 55.9613 66.44C55.9613 64.584 55.9453 62.6 55.9133 60.488V41.288C55.9453 39.368 55.9773 37.704 56.0093 36.296C56.3933 36.328 56.7133 36.36 56.9693 36.392H58.4093C58.6653 36.36 58.9853 36.328 59.3693 36.296C59.4973 36.296 59.7213 36.28 60.0413 36.248C60.3613 36.184 60.6813 36.136 61.0013 36.104C61.3213 36.072 61.6093 36.072 61.8653 36.104C62.1213 36.104 62.2493 36.152 62.2493 36.248C62.2813 36.408 62.2973 36.84 62.2973 37.544V49.592Z" fill="#C5D64B"/>
<path d="M62.0093 57.8C62.0733 56.936 62.2973 56.296 62.6813 55.88C63.0653 55.432 63.4973 55.144 63.9773 55.016C64.4573 54.856 64.9373 54.824 65.4173 54.92C65.9293 54.984 66.3133 55.08 66.5693 55.208C66.6013 55.24 66.6333 55.256 66.6653 55.256C66.6973 55.256 66.7293 55.272 66.7613 55.304C67.0173 55.496 67.2093 55.768 67.3373 56.12C67.4973 56.472 67.6093 56.872 67.6733 57.32C67.7693 57.768 67.8333 58.232 67.8653 58.712C67.8973 59.16 67.9293 59.576 67.9613 59.96C68.0253 60.824 68.0573 61.752 68.0573 62.744C68.0893 63.736 68.0893 64.728 68.0573 65.72V68.6C68.0573 69.528 68.0893 70.36 68.1533 71.096H71.1293C72.0253 71.128 73.0333 71.064 74.1533 70.904C74.0893 69.816 74.0733 68.552 74.1053 67.112C74.1373 65.672 74.1693 64.184 74.2013 62.648C74.2333 61.08 74.2493 59.544 74.2493 58.04C74.2813 56.504 74.2653 55.096 74.2013 53.816C74.1693 52.536 74.0573 51.448 73.8653 50.552C73.7053 49.624 73.4653 49.016 73.1453 48.728C72.4733 48.152 71.7213 47.752 70.8893 47.528C70.0573 47.304 69.1933 47.208 68.2973 47.24C67.4333 47.272 66.5853 47.432 65.7533 47.72C64.9213 48.008 64.1693 48.392 63.4973 48.872C63.3373 49 63.1293 49.128 62.8733 49.256C62.6493 49.384 62.4573 49.496 62.2973 49.592L62.0093 57.8Z" fill="#F9D26E"/>
<path fill-rule="evenodd" clip-rule="evenodd" d="M118.974 62.984L119.214 57.272C118.606 57.272 117.998 57.288 117.39 57.32C116.782 57.32 116.206 57.304 115.662 57.272C115.886 55.64 116.078 54.12 116.238 52.712C116.43 51.304 116.59 50.136 116.718 49.208C116.878 48.28 117.038 47.672 117.198 47.384C117.364 47.1082 117.518 47.1534 117.659 47.5195L114.27 37.4C113.502 39.96 112.798 42.536 112.158 45.128C111.518 47.72 110.926 50.216 110.382 52.616C109.838 55.016 109.358 57.288 108.942 59.432C108.558 61.544 108.222 63.416 107.934 65.048C107.646 66.68 107.422 68.008 107.262 69.032C107.102 70.056 106.99 70.68 106.926 70.904C106.958 70.936 106.99 70.952 107.022 70.952C109.198 70.92 110.798 70.936 111.822 71C112.846 71.064 113.486 71.064 113.742 71H113.79C113.822 70.968 113.854 70.952 113.886 70.952C114.174 70.408 114.398 69.784 114.558 69.08C114.718 68.376 114.862 67.656 114.99 66.92C115.15 66.152 115.294 65.432 115.422 64.76C115.582 64.056 115.774 63.448 115.998 62.936H116.814C117.038 62.904 117.23 62.888 117.39 62.888H118.014C118.238 62.888 118.558 62.92 118.974 62.984Z" fill="#F9D26E"/>
<path d="M140.507 64.232C140.123 64.488 139.611 64.664 138.971 64.76C138.331 64.824 137.707 64.792 137.099 64.664C136.491 64.504 135.963 64.216 135.515 63.8C135.099 63.384 134.923 62.808 134.987 62.072C135.051 60.952 135.083 59.88 135.083 58.856C135.083 57.832 135.147 56.824 135.275 55.832C135.371 55.32 135.515 55 135.707 54.872C136.123 54.36 136.667 54.008 137.339 53.816C138.587 53.496 139.595 53.656 140.363 54.296C141.131 54.904 141.595 55.768 141.755 56.888C142.171 56.952 142.635 57.016 143.147 57.08C143.691 57.144 144.235 57.192 144.779 57.224C145.355 57.256 145.899 57.272 146.411 57.272C146.955 57.272 147.435 57.224 147.851 57.128C147.819 56.072 147.787 55.096 147.755 54.2C147.755 53.272 147.691 52.44 147.563 51.704C147.435 50.968 147.243 50.328 146.987 49.784C146.763 49.24 146.427 48.808 145.979 48.488C145.307 47.848 144.507 47.368 143.579 47.048C142.651 46.728 141.675 46.536 140.651 46.472C139.979 46.408 139.339 46.408 138.731 46.472C138.155 46.504 137.547 46.488 136.907 46.424C136.139 46.424 135.371 46.472 134.603 46.568C133.867 46.664 133.163 46.84 132.491 47.096C131.851 47.32 131.275 47.608 130.763 47.96C130.283 48.312 129.931 48.728 129.707 49.208C129.611 49.528 129.467 49.992 129.275 50.6C129.083 51.208 128.971 51.688 128.939 52.04C128.747 53.192 128.651 54.344 128.651 55.496C128.779 56.552 128.811 57.72 128.747 59C128.715 60.28 128.731 61.56 128.795 62.84C128.859 64.088 129.051 65.288 129.371 66.44C129.691 67.592 130.283 68.552 131.147 69.32C132.267 70.44 133.643 71.144 135.275 71.432L140.507 64.232Z" fill="#F9D26E"/>
<path d="M159.101 38.168C158.557 38.232 158.013 38.248 157.469 38.216L155.837 38.12C155.293 38.056 154.765 38.008 154.253 37.976C153.773 37.944 153.325 37.96 152.909 38.024C152.845 38.632 152.797 39.32 152.765 40.088V42.488C152.765 43.32 152.781 44.152 152.813 44.984C152.845 45.784 152.861 46.536 152.861 47.24L159.149 47.288C159.149 46.808 159.133 46.344 159.101 45.896V38.168Z" fill="#F9D26E"/>
<path d="M152.765 53C152.733 55.336 152.749 57.608 152.813 59.816C152.877 61.992 153.117 64.312 153.533 66.776C153.949 67.768 154.621 68.552 155.549 69.128C156.509 69.704 157.597 70.136 158.813 70.424C160.029 70.712 161.325 70.904 162.701 71C164.077 71.064 165.405 71.064 166.685 71C166.845 70.52 166.941 69.992 166.973 69.416C167.037 68.84 167.053 68.264 167.021 67.688C166.989 67.112 166.941 66.552 166.877 66.008C166.813 65.464 166.749 64.968 166.685 64.52C166.141 64.552 165.501 64.552 164.765 64.52C164.061 64.488 163.357 64.408 162.653 64.28C161.949 64.12 161.293 63.912 160.685 63.656C160.077 63.4 159.613 63.048 159.293 62.6C159.261 61.16 159.245 59.624 159.245 57.992V52.904L152.765 53Z" fill="#F9D26E"/>
<path d="M169.024 36.392C168.992 37.864 169.008 39.112 169.072 40.136C169.168 41.128 169.216 42.088 169.216 43.016C169.824 42.984 170.48 43 171.184 43.064C171.888 43.096 172.544 43.128 173.152 43.16C173.792 43.16 174.336 43.128 174.784 43.064C175.264 43 175.568 42.872 175.696 42.68C175.696 42.2 175.68 41.656 175.648 41.048C175.648 40.408 175.632 39.8 175.6 39.224C175.6 38.616 175.584 38.072 175.552 37.592V36.536L169.024 36.392Z" fill="#F9D26E"/>
<path d="M187.265 71.192C188.097 71.224 188.897 71.224 189.665 71.192C190.465 71.192 191.185 71.144 191.825 71.048C192.369 69.032 192.865 67 193.313 64.952C193.761 62.872 194.209 60.808 194.657 58.76C195.105 56.712 195.569 54.712 196.049 52.76C196.561 50.776 197.153 48.872 197.825 47.048C197.153 47.016 196.545 47 196.001 47C195.457 47 194.929 47.016 194.417 47.048C193.905 47.08 193.409 47.112 192.929 47.144C192.449 47.176 191.937 47.192 191.393 47.192C191.009 48.152 190.657 49.368 190.337 50.84C190.017 52.312 189.713 53.832 189.425 55.4C189.169 56.968 188.897 58.488 188.609 59.96C188.321 61.4 188.001 62.6 187.649 63.56L187.265 71.192Z" fill="#F9D26E"/>
<path d="M208.626 59.144C209.522 59.144 210.45 59.128 211.41 59.096C212.37 59.064 213.266 59.016 214.098 58.952C214.962 58.888 215.698 58.824 216.306 58.76C216.946 58.696 217.378 58.632 217.602 58.568C217.698 57.224 217.698 55.896 217.602 54.584C217.506 53.272 217.218 52.072 216.738 50.984C216.29 49.896 215.618 48.968 214.722 48.2C213.826 47.432 212.642 46.92 211.17 46.664C210.018 46.376 208.834 46.248 207.618 46.28V51.1219C207.98 51.062 208.396 51.032 208.866 51.032C209.218 51.032 209.522 51.08 209.778 51.176C210.034 51.24 210.29 51.352 210.546 51.512C211.122 51.8 211.57 52.232 211.89 52.808C212.242 53.384 212.418 53.992 212.418 54.632V55.16C212.418 55.224 212.322 55.272 212.13 55.304C211.97 55.304 211.682 55.288 211.266 55.256C210.85 55.224 210.226 55.208 209.394 55.208C208.711 55.208 208.119 55.213 207.618 55.2231V59.1362C207.941 59.1414 208.277 59.144 208.626 59.144Z" fill="#F9D26E"/>
<path d="M236.876 49.064C236.812 47.24 236.796 45.32 236.827 43.304C236.859 41.288 236.843 39.368 236.779 37.544C235.755 37.544 234.684 37.528 233.564 37.496C232.476 37.432 231.404 37.416 230.348 37.448C230.38 43.048 230.299 48.632 230.107 54.2C229.947 59.736 229.995 65.256 230.251 70.76C230.667 70.856 231.18 70.936 231.788 71C232.428 71.064 233.083 71.096 233.755 71.096C234.427 71.096 235.068 71.064 235.676 71C236.284 70.968 236.812 70.888 237.26 70.76C237.26 69.864 237.243 68.888 237.212 67.832C237.212 66.776 237.195 65.704 237.163 64.616C237.132 63.528 237.1 62.456 237.068 61.4C237.068 60.312 237.083 59.304 237.115 58.376L236.876 49.0738C236.876 49.0738 236.876 49.0704 236.876 49.0683L236.876 49.064Z" fill="#F9D26E"/>
<path d="M257.803 46.856C256.779 46.888 255.899 46.888 255.163 46.856C254.427 46.824 253.851 46.792 253.435 46.76C253.275 46.76 253.035 46.744 252.715 46.712C252.427 46.68 252.219 46.68 252.091 46.712V46.76C251.899 48.648 251.803 50.6 251.803 52.616C251.803 54.6 251.835 56.616 251.899 58.664C251.963 60.712 251.995 62.776 251.995 64.856C252.027 66.936 251.963 68.984 251.803 71C252.027 70.936 252.475 70.92 253.147 70.952C253.819 70.984 254.523 71 255.259 71C256.027 71.032 256.731 71.032 257.371 71C258.011 71 258.411 70.904 258.571 70.712C258.347 66.84 258.283 62.888 258.379 58.856C258.507 54.824 258.587 50.872 258.619 47V46.856H257.803Z" fill="#F9D26E"/>
<path d="M270.62 52.904H278.06C277.996 52.488 277.98 51.992 278.012 51.416C278.076 50.808 278.124 50.216 278.156 49.64C278.188 49.064 278.188 48.536 278.156 48.056C278.124 47.544 277.996 47.16 277.772 46.904C276.14 47 274.764 47.08 273.644 47.144C272.556 47.208 271.516 47.256 270.524 47.288L270.62 52.904Z" fill="#F9D26E"/>
<path d="M264.236 47.24H262.604C262.06 47.24 261.468 47.224 260.828 47.192L260.684 53.048H262.508C263.084 53.048 263.628 53.032 264.14 53L264.236 47.24Z" fill="#F9D26E"/>
<path d="M291.535 54.296C292.303 54.904 292.767 55.768 292.927 56.888C293.343 56.952 293.807 57.016 294.319 57.08C294.863 57.144 295.407 57.192 295.951 57.224C296.527 57.256 297.071 57.272 297.583 57.272C298.127 57.272 298.607 57.224 299.023 57.128C298.991 56.072 298.959 55.096 298.927 54.2C298.927 53.272 298.863 52.44 298.735 51.704C298.607 50.968 298.415 50.328 298.159 49.784C297.935 49.24 297.599 48.808 297.151 48.488C296.479 47.848 295.679 47.368 294.751 47.048C293.823 46.728 292.847 46.536 291.823 46.472C291.151 46.408 290.511 46.408 289.903 46.472C289.327 46.504 288.719 46.488 288.079 46.424L291.535 54.296Z" fill="#F9D26E"/>
<path d="M307.969 49.592V48.392V45.992V43.016V39.992V37.544C307.969 36.84 307.953 36.408 307.921 36.248C307.921 36.152 307.793 36.104 307.537 36.104C307.281 36.072 306.993 36.072 306.673 36.104C306.353 36.136 306.033 36.184 305.713 36.248C305.393 36.28 305.169 36.296 305.041 36.296C304.657 36.328 304.337 36.36 304.081 36.392H303.361H302.641C302.385 36.36 302.065 36.328 301.681 36.296C301.649 37.704 301.617 39.368 301.585 41.288V47.336V53.96V60.488C301.617 62.6 301.633 64.584 301.633 66.44C301.665 68.264 301.681 69.832 301.681 71.144C302.449 71.08 303.089 71.064 303.601 71.096C304.113 71.128 304.577 71.144 304.993 71.144C305.409 71.176 305.809 71.176 306.193 71.144C306.609 71.112 307.089 71.016 307.633 70.856V70.664C307.761 69.608 307.825 68.552 307.825 67.496C307.825 66.44 307.793 65.384 307.729 64.328C307.697 63.24 307.665 62.168 307.633 61.112C307.601 60.024 307.617 58.92 307.681 57.8L307.969 49.592Z" fill="#F9D26E"/>
<path d="M328.957 58.952C329.277 59.016 329.789 59.064 330.493 59.096C331.197 59.128 331.981 59.144 332.845 59.144C333.741 59.144 334.669 59.128 335.629 59.096C336.589 59.064 337.485 59.016 338.317 58.952C339.181 58.888 339.917 58.824 340.525 58.76C341.165 58.696 341.597 58.632 341.821 58.568C341.917 57.224 341.917 55.896 341.821 54.584L336.637 55.16C336.637 55.224 336.541 55.272 336.349 55.304C336.189 55.304 335.901 55.288 335.485 55.256C335.069 55.224 334.445 55.208 333.613 55.208C332.397 55.208 331.469 55.224 330.829 55.256C330.221 55.256 329.773 55.24 329.485 55.208C329.197 55.144 329.037 55.048 329.005 54.92L322.765 53.96C322.669 55.048 322.573 56.184 322.477 57.368C322.413 58.68 322.445 59.992 322.573 61.304C322.701 62.616 322.941 63.864 323.293 65.048C323.645 66.2 324.109 67.272 324.685 68.264C325.261 69.224 325.981 70.008 326.845 70.616C327.613 71.064 328.445 71.352 329.341 71.48C330.237 71.48 331.213 71.512 332.269 71.576C333.357 71.64 334.413 71.64 335.437 71.576C336.461 71.512 337.405 71.32 338.269 71C339.133 70.68 339.837 70.136 340.381 69.368C340.605 69.176 340.781 68.84 340.909 68.36C341.069 67.848 341.197 67.256 341.293 66.584C341.389 65.88 341.469 65.128 341.533 64.328C341.597 63.528 341.661 62.712 341.725 61.88C341.373 61.784 340.925 61.736 340.381 61.736C339.837 61.704 339.261 61.704 338.653 61.736C338.077 61.768 337.517 61.8 336.973 61.832C336.429 61.832 335.997 61.816 335.677 61.784C335.741 63.096 335.533 64.088 335.053 64.76C334.605 65.4 334.045 65.784 333.373 65.912C332.701 66.04 332.013 65.928 331.309 65.576C330.605 65.224 330.061 64.68 329.677 63.944C329.325 63.368 329.117 62.776 329.053 62.168C329.021 61.56 328.989 60.776 328.957 59.816V58.952Z" fill="#F9D26E"/>
<path d="M351.112 49.592C351.08 49.144 351.064 48.744 351.064 48.392C351.096 48.04 351.08 47.592 351.016 47.048C351.016 46.952 350.888 46.904 350.632 46.904C350.376 46.872 350.088 46.872 349.768 46.904C349.448 46.936 349.128 46.984 348.808 47.048C348.488 47.08 348.264 47.096 348.136 47.096C347.752 47.128 347.432 47.16 347.176 47.192H345.736C345.48 47.16 345.16 47.128 344.776 47.096C344.648 51.32 344.616 55.4 344.68 59.336C344.776 63.272 344.824 67.208 344.824 71.144C345.592 71.08 346.232 71.064 346.744 71.096C347.256 71.128 347.72 71.144 348.136 71.144C348.552 71.176 348.952 71.176 349.336 71.144C349.752 71.112 350.232 71.016 350.776 70.856V70.664C350.904 69.608 350.968 68.552 350.968 67.496C350.968 66.44 350.936 65.384 350.872 64.328C350.84 63.24 350.808 62.168 350.776 61.112C350.744 60.024 350.76 58.92 350.824 57.8L351.112 49.592Z" fill="#C5D64B"/>
<path d="M350.824 57.8C350.888 56.936 351.112 56.296 351.496 55.88C351.88 55.432 352.312 55.144 352.792 55.016C353.272 54.856 353.752 54.824 354.232 54.92C354.744 54.984 355.128 55.08 355.384 55.208C355.416 55.24 355.448 55.256 355.48 55.256C355.512 55.256 355.544 55.272 355.576 55.304C355.832 55.496 356.024 55.768 356.152 56.12C356.312 56.472 356.424 56.872 356.488 57.32C356.584 57.768 356.648 58.232 356.68 58.712C356.712 59.16 356.744 59.576 356.776 59.96C356.84 60.824 356.872 61.752 356.872 62.744C356.904 63.736 356.904 64.728 356.872 65.72V68.6C356.872 69.528 356.904 70.36 356.968 71.096H359.944C360.84 71.128 361.848 71.064 362.968 70.904C362.904 69.816 362.888 68.552 362.92 67.112C362.952 65.672 362.984 64.184 363.016 62.648C363.048 61.08 363.064 59.544 363.064 58.04C363.096 56.504 363.08 55.096 363.016 53.816C362.984 52.536 362.872 51.448 362.68 50.552C362.52 49.624 362.28 49.016 361.96 48.728C361.288 48.152 360.536 47.752 359.704 47.528C358.872 47.304 358.008 47.208 357.112 47.24C356.248 47.272 355.4 47.432 354.568 47.72C353.736 48.008 352.984 48.392 352.312 48.872C352.152 49 351.944 49.128 351.688 49.256C351.464 49.384 351.272 49.496 351.112 49.592L350.824 57.8Z" fill="#F9D26E"/>
<path fill-rule="evenodd" clip-rule="evenodd" d="M43.56 37.16C47.048 37.128 50.44 37.288 53.736 37.64C53.8 38.696 53.816 39.912 53.784 41.288C53.784 42.664 53.704 43.928 53.544 45.08C52.936 44.952 52.184 44.904 51.288 44.936C50.392 44.968 49.192 45.016 47.688 45.08H47.544C47.544 45.112 47.528 45.144 47.496 45.176L39.528 45.464L39.48 45.416C39.096 45.224 38.616 45.112 38.04 45.08C37.464 45.016 36.888 44.984 36.312 44.984C35.736 44.952 35.208 44.936 34.728 44.936C34.248 44.936 33.912 44.904 33.72 44.84C33.656 44.712 33.592 44.392 33.528 43.88C33.496 43.368 33.464 42.76 33.432 42.056V39.704C33.432 38.872 33.464 38.072 33.528 37.304C33.528 37.272 33.512 37.256 33.48 37.256V37.208C36.744 37.176 40.104 37.16 43.56 37.16Z" fill="#C5D64B"/>
<path d="M39.528 45.464C39.72 49.944 39.832 53.768 39.864 56.936C39.928 60.104 39.944 62.712 39.912 64.76C39.912 66.776 39.896 68.296 39.864 69.32C39.832 70.344 39.832 70.92 39.864 71.048C40.44 70.952 41.064 70.904 41.736 70.904H43.752H45.816C46.52 70.872 47.16 70.808 47.736 70.712V70.616C47.672 67.128 47.624 64.104 47.592 61.544C47.56 58.952 47.528 56.744 47.496 54.92C47.464 53.064 47.432 51.56 47.4 50.408V47.576V45.992C47.432 45.64 47.464 45.384 47.496 45.224V45.176L39.528 45.464Z" fill="#F9D26E"/>
<path d="M54.3746 12.4476C53.3757 11.4494 51.9115 11.5688 50.9343 12.5443L41.2478 22.2327C40.2899 23.1905 39.3388 23.1561 38.5837 22.4009C37.8932 21.7105 38.0555 20.735 38.7325 20.0581L48.7084 10.0081C49.8125 8.90316 49.5553 7.23219 48.6613 6.33915C47.7674 5.44435 46.0982 5.18867 44.9932 6.29122L34.9803 16.3068C34.3033 16.9812 33.2892 17.1074 32.5996 16.4169C31.8454 15.6626 31.8109 14.7115 32.7687 13.7536L42.4553 4.06603C43.4325 3.08966 43.5519 1.6249 42.5528 0.626687C41.5529 -0.373284 40.1595 -0.0444114 39.2076 0.692317C38.2556 1.42729 30.4065 8.16819 26.4893 11.9608C22.574 15.7551 22.6353 19.8539 23.5529 22.3632C24.181 24.0787 23.8598 26.0945 22.4521 27.5021L2.62988 46.6198C2.23217 47.0024 2.00506 47.5322 2.00009 48.0838C1.99502 48.6372 2.21282 49.1687 2.6038 49.5606L5.44116 52.3961C5.83131 52.788 6.36276 53.005 6.91616 52.9999C7.46862 52.9948 7.99748 52.7678 8.38018 52.3708L27.4986 32.5484C28.9055 31.1424 30.9229 30.8195 32.6375 31.4476C35.1468 32.3642 39.2455 32.4256 43.039 28.5103C46.8324 24.594 53.5733 16.7456 54.3091 15.792C55.044 14.8399 55.3728 13.4474 54.3746 12.4476Z" fill="#C5D64B"/>
<path d="M2.61975 63.4998C-1.29264 68.3464 -0.274023 77.659 7.84891 84.2154C12.5021 87.9709 18.1966 87.9483 21.0847 87.4602C23.9097 86.9831 25.9095 86.3743 27.2854 87.485L49.2159 106.823C49.8802 107.379 50.7412 107.645 51.6026 107.561C52.4643 107.477 53.257 107.05 53.8011 106.376L55.3262 104.486C55.8695 103.812 56.1205 102.948 56.021 102.086C55.9209 101.228 55.4805 100.443 54.7967 99.9108L31.267 82.5508C29.8919 81.4408 30.0644 79.3579 29.935 76.4965C29.8046 73.5694 28.6246 67.9983 23.9731 64.2427C15.8502 57.6854 6.53206 58.6533 2.61975 63.4998Z" fill="#F9D26E"/>
<path d="M335.86 10.4062C338.226 14.5693 343.207 24.9768 350.095 31.2788C360.784 41.057 364.967 32.8955 372.27 38.9538L386.663 51.3132L391.596 45.5691L391.694 45.6024L391.621 45.5398L367.523 24.8471L342.16 3.06884C337.988 -0.513335 332.174 3.927 335.86 10.4062Z" fill="#F9D26E"/>
<path d="M375.693 66.1656L383.856 61.4041L397.46 84.7263L389.298 89.4878L375.693 66.1656Z" fill="#C5D64B"/>
<path d="M388.812 63.2019L394.643 59.8008L404.166 76.1264L398.335 79.5274L388.812 63.2019Z" fill="#C5D64B"/>
<path d="M345.375 83.8512L353.537 79.0897L367.142 102.412L358.979 107.173L345.375 83.8512Z" fill="#C5D64B"/>
<path d="M338.669 92.4511L344.5 89.0501L354.023 105.376L348.192 108.777L338.669 92.4511Z" fill="#C5D64B"/>
</svg>
