<svg width="394" height="111" viewBox="0 0 394 111" fill="none" xmlns="http://www.w3.org/2000/svg">
<g clip-path="url(#clip0_304_5)">
<rect width="394" height="111" fill="white"/>
<path d="M328.257 94.4511L334.088 91.0501L343.611 107.376L337.78 110.777L328.257 94.4511Z" fill="#F9D26E"/>
<path d="M378.4 65.2019L384.23 61.8008L393.753 78.1264L387.923 81.5274L378.4 65.2019Z" fill="#F9D26E"/>
<path d="M334.962 85.8512L343.125 81.0897L356.729 104.412L348.567 109.173L334.962 85.8512Z" fill="#F9D26E"/>
<path d="M365.281 68.1656L373.444 63.4041L387.048 86.7263L378.886 91.4878L365.281 68.1656Z" fill="#F9D26E"/>
<path d="M336.718 10.4062C339.084 14.5693 344.065 24.9768 350.953 31.2788C361.641 41.057 365.825 32.8955 373.128 38.9538L387.521 51.3132L392.454 45.5691L392.552 45.6024L343.018 3.06884C338.846 -0.513335 333.032 3.927 336.718 10.4062Z" fill="#F9D26E"/>
<path d="M2.20766 65.4998C-1.70474 70.3464 -0.686116 79.659 7.43682 86.2154C12.09 89.9709 17.7845 89.9483 20.6726 89.4602C23.4976 88.9831 25.4974 88.3743 26.8733 89.485L48.8038 108.823C49.4682 109.379 50.3291 109.645 51.1905 109.561C52.0522 109.477 52.8449 109.05 53.389 108.376L54.9141 106.486C55.4574 105.812 55.7084 104.948 55.6089 104.086C55.5088 103.228 55.0684 102.443 54.3846 101.911L30.8549 84.5508C29.4798 83.4408 29.6523 81.3579 29.5229 78.4965C29.3925 75.5694 28.2125 69.9983 23.561 66.2427C15.4381 59.6854 6.11996 60.6533 2.20766 65.4998Z" fill="#F9D26E"/>
<path d="M367.468 78.612L370.869 84.4425L354.543 93.9655L351.142 88.135L367.468 78.612Z" fill="#F9D26E"/>
<path d="M328.257 94.4511L334.088 91.0501L343.611 107.376L337.78 110.777L328.257 94.4511Z" fill="#C5D64B"/>
<path d="M378.4 65.2019L384.23 61.8008L393.753 78.1264L387.923 81.5274L378.4 65.2019Z" fill="#C5D64B"/>
<path d="M334.962 85.8512L343.125 81.0897L356.729 104.412L348.567 109.173L334.962 85.8512Z" fill="#C5D64B"/>
<path d="M365.281 68.1656L373.444 63.4041L387.048 86.7263L378.886 91.4878L365.281 68.1656Z" fill="#C5D64B"/>
<path d="M367.468 78.612L370.869 84.4425L354.543 93.9655L351.142 88.135L367.468 78.612Z" fill="#C5D64B"/>
<path d="M53.9625 12.4476C52.9636 11.4494 51.4994 11.5688 50.5223 12.5443L40.8357 22.2327C39.8778 23.1905 38.9267 23.1561 38.1716 22.4009C37.4811 21.7105 37.6434 20.735 38.3204 20.0581L48.2964 10.0081C49.4005 8.90316 49.1432 7.23219 48.2493 6.33915C47.3553 5.44435 45.6861 5.18867 44.5811 6.29122L34.5682 16.3068C33.8912 16.9812 32.8771 17.1074 32.1875 16.4169C31.4333 15.6626 31.3988 14.7115 32.3566 13.7536L42.0432 4.06603C43.0204 3.08966 43.1398 1.6249 42.1407 0.626687C41.1408 -0.373284 39.7474 -0.0444114 38.7955 0.692317C37.8435 1.42729 29.9944 8.16819 26.0772 11.9608C22.1619 15.7551 22.2232 19.8539 23.1408 22.3632C23.7689 24.0787 23.4477 26.0945 22.04 27.5021L2.21779 46.6198C1.82008 47.0024 1.59297 47.5322 1.588 48.0838C1.58292 48.6372 1.80072 49.1687 2.1917 49.5606L5.02907 52.3961C5.41922 52.788 5.95067 53.005 6.50406 52.9999C7.05653 52.9948 7.58539 52.7678 7.96808 52.3708L27.0865 32.5484C28.4934 31.1424 30.5108 30.8195 32.2254 31.4476C34.7347 32.3642 38.8334 32.4256 42.6269 28.5103C46.4203 24.594 53.1612 16.7456 53.897 15.792C54.6319 14.8399 54.9607 13.4474 53.9625 12.4476Z" fill="#FDA6A6"/>
<path d="M53.3239 37.64C50.0279 37.288 46.6359 37.128 43.1479 37.16C39.6919 37.16 36.3319 37.176 33.0679 37.208C33.0679 37.24 33.0679 37.256 33.0679 37.256C33.0999 37.256 33.1159 37.272 33.1159 37.304C33.0519 38.072 33.0199 38.872 33.0199 39.704C33.0199 40.536 33.0199 41.32 33.0199 42.056C33.0519 42.76 33.0839 43.368 33.1159 43.88C33.1799 44.392 33.2439 44.712 33.3079 44.84C33.4999 44.904 33.8359 44.936 34.3159 44.936C34.7959 44.936 35.3239 44.952 35.8999 44.984C36.4759 44.984 37.0519 45.016 37.6279 45.08C38.2039 45.112 38.6839 45.224 39.0679 45.416L39.1159 45.464C39.3079 49.944 39.4199 53.768 39.4519 56.936C39.5159 60.104 39.5319 62.712 39.4999 64.76C39.4999 66.776 39.4839 68.296 39.4519 69.32C39.4199 70.344 39.4199 70.92 39.4519 71.048C40.0279 70.952 40.6519 70.904 41.3239 70.904C41.9959 70.904 42.6679 70.904 43.3399 70.904C44.0439 70.904 44.7319 70.904 45.4039 70.904C46.1079 70.872 46.7479 70.808 47.3239 70.712V70.616C47.2599 67.128 47.2119 64.104 47.1799 61.544C47.1479 58.952 47.1159 56.744 47.0839 54.92C47.0519 53.064 47.0199 51.56 46.9879 50.408C46.9879 49.224 46.9879 48.28 46.9879 47.576C46.9879 46.84 46.9879 46.312 46.9879 45.992C47.0199 45.64 47.0519 45.384 47.0839 45.224C47.0839 45.192 47.0839 45.176 47.0839 45.176C47.1159 45.144 47.1319 45.112 47.1319 45.08H47.2759C48.7799 45.016 49.9799 44.968 50.8759 44.936C51.7719 44.904 52.5239 44.952 53.1319 45.08C53.2919 43.928 53.3719 42.664 53.3719 41.288C53.4039 39.912 53.3879 38.696 53.3239 37.64Z" fill="#C5D64B"/>
<path d="M257.391 46.856C256.367 46.888 255.487 46.888 254.751 46.856C254.015 46.824 253.439 46.792 253.023 46.76C252.863 46.76 252.623 46.744 252.303 46.712C252.015 46.68 251.807 46.68 251.679 46.712V46.76C251.487 48.648 251.391 50.6 251.391 52.616C251.391 54.6 251.423 56.616 251.487 58.664C251.551 60.712 251.583 62.776 251.583 64.856C251.615 66.936 251.551 68.984 251.391 71C251.615 70.936 252.063 70.92 252.735 70.952C253.407 70.984 254.111 71 254.847 71C255.615 71.032 256.319 71.032 256.959 71C257.599 71 257.999 70.904 258.159 70.712C257.935 66.84 257.871 62.888 257.967 58.856C258.095 54.824 258.175 50.872 258.207 47V46.856H257.391ZM251.487 36.392C251.455 37.864 251.471 39.112 251.535 40.136C251.631 41.128 251.679 42.088 251.679 43.016C252.287 42.984 252.943 43 253.647 43.064C254.351 43.096 255.007 43.128 255.615 43.16C256.255 43.16 256.799 43.128 257.247 43.064C257.727 43 258.031 42.872 258.159 42.68C258.159 42.2 258.143 41.656 258.111 41.048C258.111 40.408 258.095 39.8 258.063 39.224C258.063 38.616 258.047 38.072 258.015 37.592C258.015 37.08 258.015 36.728 258.015 36.536L251.487 36.392Z" fill="#C5D64B"/>
<path d="M270.064 38.168C269.52 38.232 268.976 38.248 268.432 38.216C267.888 38.184 267.344 38.152 266.8 38.12C266.256 38.056 265.728 38.008 265.216 37.976C264.736 37.944 264.288 37.96 263.872 38.024C263.808 38.632 263.76 39.32 263.728 40.088C263.728 40.856 263.728 41.656 263.728 42.488C263.728 43.32 263.744 44.152 263.776 44.984C263.808 45.784 263.824 46.536 263.824 47.24C263.312 47.24 262.768 47.24 262.192 47.24C261.648 47.24 261.056 47.224 260.416 47.192L260.272 53.048C260.944 53.048 261.552 53.048 262.096 53.048C262.672 53.048 263.216 53.032 263.728 53C263.696 55.336 263.712 57.608 263.776 59.816C263.84 61.992 264.08 64.312 264.496 66.776C264.912 67.768 265.584 68.552 266.512 69.128C267.472 69.704 268.56 70.136 269.776 70.424C270.992 70.712 272.288 70.904 273.664 71C275.04 71.064 276.368 71.064 277.648 71C277.808 70.52 277.904 69.992 277.936 69.416C278 68.84 278.016 68.264 277.984 67.688C277.952 67.112 277.904 66.552 277.84 66.008C277.776 65.464 277.712 64.968 277.648 64.52C277.104 64.552 276.464 64.552 275.728 64.52C275.024 64.488 274.32 64.408 273.616 64.28C272.912 64.12 272.256 63.912 271.648 63.656C271.04 63.4 270.576 63.048 270.256 62.6C270.224 61.16 270.208 59.624 270.208 57.992C270.208 56.328 270.208 54.632 270.208 52.904H277.648C277.584 52.488 277.568 51.992 277.6 51.416C277.664 50.808 277.712 50.216 277.744 49.64C277.776 49.064 277.776 48.536 277.744 48.056C277.712 47.544 277.584 47.16 277.36 46.904C275.728 47 274.352 47.08 273.232 47.144C272.144 47.208 271.104 47.256 270.112 47.288C270.112 46.808 270.096 46.344 270.064 45.896C270.064 45.448 270.064 45.016 270.064 44.6V38.168Z" fill="#C5D64B"/>
<path d="M298.515 61.784C298.163 61.688 297.715 61.64 297.171 61.64C296.627 61.608 296.051 61.608 295.443 61.64C294.835 61.672 294.259 61.704 293.715 61.736C293.171 61.736 292.739 61.72 292.419 61.688C292.323 62.104 292.179 62.584 291.987 63.128C291.827 63.64 291.587 64.008 291.267 64.232C290.883 64.488 290.371 64.664 289.731 64.76C289.091 64.824 288.467 64.792 287.859 64.664C287.251 64.504 286.723 64.216 286.275 63.8C285.859 63.384 285.683 62.808 285.747 62.072C285.811 60.952 285.843 59.88 285.843 58.856C285.843 57.832 285.907 56.824 286.035 55.832C286.131 55.32 286.275 55 286.467 54.872C286.883 54.36 287.427 54.008 288.099 53.816C289.347 53.496 290.355 53.656 291.123 54.296C291.891 54.904 292.355 55.768 292.515 56.888C292.931 56.952 293.395 57.016 293.907 57.08C294.451 57.144 294.995 57.192 295.539 57.224C296.115 57.256 296.659 57.272 297.171 57.272C297.715 57.272 298.195 57.224 298.611 57.128C298.579 56.072 298.547 55.096 298.515 54.2C298.515 53.272 298.451 52.44 298.323 51.704C298.195 50.968 298.003 50.328 297.747 49.784C297.523 49.24 297.187 48.808 296.739 48.488C296.067 47.848 295.267 47.368 294.339 47.048C293.411 46.728 292.435 46.536 291.411 46.472C290.739 46.408 290.099 46.408 289.491 46.472C288.915 46.504 288.307 46.488 287.667 46.424C286.899 46.424 286.131 46.472 285.363 46.568C284.627 46.664 283.923 46.84 283.251 47.096C282.611 47.32 282.035 47.608 281.523 47.96C281.043 48.312 280.691 48.728 280.467 49.208C280.371 49.528 280.227 49.992 280.035 50.6C279.843 51.208 279.731 51.688 279.699 52.04C279.507 53.192 279.411 54.344 279.411 55.496C279.539 56.552 279.571 57.72 279.507 59C279.475 60.28 279.491 61.56 279.555 62.84C279.619 64.088 279.811 65.288 280.131 66.44C280.451 67.592 281.043 68.552 281.907 69.32C283.027 70.44 284.403 71.144 286.035 71.432C286.931 71.432 287.923 71.464 289.011 71.528C290.099 71.624 291.155 71.624 292.179 71.528C293.203 71.464 294.147 71.272 295.011 70.952C295.907 70.632 296.627 70.088 297.171 69.32C297.395 69.096 297.571 68.744 297.699 68.264C297.859 67.752 297.987 67.16 298.083 66.488C298.179 65.784 298.259 65.032 298.323 64.232C298.387 63.432 298.451 62.616 298.515 61.784Z" fill="#C5D64B"/>
<path d="M307.557 49.592C307.557 49.464 307.557 49.064 307.557 48.392C307.557 47.72 307.557 46.92 307.557 45.992C307.557 45.064 307.557 44.072 307.557 43.016C307.557 41.928 307.557 40.92 307.557 39.992C307.557 39.032 307.557 38.216 307.557 37.544C307.557 36.84 307.541 36.408 307.509 36.248C307.509 36.152 307.381 36.104 307.125 36.104C306.869 36.072 306.581 36.072 306.261 36.104C305.941 36.136 305.621 36.184 305.301 36.248C304.981 36.28 304.757 36.296 304.629 36.296C304.245 36.328 303.925 36.36 303.669 36.392C303.413 36.392 303.173 36.392 302.949 36.392C302.725 36.392 302.485 36.392 302.229 36.392C301.973 36.36 301.653 36.328 301.269 36.296C301.237 37.704 301.205 39.368 301.173 41.288C301.173 43.176 301.173 45.192 301.173 47.336C301.173 49.48 301.173 51.688 301.173 53.96C301.173 56.2 301.173 58.376 301.173 60.488C301.205 62.6 301.221 64.584 301.221 66.44C301.253 68.264 301.269 69.832 301.269 71.144C302.037 71.08 302.677 71.064 303.189 71.096C303.701 71.128 304.165 71.144 304.581 71.144C304.997 71.176 305.397 71.176 305.781 71.144C306.197 71.112 306.677 71.016 307.221 70.856V70.664C307.349 69.608 307.413 68.552 307.413 67.496C307.413 66.44 307.381 65.384 307.317 64.328C307.285 63.24 307.253 62.168 307.221 61.112C307.189 60.024 307.205 58.92 307.269 57.8C307.333 56.936 307.557 56.296 307.941 55.88C308.325 55.432 308.757 55.144 309.237 55.016C309.717 54.856 310.197 54.824 310.677 54.92C311.189 54.984 311.573 55.08 311.829 55.208C311.861 55.24 311.893 55.256 311.925 55.256C311.957 55.256 311.989 55.272 312.021 55.304C312.277 55.496 312.469 55.768 312.597 56.12C312.757 56.472 312.869 56.872 312.933 57.32C313.029 57.768 313.093 58.232 313.125 58.712C313.157 59.16 313.189 59.576 313.221 59.96C313.285 60.824 313.317 61.752 313.317 62.744C313.349 63.736 313.349 64.728 313.317 65.72C313.317 66.712 313.317 67.672 313.317 68.6C313.317 69.528 313.349 70.36 313.413 71.096C314.533 71.096 315.525 71.096 316.389 71.096C317.285 71.128 318.293 71.064 319.413 70.904C319.349 69.816 319.333 68.552 319.365 67.112C319.397 65.672 319.429 64.184 319.461 62.648C319.493 61.08 319.509 59.544 319.509 58.04C319.541 56.504 319.525 55.096 319.461 53.816C319.429 52.536 319.317 51.448 319.125 50.552C318.965 49.624 318.725 49.016 318.405 48.728C317.733 48.152 316.981 47.752 316.149 47.528C315.317 47.304 314.453 47.208 313.557 47.24C312.693 47.272 311.845 47.432 311.013 47.72C310.181 48.008 309.429 48.392 308.757 48.872C308.597 49 308.389 49.128 308.133 49.256C307.909 49.384 307.717 49.496 307.557 49.592Z" fill="#C5D64B"/>
<path d="M328.545 58.952C328.865 59.016 329.377 59.064 330.081 59.096C330.785 59.128 331.569 59.144 332.433 59.144C333.329 59.144 334.257 59.128 335.217 59.096C336.177 59.064 337.073 59.016 337.905 58.952C338.769 58.888 339.505 58.824 340.113 58.76C340.753 58.696 341.185 58.632 341.409 58.568C341.505 57.224 341.505 55.896 341.409 54.584C341.313 53.272 341.025 52.072 340.545 50.984C340.097 49.896 339.425 48.968 338.529 48.2C337.633 47.432 336.449 46.92 334.977 46.664C333.825 46.376 332.641 46.248 331.425 46.28C330.209 46.312 329.057 46.504 327.969 46.856C326.881 47.176 325.905 47.672 325.041 48.344C324.177 48.984 323.537 49.768 323.121 50.696C322.737 51.752 322.481 52.84 322.353 53.96C322.257 55.048 322.161 56.184 322.065 57.368C322.001 58.68 322.033 59.992 322.161 61.304C322.289 62.616 322.529 63.864 322.881 65.048C323.233 66.2 323.697 67.272 324.273 68.264C324.849 69.224 325.569 70.008 326.433 70.616C327.201 71.064 328.033 71.352 328.929 71.48C329.825 71.48 330.801 71.512 331.857 71.576C332.945 71.64 334.001 71.64 335.025 71.576C336.049 71.512 336.993 71.32 337.857 71C338.721 70.68 339.425 70.136 339.969 69.368C340.193 69.176 340.369 68.84 340.497 68.36C340.657 67.848 340.785 67.256 340.881 66.584C340.977 65.88 341.057 65.128 341.121 64.328C341.185 63.528 341.249 62.712 341.313 61.88C340.961 61.784 340.513 61.736 339.969 61.736C339.425 61.704 338.849 61.704 338.241 61.736C337.665 61.768 337.105 61.8 336.561 61.832C336.017 61.832 335.585 61.816 335.265 61.784C335.329 63.096 335.121 64.088 334.641 64.76C334.193 65.4 333.633 65.784 332.961 65.912C332.289 66.04 331.601 65.928 330.897 65.576C330.193 65.224 329.649 64.68 329.265 63.944C328.913 63.368 328.705 62.776 328.641 62.168C328.609 61.56 328.577 60.776 328.545 59.816V58.952ZM334.353 51.512C334.929 51.8 335.377 52.232 335.697 52.808C336.049 53.384 336.225 53.992 336.225 54.632C336.225 54.888 336.225 55.064 336.225 55.16C336.225 55.224 336.129 55.272 335.937 55.304C335.777 55.304 335.489 55.288 335.073 55.256C334.657 55.224 334.033 55.208 333.201 55.208C331.985 55.208 331.057 55.224 330.417 55.256C329.809 55.256 329.361 55.24 329.073 55.208C328.785 55.144 328.625 55.048 328.593 54.92C328.593 54.76 328.625 54.504 328.689 54.152C328.753 53.736 328.849 53.336 328.977 52.952C329.137 52.568 329.361 52.232 329.649 51.944C329.937 51.656 330.321 51.432 330.801 51.272C331.281 51.112 331.905 51.032 332.673 51.032C333.025 51.032 333.329 51.08 333.585 51.176C333.841 51.24 334.097 51.352 334.353 51.512Z" fill="#C5D64B"/>
<path d="M61.8852 49.592V37.544C61.8852 36.84 61.8692 36.408 61.8372 36.248C61.8372 36.152 61.7092 36.104 61.4532 36.104C61.1972 36.072 60.9092 36.072 60.5892 36.104C60.2692 36.136 59.9492 36.184 59.6292 36.248C59.3092 36.28 59.0852 36.296 58.9572 36.296C58.5732 36.328 58.2532 36.36 57.9972 36.392H56.5572C56.3012 36.36 55.9812 36.328 55.5972 36.296C55.5652 37.704 55.5332 39.368 55.5012 41.288V60.488C55.5332 62.6 55.5492 64.584 55.5492 66.44C55.5812 68.264 55.5972 69.832 55.5972 71.144C56.3652 71.08 57.0052 71.064 57.5172 71.096C58.0292 71.128 58.4932 71.144 58.9092 71.144C59.3252 71.176 59.7252 71.176 60.1092 71.144C60.5252 71.112 61.0052 71.016 61.5492 70.856V70.664C61.6772 69.608 61.7412 68.552 61.7412 67.496C61.7412 66.44 61.7092 65.384 61.6452 64.328C61.6132 63.24 61.5812 62.168 61.5492 61.112C61.5172 60.024 61.5332 58.92 61.5972 57.8C61.6612 56.936 61.8852 56.296 62.2692 55.88C62.6532 55.432 63.0852 55.144 63.5652 55.016C64.0452 54.856 64.5252 54.824 65.0052 54.92C65.5172 54.984 65.9012 55.08 66.1572 55.208C66.1892 55.24 66.2212 55.256 66.2532 55.256C66.2852 55.256 66.3172 55.272 66.3492 55.304C66.6052 55.496 66.7972 55.768 66.9252 56.12C67.0852 56.472 67.1972 56.872 67.2612 57.32C67.3572 57.768 67.4212 58.232 67.4532 58.712C67.4852 59.16 67.5172 59.576 67.5492 59.96C67.6132 60.824 67.6452 61.752 67.6452 62.744C67.6772 63.736 67.6772 64.728 67.6452 65.72V68.6C67.6452 69.528 67.6772 70.36 67.7412 71.096H70.7172C71.6132 71.128 72.6212 71.064 73.7412 70.904C73.6772 69.816 73.6612 68.552 73.6932 67.112C73.7252 65.672 73.7572 64.184 73.7892 62.648C73.8212 61.08 73.8372 59.544 73.8372 58.04C73.8692 56.504 73.8532 55.096 73.7892 53.816C73.7572 52.536 73.6452 51.448 73.4532 50.552C73.2932 49.624 73.0532 49.016 72.7332 48.728C72.0612 48.152 71.3092 47.752 70.4772 47.528C69.6452 47.304 68.7812 47.208 67.8852 47.24C67.0212 47.272 66.1732 47.432 65.3412 47.72C64.5092 48.008 63.7572 48.392 63.0852 48.872C62.9252 49 62.7172 49.128 62.4612 49.256C62.2372 49.384 62.0452 49.496 61.8852 49.592Z" fill="#C5D64B"/>
<path fill-rule="evenodd" clip-rule="evenodd" d="M82.8728 58.952C83.1928 59.016 83.7048 59.064 84.4088 59.096C85.1128 59.128 85.8968 59.144 86.7608 59.144C87.6568 59.144 88.5848 59.128 89.5448 59.096C90.5048 59.064 91.4008 59.016 92.2328 58.952C93.0968 58.888 93.8328 58.824 94.4408 58.76C95.0808 58.696 95.5128 58.632 95.7368 58.568C95.8328 57.224 95.8328 55.896 95.7368 54.584C95.6408 53.272 95.3528 52.072 94.8728 50.984C94.4248 49.896 93.7528 48.968 92.8568 48.2C91.9608 47.432 90.7768 46.92 89.3048 46.664C88.1528 46.376 86.9688 46.248 85.7528 46.28C84.5368 46.312 83.3848 46.504 82.2968 46.856C81.2088 47.176 80.2328 47.672 79.3688 48.344C78.5048 48.984 77.8648 49.768 77.4488 50.696C77.0648 51.752 76.8088 52.84 76.6808 53.96C76.5848 55.048 76.4888 56.184 76.3928 57.368C76.3288 58.68 76.3608 59.992 76.4888 61.304C76.6168 62.616 76.8568 63.864 77.2088 65.048C77.5608 66.2 78.0248 67.272 78.6008 68.264C79.1768 69.224 79.8968 70.008 80.7608 70.616C81.5288 71.064 82.3608 71.352 83.2568 71.48C84.1528 71.48 85.1288 71.512 86.1848 71.576C87.2728 71.64 88.3288 71.64 89.3528 71.576C90.3768 71.512 91.3208 71.32 92.1848 71C93.0488 70.68 93.7528 70.136 94.2968 69.368C94.5208 69.176 94.6968 68.84 94.8248 68.36C94.9848 67.848 95.1128 67.256 95.2088 66.584C95.3048 65.88 95.3848 65.128 95.4488 64.328C95.5128 63.528 95.5768 62.712 95.6408 61.88C95.2888 61.784 94.8408 61.736 94.2968 61.736C93.7528 61.704 93.1768 61.704 92.5688 61.736C91.9928 61.768 91.4328 61.8 90.8888 61.832C90.3448 61.832 89.9128 61.816 89.5928 61.784C89.6568 63.096 89.4488 64.088 88.9688 64.76C88.5208 65.4 87.9608 65.784 87.2888 65.912C86.6168 66.04 85.9288 65.928 85.2248 65.576C84.5208 65.224 83.9768 64.68 83.5928 63.944C83.2408 63.368 83.0328 62.776 82.9688 62.168C82.9368 61.56 82.9048 60.776 82.8728 59.816V58.952ZM90.0248 52.808C89.7048 52.232 89.2568 51.8 88.6808 51.512C88.4248 51.352 88.1688 51.24 87.9128 51.176C87.6568 51.08 87.3528 51.032 87.0008 51.032C86.2328 51.032 85.6088 51.112 85.1288 51.272C84.6488 51.432 84.2648 51.656 83.9768 51.944C83.6888 52.232 83.4648 52.568 83.3048 52.952C83.1768 53.336 83.0808 53.736 83.0168 54.152C82.9528 54.504 82.9208 54.76 82.9208 54.92C82.9528 55.048 83.1128 55.144 83.4008 55.208C83.6888 55.24 84.1368 55.256 84.7448 55.256C85.3848 55.224 86.3128 55.208 87.5288 55.208C88.3608 55.208 88.9848 55.224 89.4008 55.256C89.8168 55.288 90.1048 55.304 90.2648 55.304C90.4568 55.272 90.5528 55.224 90.5528 55.16V54.632C90.5528 53.992 90.3768 53.384 90.0248 52.808Z" fill="#C5D64B"/>
<path fill-rule="evenodd" clip-rule="evenodd" d="M123.698 54.152C123.57 53.608 123.394 52.872 123.17 51.944C122.946 51.016 122.706 49.992 122.45 48.872C122.194 47.752 121.922 46.584 121.634 45.368C121.378 44.152 121.122 43.016 120.866 41.96C120.642 40.872 120.418 39.912 120.194 39.08C120.002 38.216 119.858 37.576 119.762 37.16C118.706 37.256 117.842 37.32 117.17 37.352H114.578C114.322 37.352 114.082 37.368 113.858 37.4C113.09 39.96 112.386 42.536 111.746 45.128C111.106 47.72 110.514 50.216 109.97 52.616C109.426 55.016 108.946 57.288 108.53 59.432C108.146 61.544 107.81 63.416 107.522 65.048C107.234 66.68 107.01 68.008 106.85 69.032C106.69 70.056 106.578 70.68 106.514 70.904C106.546 70.936 106.578 70.952 106.61 70.952C108.786 70.92 110.386 70.936 111.41 71C112.434 71.064 113.074 71.064 113.33 71H113.378C113.41 70.968 113.442 70.952 113.474 70.952C113.762 70.408 113.986 69.784 114.146 69.08C114.306 68.376 114.45 67.656 114.578 66.92C114.738 66.152 114.882 65.432 115.01 64.76C115.17 64.056 115.362 63.448 115.586 62.936H116.402C116.626 62.904 116.818 62.888 116.978 62.888H117.602C117.826 62.888 118.146 62.92 118.562 62.984C118.786 63.464 118.994 64.04 119.186 64.712C119.378 65.384 119.554 66.088 119.714 66.824C119.906 67.56 120.082 68.28 120.242 68.984C120.434 69.688 120.626 70.296 120.818 70.808H120.866C121.89 71.032 122.978 71.16 124.13 71.192C125.282 71.256 126.338 71.192 127.298 71V70.952L123.698 54.152ZM116.978 57.32C117.586 57.288 118.194 57.272 118.802 57.272C118.482 54.52 118.194 52.376 117.938 50.84C117.714 49.304 117.506 48.264 117.314 47.72C117.154 47.176 116.978 47.064 116.786 47.384C116.626 47.672 116.466 48.28 116.306 49.208C116.178 50.136 116.018 51.304 115.826 52.712C115.666 54.12 115.474 55.64 115.25 57.272C115.794 57.304 116.37 57.32 116.978 57.32Z" fill="#C5D64B"/>
<path d="M158.689 38.168C158.145 38.232 157.601 38.248 157.057 38.216L155.425 38.12C154.881 38.056 154.353 38.008 153.841 37.976C153.361 37.944 152.913 37.96 152.497 38.024C152.433 38.632 152.385 39.32 152.353 40.088V42.488C152.353 43.32 152.369 44.152 152.401 44.984C152.433 45.784 152.449 46.536 152.449 47.24H150.817C150.273 47.24 149.681 47.224 149.041 47.192L148.897 53.048H150.721C151.297 53.048 151.841 53.032 152.353 53C152.321 55.336 152.337 57.608 152.401 59.816C152.465 61.992 152.705 64.312 153.121 66.776C153.537 67.768 154.209 68.552 155.137 69.128C156.097 69.704 157.185 70.136 158.401 70.424C159.617 70.712 160.913 70.904 162.289 71C163.665 71.064 164.993 71.064 166.273 71C166.433 70.52 166.529 69.992 166.561 69.416C166.625 68.84 166.641 68.264 166.609 67.688C166.577 67.112 166.529 66.552 166.465 66.008C166.401 65.464 166.337 64.968 166.273 64.52C165.729 64.552 165.089 64.552 164.353 64.52C163.649 64.488 162.945 64.408 162.241 64.28C161.537 64.12 160.881 63.912 160.273 63.656C159.665 63.4 159.201 63.048 158.881 62.6C158.849 61.16 158.833 59.624 158.833 57.992V52.904H166.273C166.209 52.488 166.193 51.992 166.225 51.416C166.289 50.808 166.337 50.216 166.369 49.64C166.401 49.064 166.401 48.536 166.369 48.056C166.337 47.544 166.209 47.16 165.985 46.904C164.353 47 162.977 47.08 161.857 47.144C160.769 47.208 159.729 47.256 158.737 47.288C158.737 46.808 158.721 46.344 158.689 45.896V38.168Z" fill="#C5D64B"/>
<path d="M174.516 46.856C173.492 46.888 172.612 46.888 171.876 46.856C171.14 46.824 170.564 46.792 170.148 46.76C169.988 46.76 169.748 46.744 169.428 46.712C169.14 46.68 168.932 46.68 168.804 46.712V46.76C168.612 48.648 168.516 50.6 168.516 52.616C168.516 54.6 168.548 56.616 168.612 58.664C168.676 60.712 168.708 62.776 168.708 64.856C168.74 66.936 168.676 68.984 168.516 71C168.74 70.936 169.188 70.92 169.86 70.952C170.532 70.984 171.236 71 171.972 71C172.74 71.032 173.444 71.032 174.084 71C174.724 71 175.124 70.904 175.284 70.712C175.06 66.84 174.996 62.888 175.092 58.856C175.22 54.824 175.3 50.872 175.332 47V46.856H174.516Z" fill="#C5D64B"/>
<path d="M241.791 53.768C242.367 52.424 243.039 51.08 243.807 49.736L246.111 45.704C246.911 44.36 247.647 43.016 248.319 41.672C249.023 40.328 249.567 38.984 249.951 37.64C248.927 37.48 247.839 37.432 246.687 37.496C245.535 37.56 244.447 37.56 243.423 37.496C242.751 38.456 242.143 39.416 241.599 40.376L240.063 43.256C239.583 44.216 239.071 45.16 238.527 46.088C237.983 47.016 237.375 47.912 236.703 48.776C236.639 48.84 236.575 48.92 236.511 49.016C236.479 49.08 236.463 49.096 236.463 49.064C236.399 47.24 236.383 45.32 236.415 43.304C236.447 41.288 236.431 39.368 236.367 37.544C235.343 37.544 234.271 37.528 233.151 37.496C232.063 37.432 230.991 37.416 229.935 37.448C229.967 43.048 229.887 48.632 229.695 54.2C229.535 59.736 229.583 65.256 229.839 70.76C230.255 70.856 230.767 70.936 231.375 71C232.015 71.064 232.671 71.096 233.343 71.096C234.015 71.096 234.655 71.064 235.263 71C235.871 70.968 236.399 70.888 236.847 70.76C236.847 69.864 236.831 68.888 236.799 67.832C236.799 66.776 236.783 65.704 236.751 64.616C236.719 63.528 236.687 62.456 236.655 61.4C236.655 60.312 236.671 59.304 236.703 58.376C237.215 59.272 237.727 60.28 238.239 61.4C238.751 62.52 239.263 63.656 239.775 64.808C240.319 65.96 240.879 67.08 241.455 68.168C242.031 69.224 242.655 70.136 243.327 70.904C244.351 70.936 245.455 70.984 246.639 71.048C247.855 71.112 248.975 71.032 249.999 70.808L241.791 53.768Z" fill="#C5D64B"/>
<path fill-rule="evenodd" clip-rule="evenodd" d="M204.326 58.952C204.646 59.016 205.158 59.064 205.862 59.096C206.566 59.128 207.35 59.144 208.214 59.144C209.11 59.144 210.038 59.128 210.998 59.096C211.958 59.064 212.854 59.016 213.686 58.952C214.55 58.888 215.286 58.824 215.894 58.76C216.534 58.696 216.966 58.632 217.19 58.568C217.286 57.224 217.286 55.896 217.19 54.584C217.094 53.272 216.806 52.072 216.326 50.984C215.878 49.896 215.206 48.968 214.31 48.2C213.414 47.432 212.23 46.92 210.758 46.664C209.606 46.376 208.422 46.248 207.206 46.28C205.99 46.312 204.838 46.504 203.75 46.856C202.662 47.176 201.686 47.672 200.822 48.344C199.958 48.984 199.318 49.768 198.902 50.696C198.518 51.752 198.262 52.84 198.134 53.96C198.038 55.048 197.942 56.184 197.846 57.368C197.782 58.68 197.814 59.992 197.942 61.304C198.07 62.616 198.31 63.864 198.662 65.048C199.014 66.2 199.478 67.272 200.054 68.264C200.63 69.224 201.35 70.008 202.214 70.616C202.982 71.064 203.814 71.352 204.71 71.48C205.606 71.48 206.582 71.512 207.638 71.576C208.726 71.64 209.782 71.64 210.806 71.576C211.83 71.512 212.774 71.32 213.638 71C214.502 70.68 215.206 70.136 215.75 69.368C215.974 69.176 216.15 68.84 216.278 68.36C216.438 67.848 216.566 67.256 216.662 66.584C216.758 65.88 216.838 65.128 216.902 64.328C216.966 63.528 217.03 62.712 217.094 61.88C216.742 61.784 216.294 61.736 215.75 61.736C215.206 61.704 214.63 61.704 214.022 61.736C213.446 61.768 212.886 61.8 212.342 61.832C211.798 61.832 211.366 61.816 211.046 61.784C211.11 63.096 210.902 64.088 210.422 64.76C209.974 65.4 209.414 65.784 208.742 65.912C208.07 66.04 207.382 65.928 206.678 65.576C205.974 65.224 205.43 64.68 205.046 63.944C204.694 63.368 204.486 62.776 204.422 62.168C204.39 61.56 204.358 60.776 204.326 59.816V58.952ZM211.478 52.808C211.158 52.232 210.71 51.8 210.134 51.512C209.878 51.352 209.622 51.24 209.366 51.176C209.11 51.08 208.806 51.032 208.454 51.032C207.686 51.032 207.062 51.112 206.582 51.272C206.102 51.432 205.718 51.656 205.43 51.944C205.142 52.232 204.918 52.568 204.758 52.952C204.63 53.336 204.534 53.736 204.47 54.152C204.406 54.504 204.374 54.76 204.374 54.92C204.406 55.048 204.566 55.144 204.854 55.208C205.142 55.24 205.59 55.256 206.198 55.256C206.838 55.224 207.766 55.208 208.982 55.208C209.814 55.208 210.438 55.224 210.854 55.256C211.27 55.288 211.558 55.304 211.718 55.304C211.91 55.272 212.006 55.224 212.006 55.16V54.632C212.006 53.992 211.83 53.384 211.478 52.808Z" fill="#F9D26E"/>
<path d="M147.343 61.784C146.991 61.688 146.543 61.64 145.999 61.64C145.455 61.608 144.879 61.608 144.271 61.64C143.663 61.672 143.087 61.704 142.543 61.736C141.999 61.736 141.567 61.72 141.247 61.688C141.151 62.104 141.007 62.584 140.815 63.128C140.655 63.64 140.415 64.008 140.095 64.232C139.711 64.488 139.199 64.664 138.559 64.76C137.919 64.824 137.295 64.792 136.687 64.664C136.079 64.504 135.551 64.216 135.103 63.8C134.687 63.384 134.511 62.808 134.575 62.072C134.639 60.952 134.671 59.88 134.671 58.856C134.671 57.832 134.735 56.824 134.863 55.832C134.959 55.32 135.103 55 135.295 54.872C135.711 54.36 136.255 54.008 136.927 53.816C138.175 53.496 139.183 53.656 139.951 54.296C140.719 54.904 141.183 55.768 141.343 56.888C141.759 56.952 142.223 57.016 142.735 57.08C143.279 57.144 143.823 57.192 144.367 57.224C144.943 57.256 145.487 57.272 145.999 57.272C146.543 57.272 147.023 57.224 147.439 57.128C147.407 56.072 147.375 55.096 147.343 54.2C147.343 53.272 147.279 52.44 147.151 51.704C147.023 50.968 146.831 50.328 146.575 49.784C146.351 49.24 146.015 48.808 145.567 48.488C144.895 47.848 144.095 47.368 143.167 47.048C142.239 46.728 141.263 46.536 140.239 46.472C139.567 46.408 138.927 46.408 138.319 46.472C137.743 46.504 137.135 46.488 136.495 46.424C135.727 46.424 134.959 46.472 134.191 46.568C133.455 46.664 132.751 46.84 132.079 47.096C131.439 47.32 130.863 47.608 130.351 47.96C129.871 48.312 129.519 48.728 129.295 49.208C129.199 49.528 129.055 49.992 128.863 50.6C128.671 51.208 128.559 51.688 128.527 52.04C128.335 53.192 128.239 54.344 128.239 55.496C128.367 56.552 128.399 57.72 128.335 59C128.303 60.28 128.319 61.56 128.383 62.84C128.447 64.088 128.639 65.288 128.959 66.44C129.279 67.592 129.871 68.552 130.735 69.32C131.855 70.44 133.231 71.144 134.863 71.432C135.759 71.432 136.751 71.464 137.839 71.528C138.927 71.624 139.983 71.624 141.007 71.528C142.031 71.464 142.975 71.272 143.839 70.952C144.735 70.632 145.455 70.088 145.999 69.32C146.223 69.096 146.399 68.744 146.527 68.264C146.687 67.752 146.815 67.16 146.911 66.488C147.007 65.784 147.087 65.032 147.151 64.232C147.215 63.432 147.279 62.616 147.343 61.784Z" fill="#F9D26E"/>
<path d="M184.069 47.144C183.045 47.016 181.957 47 180.805 47.096C179.685 47.16 178.549 47.128 177.397 47C178.421 50.776 179.349 54.744 180.181 58.904C181.013 63.064 181.749 67.144 182.389 71.144H184.453C185.253 71.176 186.053 71.192 186.853 71.192C187.685 71.224 188.485 71.224 189.253 71.192C190.053 71.192 190.773 71.144 191.413 71.048C191.957 69.032 192.453 67 192.901 64.952C193.349 62.872 193.797 60.808 194.245 58.76C194.693 56.712 195.157 54.712 195.637 52.76C196.149 50.776 196.741 48.872 197.413 47.048C196.741 47.016 196.133 47 195.589 47C195.045 47 194.517 47.016 194.005 47.048C193.493 47.08 192.997 47.112 192.517 47.144C192.037 47.176 191.525 47.192 190.981 47.192C190.597 48.152 190.245 49.368 189.925 50.84C189.605 52.312 189.301 53.832 189.013 55.4C188.757 56.968 188.485 58.488 188.197 59.96C187.909 61.4 187.589 62.6 187.237 63.56C186.885 62.6 186.565 61.432 186.277 60.056C185.989 58.648 185.717 57.176 185.461 55.64C185.205 54.104 184.965 52.6 184.741 51.128C184.517 49.624 184.293 48.296 184.069 47.144Z" fill="#F9D26E"/>
<path d="M82.8728 58.952C83.1928 59.016 83.7048 59.064 84.4088 59.096C85.1128 59.128 85.8968 59.144 86.7608 59.144C87.6568 59.144 88.5848 59.128 89.5448 59.096C90.5048 59.064 91.4008 59.016 92.2328 58.952C93.0968 58.888 93.8328 58.824 94.4408 58.76C95.0808 58.696 95.5128 58.632 95.7368 58.568C95.8328 57.224 95.8328 55.896 95.7368 54.584L90.5528 55.16C90.5528 55.224 90.4568 55.272 90.2648 55.304C90.1048 55.304 89.8168 55.288 89.4008 55.256C88.9848 55.224 88.3608 55.208 87.5288 55.208C86.3128 55.208 85.3848 55.224 84.7448 55.256C84.1368 55.256 83.6888 55.24 83.4008 55.208C83.1128 55.144 82.9528 55.048 82.9208 54.92L82.8728 58.952Z" fill="#C5D64B"/>
<path d="M186.853 71.192C187.685 71.224 188.485 71.224 189.253 71.192C190.053 71.192 190.773 71.144 191.413 71.048C191.957 69.032 192.453 67 192.901 64.952C193.349 62.872 193.797 60.808 194.245 58.76C194.693 56.712 195.157 54.712 195.637 52.76C196.149 50.776 196.741 48.872 197.413 47.048C196.741 47.016 196.133 47 195.589 47C195.045 47 194.517 47.016 194.005 47.048C193.493 47.08 192.997 47.112 192.517 47.144C192.037 47.176 191.525 47.192 190.981 47.192C190.597 48.152 190.245 49.368 189.925 50.84C189.605 52.312 189.301 53.832 189.013 55.4C188.757 56.968 188.485 58.488 188.197 59.96C187.909 61.4 187.589 62.6 187.237 63.56L186.853 71.192Z" fill="#C5D64B"/>
<path d="M208.214 59.144C209.11 59.144 210.038 59.128 210.998 59.096C211.958 59.064 212.854 59.016 213.686 58.952C214.55 58.888 215.286 58.824 215.894 58.76C216.534 58.696 216.966 58.632 217.19 58.568C217.286 57.224 217.286 55.896 217.19 54.584C217.094 53.272 216.806 52.072 216.326 50.984C215.878 49.896 215.206 48.968 214.31 48.2C213.414 47.432 212.23 46.92 210.758 46.664C209.606 46.376 208.422 46.248 207.206 46.28V51.1219C207.568 51.062 207.984 51.032 208.454 51.032C208.806 51.032 209.11 51.08 209.366 51.176C209.622 51.24 209.878 51.352 210.134 51.512C210.71 51.8 211.158 52.232 211.478 52.808C211.83 53.384 212.006 53.992 212.006 54.632V55.16C212.006 55.224 211.91 55.272 211.718 55.304C211.558 55.304 211.27 55.288 210.854 55.256C210.438 55.224 209.814 55.208 208.982 55.208C208.299 55.208 207.707 55.213 207.206 55.2231V59.1362C207.529 59.1414 207.865 59.144 208.214 59.144Z" fill="#C5D64B"/>
<path d="M257.391 46.856C256.367 46.888 255.487 46.888 254.751 46.856C254.015 46.824 253.439 46.792 253.023 46.76C252.863 46.76 252.623 46.744 252.303 46.712C252.015 46.68 251.807 46.68 251.679 46.712V46.76C251.487 48.648 251.391 50.6 251.391 52.616C251.391 54.6 251.423 56.616 251.487 58.664C251.551 60.712 251.583 62.776 251.583 64.856C251.615 66.936 251.551 68.984 251.391 71C251.615 70.936 252.063 70.92 252.735 70.952C253.407 70.984 254.111 71 254.847 71C255.615 71.032 256.319 71.032 256.959 71C257.599 71 257.999 70.904 258.159 70.712C257.935 66.84 257.871 62.888 257.967 58.856C258.095 54.824 258.175 50.872 258.207 47V46.856H257.391Z" fill="#C5D64B"/>
<path d="M270.208 52.904H277.648C277.584 52.488 277.568 51.992 277.6 51.416C277.664 50.808 277.712 50.216 277.744 49.64C277.776 49.064 277.776 48.536 277.744 48.056C277.712 47.544 277.584 47.16 277.36 46.904C275.728 47 274.352 47.08 273.232 47.144C272.144 47.208 271.104 47.256 270.112 47.288L270.208 52.904Z" fill="#C5D64B"/>
<path d="M263.824 47.24H262.192C261.648 47.24 261.056 47.224 260.416 47.192L260.272 53.048H262.096C262.672 53.048 263.216 53.032 263.728 53L263.824 47.24Z" fill="#C5D64B"/>
<path d="M291.123 54.296C291.891 54.904 292.355 55.768 292.515 56.888C292.931 56.952 293.395 57.016 293.907 57.08C294.451 57.144 294.995 57.192 295.539 57.224C296.115 57.256 296.659 57.272 297.171 57.272C297.715 57.272 298.195 57.224 298.611 57.128C298.579 56.072 298.547 55.096 298.515 54.2C298.515 53.272 298.451 52.44 298.323 51.704C298.195 50.968 298.003 50.328 297.747 49.784C297.523 49.24 297.187 48.808 296.739 48.488C296.067 47.848 295.267 47.368 294.339 47.048C293.411 46.728 292.435 46.536 291.411 46.472C290.739 46.408 290.099 46.408 289.491 46.472C288.915 46.504 288.307 46.488 287.667 46.424L291.123 54.296Z" fill="#C5D64B"/>
<path d="M307.557 49.592V48.392V45.992V43.016V39.992V37.544C307.557 36.84 307.541 36.408 307.509 36.248C307.509 36.152 307.381 36.104 307.125 36.104C306.869 36.072 306.581 36.072 306.261 36.104C305.941 36.136 305.621 36.184 305.301 36.248C304.981 36.28 304.757 36.296 304.629 36.296C304.245 36.328 303.925 36.36 303.669 36.392H302.949H302.229C301.973 36.36 301.653 36.328 301.269 36.296C301.237 37.704 301.205 39.368 301.173 41.288V47.336V53.96V60.488C301.205 62.6 301.221 64.584 301.221 66.44C301.253 68.264 301.269 69.832 301.269 71.144C302.037 71.08 302.677 71.064 303.189 71.096C303.701 71.128 304.165 71.144 304.581 71.144C304.997 71.176 305.397 71.176 305.781 71.144C306.197 71.112 306.677 71.016 307.221 70.856V70.664C307.349 69.608 307.413 68.552 307.413 67.496C307.413 66.44 307.381 65.384 307.317 64.328C307.285 63.24 307.253 62.168 307.221 61.112C307.189 60.024 307.205 58.92 307.269 57.8L307.557 49.592Z" fill="#C5D64B"/>
<path d="M328.545 58.952C328.865 59.016 329.377 59.064 330.081 59.096C330.785 59.128 331.569 59.144 332.433 59.144C333.329 59.144 334.257 59.128 335.217 59.096C336.177 59.064 337.073 59.016 337.905 58.952C338.769 58.888 339.505 58.824 340.113 58.76C340.753 58.696 341.185 58.632 341.409 58.568C341.505 57.224 341.505 55.896 341.409 54.584L336.225 55.16C336.225 55.224 336.129 55.272 335.937 55.304C335.777 55.304 335.489 55.288 335.073 55.256C334.657 55.224 334.033 55.208 333.201 55.208C331.985 55.208 331.057 55.224 330.417 55.256C329.809 55.256 329.361 55.24 329.073 55.208C328.785 55.144 328.625 55.048 328.593 54.92L322.353 53.96C322.257 55.048 322.161 56.184 322.065 57.368C322.001 58.68 322.033 59.992 322.161 61.304C322.289 62.616 322.529 63.864 322.881 65.048C323.233 66.2 323.697 67.272 324.273 68.264C324.849 69.224 325.569 70.008 326.433 70.616C327.201 71.064 328.033 71.352 328.929 71.48C329.825 71.48 330.801 71.512 331.857 71.576C332.945 71.64 334.001 71.64 335.025 71.576C336.049 71.512 336.993 71.32 337.857 71C338.721 70.68 339.425 70.136 339.969 69.368C340.193 69.176 340.369 68.84 340.497 68.36C340.657 67.848 340.785 67.256 340.881 66.584C340.977 65.88 341.057 65.128 341.121 64.328C341.185 63.528 341.249 62.712 341.313 61.88C340.961 61.784 340.513 61.736 339.969 61.736C339.425 61.704 338.849 61.704 338.241 61.736C337.665 61.768 337.105 61.8 336.561 61.832C336.017 61.832 335.585 61.816 335.265 61.784C335.329 63.096 335.121 64.088 334.641 64.76C334.193 65.4 333.633 65.784 332.961 65.912C332.289 66.04 331.601 65.928 330.897 65.576C330.193 65.224 329.649 64.68 329.265 63.944C328.913 63.368 328.705 62.776 328.641 62.168C328.609 61.56 328.577 60.776 328.545 59.816V58.952Z" fill="#C5D64B"/>
<path d="M241.791 53.768C242.367 52.424 243.039 51.08 243.807 49.736L246.111 45.704C246.911 44.36 247.647 43.016 248.319 41.672C249.023 40.328 249.567 38.984 249.951 37.64C248.927 37.48 247.839 37.432 246.687 37.496C245.535 37.56 244.447 37.56 243.423 37.496C242.751 38.456 242.143 39.416 241.599 40.376L240.063 43.256C239.583 44.216 239.071 45.16 238.527 46.088C237.983 47.016 237.375 47.912 236.703 48.776C236.639 48.84 236.575 48.92 236.511 49.016C236.483 49.072 236.468 49.0913 236.464 49.0738L236.703 58.376C237.215 59.272 237.727 60.28 238.239 61.4C238.751 62.52 239.263 63.656 239.775 64.808C240.319 65.96 240.879 67.08 241.455 68.168C242.031 69.224 242.655 70.136 243.327 70.904C244.351 70.936 245.455 70.984 246.639 71.048C247.855 71.112 248.975 71.032 249.999 70.808L241.791 53.768Z" fill="#F9D26E"/>
<path d="M341.409 54.584C341.313 53.272 341.025 52.072 340.545 50.984C340.097 49.896 339.425 48.968 338.529 48.2C337.633 47.432 336.449 46.92 334.977 46.664C333.825 46.376 332.641 46.248 331.425 46.28C330.209 46.312 329.057 46.504 327.969 46.856C326.881 47.176 325.905 47.672 325.041 48.344C324.177 48.984 323.537 49.768 323.121 50.696C322.737 51.752 322.481 52.84 322.353 53.96L328.593 54.92C328.593 54.76 328.625 54.504 328.689 54.152C328.753 53.736 328.849 53.336 328.977 52.952C329.137 52.568 329.361 52.232 329.649 51.944C329.937 51.656 330.321 51.432 330.801 51.272C331.281 51.112 331.905 51.032 332.673 51.032C333.025 51.032 333.329 51.08 333.585 51.176C333.841 51.24 334.097 51.352 334.353 51.512C334.929 51.8 335.377 52.232 335.697 52.808C336.049 53.384 336.225 53.992 336.225 54.632V55.16L341.409 54.584Z" fill="#F9D26E"/>
<path d="M174.516 46.856C173.492 46.888 172.612 46.888 171.876 46.856C171.14 46.824 170.564 46.792 170.148 46.76C169.988 46.76 169.748 46.744 169.428 46.712C169.14 46.68 168.932 46.68 168.804 46.712V46.76C168.612 48.648 168.516 50.6 168.516 52.616C168.516 54.6 168.548 56.616 168.612 58.664C168.676 60.712 168.708 62.776 168.708 64.856C168.74 66.936 168.676 68.984 168.516 71C168.74 70.936 169.188 70.92 169.86 70.952C170.532 70.984 171.236 71 171.972 71C172.74 71.032 173.444 71.032 174.084 71C174.724 71 175.124 70.904 175.284 70.712C175.06 66.84 174.996 62.888 175.092 58.856C175.22 54.824 175.3 50.872 175.332 47V46.856H174.516Z" fill="#F9D26E"/>
<path d="M53.3239 37.64C50.0279 37.288 46.6359 37.128 43.1479 37.16C39.6919 37.16 36.3319 37.176 33.0679 37.208V37.256C33.0999 37.256 33.1159 37.272 33.1159 37.304C33.0519 38.072 33.0199 38.872 33.0199 39.704V42.056C33.0519 42.76 33.0839 43.368 33.1159 43.88C33.1799 44.392 33.2439 44.712 33.3079 44.84C33.4999 44.904 33.8359 44.936 34.3159 44.936C34.7959 44.936 35.3239 44.952 35.8999 44.984C36.4759 44.984 37.0519 45.016 37.6279 45.08C38.2039 45.112 38.6839 45.224 39.0679 45.416L39.1159 45.464L47.0839 45.176C47.1159 45.144 47.1319 45.112 47.1319 45.08H47.2759C48.7799 45.016 49.9799 44.968 50.8759 44.936C51.7719 44.904 52.5239 44.952 53.1319 45.08C53.2919 43.928 53.3719 42.664 53.3719 41.288C53.4039 39.912 53.3879 38.696 53.3239 37.64Z" fill="#FDA6A6"/>
<path d="M39.1159 45.464C39.3079 49.944 39.4199 53.768 39.4519 56.936C39.5159 60.104 39.5319 62.712 39.4999 64.76C39.4999 66.776 39.4839 68.296 39.4519 69.32C39.4199 70.344 39.4199 70.92 39.4519 71.048C40.0279 70.952 40.6519 70.904 41.3239 70.904H43.3399H45.4039C46.1079 70.872 46.7479 70.808 47.3239 70.712V70.616C47.2599 67.128 47.2119 64.104 47.1799 61.544C47.1479 58.952 47.1159 56.744 47.0839 54.92C47.0519 53.064 47.0199 51.56 46.9879 50.408V47.576V45.992C47.0199 45.64 47.0519 45.384 47.0839 45.224V45.176L39.1159 45.464Z" fill="#FDA6A6"/>
<path d="M61.8852 49.592V37.544C61.8852 36.84 61.8692 36.408 61.8372 36.248C61.8372 36.152 61.7092 36.104 61.4532 36.104C61.1972 36.072 60.9092 36.072 60.5892 36.104C60.2692 36.136 59.9492 36.184 59.6292 36.248C59.3092 36.28 59.0852 36.296 58.9572 36.296C58.5732 36.328 58.2532 36.36 57.9972 36.392H56.5572C56.3012 36.36 55.9812 36.328 55.5972 36.296C55.5652 37.704 55.5332 39.368 55.5012 41.288V60.488C55.5332 62.6 55.5492 64.584 55.5492 66.44C55.5812 68.264 55.5972 69.832 55.5972 71.144C56.3652 71.08 57.0052 71.064 57.5172 71.096C58.0292 71.128 58.4932 71.144 58.9092 71.144C59.3252 71.176 59.7252 71.176 60.1092 71.144C60.5252 71.112 61.0052 71.016 61.5492 70.856V70.664C61.6772 69.608 61.7412 68.552 61.7412 67.496C61.7412 66.44 61.7092 65.384 61.6452 64.328C61.6132 63.24 61.5812 62.168 61.5492 61.112C61.5172 60.024 61.5332 58.92 61.5972 57.8L61.8852 49.592Z" fill="#F9D26E"/>
<path d="M61.5972 57.8C61.6612 56.936 61.8852 56.296 62.2692 55.88C62.6532 55.432 63.0852 55.144 63.5652 55.016C64.0452 54.856 64.5252 54.824 65.0052 54.92C65.5172 54.984 65.9012 55.08 66.1572 55.208C66.1892 55.24 66.2212 55.256 66.2532 55.256C66.2852 55.256 66.3172 55.272 66.3492 55.304C66.6052 55.496 66.7972 55.768 66.9252 56.12C67.0852 56.472 67.1972 56.872 67.2612 57.32C67.3572 57.768 67.4212 58.232 67.4532 58.712C67.4852 59.16 67.5172 59.576 67.5492 59.96C67.6132 60.824 67.6452 61.752 67.6452 62.744C67.6772 63.736 67.6772 64.728 67.6452 65.72V68.6C67.6452 69.528 67.6772 70.36 67.7412 71.096H70.7172C71.6132 71.128 72.6212 71.064 73.7412 70.904C73.6772 69.816 73.6612 68.552 73.6932 67.112C73.7252 65.672 73.7572 64.184 73.7892 62.648C73.8212 61.08 73.8372 59.544 73.8372 58.04C73.8692 56.504 73.8532 55.096 73.7892 53.816C73.7572 52.536 73.6452 51.448 73.4532 50.552C73.2932 49.624 73.0532 49.016 72.7332 48.728C72.0612 48.152 71.3092 47.752 70.4772 47.528C69.6452 47.304 68.7812 47.208 67.8852 47.24C67.0212 47.272 66.1732 47.432 65.3412 47.72C64.5092 48.008 63.7572 48.392 63.0852 48.872C62.9252 49 62.7172 49.128 62.4612 49.256C62.2372 49.384 62.0452 49.496 61.8852 49.592L61.5972 57.8Z" fill="#FDA6A6"/>
<path d="M123.698 54.152C123.57 53.608 123.394 52.872 123.17 51.944C122.946 51.016 122.706 49.992 122.45 48.872C122.194 47.752 121.922 46.584 121.634 45.368C121.378 44.152 121.122 43.016 120.866 41.96C120.642 40.872 120.418 39.912 120.194 39.08C120.002 38.216 119.858 37.576 119.762 37.16C118.706 37.256 117.842 37.32 117.17 37.352H114.578C114.322 37.352 114.082 37.368 113.858 37.4L117.247 47.5195C117.27 47.5781 117.292 47.6449 117.314 47.72C117.506 48.264 117.714 49.304 117.938 50.84C118.194 52.376 118.482 54.52 118.802 57.272L118.562 62.984C118.786 63.464 118.994 64.04 119.186 64.712C119.378 65.384 119.554 66.088 119.714 66.824C119.906 67.56 120.082 68.28 120.242 68.984C120.434 69.688 120.626 70.296 120.818 70.808H120.866C121.89 71.032 122.978 71.16 124.13 71.192C125.282 71.256 126.338 71.192 127.298 71V70.952L123.698 54.152Z" fill="#FDA6A6"/>
<path d="M113.858 37.4C113.09 39.96 112.386 42.536 111.746 45.128C111.106 47.72 110.514 50.216 109.97 52.616C109.426 55.016 108.946 57.288 108.53 59.432C108.146 61.544 107.81 63.416 107.522 65.048C107.234 66.68 107.01 68.008 106.85 69.032C106.69 70.056 106.578 70.68 106.514 70.904C106.546 70.936 106.578 70.952 106.61 70.952C108.786 70.92 110.386 70.936 111.41 71C112.434 71.064 113.074 71.064 113.33 71H113.378C113.41 70.968 113.442 70.952 113.474 70.952C113.762 70.408 113.986 69.784 114.146 69.08C114.306 68.376 114.45 67.656 114.578 66.92C114.738 66.152 114.882 65.432 115.01 64.76C115.17 64.056 115.362 63.448 115.586 62.936H116.402C116.626 62.904 116.818 62.888 116.978 62.888H117.602C117.826 62.888 118.146 62.92 118.562 62.984L118.802 57.272C118.194 57.272 117.586 57.288 116.978 57.32C116.37 57.32 115.794 57.304 115.25 57.272C115.474 55.64 115.666 54.12 115.826 52.712C116.018 51.304 116.178 50.136 116.306 49.208C116.466 48.28 116.626 47.672 116.786 47.384C116.952 47.1082 117.105 47.1534 117.247 47.5195L113.858 37.4Z" fill="#FDA6A6"/>
<path d="M152.353 53C152.321 55.336 152.337 57.608 152.401 59.816C152.465 61.992 152.705 64.312 153.121 66.776C153.537 67.768 154.209 68.552 155.137 69.128C156.097 69.704 157.185 70.136 158.401 70.424C159.617 70.712 160.913 70.904 162.289 71C163.665 71.064 164.993 71.064 166.273 71C166.433 70.52 166.529 69.992 166.561 69.416C166.625 68.84 166.641 68.264 166.609 67.688C166.577 67.112 166.529 66.552 166.465 66.008C166.401 65.464 166.337 64.968 166.273 64.52C165.729 64.552 165.089 64.552 164.353 64.52C163.649 64.488 162.945 64.408 162.241 64.28C161.537 64.12 160.881 63.912 160.273 63.656C159.665 63.4 159.201 63.048 158.881 62.6C158.849 61.16 158.833 59.624 158.833 57.992V52.904L152.353 53Z" fill="#FDA6A6"/>
<path d="M168.612 36.392C168.58 37.864 168.596 39.112 168.66 40.136C168.756 41.128 168.804 42.088 168.804 43.016C169.412 42.984 170.068 43 170.772 43.064C171.476 43.096 172.132 43.128 172.74 43.16C173.38 43.16 173.924 43.128 174.372 43.064C174.852 43 175.156 42.872 175.284 42.68C175.284 42.2 175.268 41.656 175.236 41.048C175.236 40.408 175.22 39.8 175.188 39.224C175.188 38.616 175.172 38.072 175.14 37.592V36.536L168.612 36.392Z" fill="#FDA6A6"/>
<path d="M236.463 49.064C236.399 47.24 236.383 45.32 236.415 43.304C236.447 41.288 236.431 39.368 236.367 37.544C235.343 37.544 234.271 37.528 233.151 37.496C232.063 37.432 230.991 37.416 229.935 37.448C229.967 43.048 229.887 48.632 229.695 54.2C229.535 59.736 229.583 65.256 229.839 70.76C230.255 70.856 230.767 70.936 231.375 71C232.015 71.064 232.671 71.096 233.343 71.096C234.015 71.096 234.655 71.064 235.263 71C235.871 70.968 236.399 70.888 236.847 70.76C236.847 69.864 236.831 68.888 236.799 67.832C236.799 66.776 236.783 65.704 236.751 64.616C236.719 63.528 236.687 62.456 236.655 61.4C236.655 60.312 236.671 59.304 236.703 58.376L236.464 49.0738C236.464 49.0738 236.464 49.0704 236.464 49.0683L236.463 49.064Z" fill="#FDA6A6"/>
<path d="M204.326 58.952C204.646 59.016 205.158 59.064 205.862 59.096C206.281 59.1151 206.729 59.1285 207.206 59.1362V55.2231C206.815 55.231 206.479 55.242 206.198 55.256C205.59 55.256 205.142 55.24 204.854 55.208C204.566 55.144 204.406 55.048 204.374 54.92C204.374 54.76 204.406 54.504 204.47 54.152C204.534 53.736 204.63 53.336 204.758 52.952C204.918 52.568 205.142 52.232 205.43 51.944C205.718 51.656 206.102 51.432 206.582 51.272C206.768 51.2099 206.976 51.1599 207.206 51.1219V46.28C205.99 46.312 204.838 46.504 203.75 46.856C202.662 47.176 201.686 47.672 200.822 48.344C199.958 48.984 199.318 49.768 198.902 50.696C198.518 51.752 198.262 52.84 198.134 53.96C198.038 55.048 197.942 56.184 197.846 57.368C197.782 58.68 197.814 59.992 197.942 61.304C198.07 62.616 198.31 63.864 198.662 65.048C199.014 66.2 199.478 67.272 200.054 68.264C200.63 69.224 201.35 70.008 202.214 70.616C202.982 71.064 203.814 71.352 204.71 71.48C205.606 71.48 206.582 71.512 207.638 71.576C208.726 71.64 209.782 71.64 210.806 71.576C211.83 71.512 212.774 71.32 213.638 71C214.502 70.68 215.206 70.136 215.75 69.368C215.974 69.176 216.15 68.84 216.278 68.36C216.438 67.848 216.566 67.256 216.662 66.584C216.758 65.88 216.838 65.128 216.902 64.328C216.966 63.528 217.03 62.712 217.094 61.88C216.742 61.784 216.294 61.736 215.75 61.736C215.206 61.704 214.63 61.704 214.022 61.736C213.446 61.768 212.886 61.8 212.342 61.832C211.798 61.832 211.366 61.816 211.046 61.784C211.11 63.096 210.902 64.088 210.422 64.76C209.974 65.4 209.414 65.784 208.742 65.912C208.07 66.04 207.382 65.928 206.678 65.576C205.974 65.224 205.43 64.68 205.046 63.944C204.694 63.368 204.486 62.776 204.422 62.168C204.39 61.56 204.358 60.776 204.326 59.816V58.952Z" fill="#FDA6A6"/>
<path d="M298.515 61.784C298.163 61.688 297.715 61.64 297.171 61.64C296.627 61.608 296.051 61.608 295.443 61.64C294.835 61.672 294.259 61.704 293.715 61.736C293.171 61.736 292.739 61.72 292.419 61.688C292.323 62.104 292.179 62.584 291.987 63.128C291.827 63.64 291.587 64.008 291.267 64.232C290.883 64.488 290.371 64.664 289.731 64.76C289.091 64.824 288.467 64.792 287.859 64.664C287.251 64.504 286.723 64.216 286.275 63.8C285.859 63.384 285.683 62.808 285.747 62.072C285.811 60.952 285.843 59.88 285.843 58.856C285.843 57.832 285.907 56.824 286.035 55.832C286.131 55.32 286.275 55 286.467 54.872C286.883 54.36 287.427 54.008 288.099 53.816C289.347 53.496 290.355 53.656 291.123 54.296L287.667 46.424C286.899 46.424 286.131 46.472 285.363 46.568C284.627 46.664 283.923 46.84 283.251 47.096C282.611 47.32 282.035 47.608 281.523 47.96C281.043 48.312 280.691 48.728 280.467 49.208C280.371 49.528 280.227 49.992 280.035 50.6C279.843 51.208 279.731 51.688 279.699 52.04C279.507 53.192 279.411 54.344 279.411 55.496C279.539 56.552 279.571 57.72 279.507 59C279.475 60.28 279.491 61.56 279.555 62.84C279.619 64.088 279.811 65.288 280.131 66.44C280.451 67.592 281.043 68.552 281.907 69.32C283.027 70.44 284.403 71.144 286.035 71.432C286.931 71.432 287.923 71.464 289.011 71.528C290.099 71.624 291.155 71.624 292.179 71.528C293.203 71.464 294.147 71.272 295.011 70.952C295.907 70.632 296.627 70.088 297.171 69.32C297.395 69.096 297.571 68.744 297.699 68.264C297.859 67.752 297.987 67.16 298.083 66.488C298.179 65.784 298.259 65.032 298.323 64.232C298.387 63.432 298.451 62.616 298.515 61.784Z" fill="#FDA6A6"/>
<path d="M307.269 57.8C307.333 56.936 307.557 56.296 307.941 55.88C308.325 55.432 308.757 55.144 309.237 55.016C309.717 54.856 310.197 54.824 310.677 54.92C311.189 54.984 311.573 55.08 311.829 55.208C311.861 55.24 311.893 55.256 311.925 55.256C311.957 55.256 311.989 55.272 312.021 55.304C312.277 55.496 312.469 55.768 312.597 56.12C312.757 56.472 312.869 56.872 312.933 57.32C313.029 57.768 313.093 58.232 313.125 58.712C313.157 59.16 313.189 59.576 313.221 59.96C313.285 60.824 313.317 61.752 313.317 62.744C313.349 63.736 313.349 64.728 313.317 65.72V68.6C313.317 69.528 313.349 70.36 313.413 71.096H316.389C317.285 71.128 318.293 71.064 319.413 70.904C319.349 69.816 319.333 68.552 319.365 67.112C319.397 65.672 319.429 64.184 319.461 62.648C319.493 61.08 319.509 59.544 319.509 58.04C319.541 56.504 319.525 55.096 319.461 53.816C319.429 52.536 319.317 51.448 319.125 50.552C318.965 49.624 318.725 49.016 318.405 48.728C317.733 48.152 316.981 47.752 316.149 47.528C315.317 47.304 314.453 47.208 313.557 47.24C312.693 47.272 311.845 47.432 311.013 47.72C310.181 48.008 309.429 48.392 308.757 48.872C308.597 49 308.389 49.128 308.133 49.256C307.909 49.384 307.717 49.496 307.557 49.592L307.269 57.8Z" fill="#FDA6A6"/>
<path d="M350.209 57.8C350.273 56.936 350.497 56.296 350.881 55.88C351.265 55.432 351.697 55.144 352.177 55.016C352.657 54.856 353.137 54.824 353.617 54.92C354.129 54.984 354.513 55.08 354.769 55.208C354.801 55.24 354.833 55.256 354.865 55.256C354.897 55.256 354.929 55.272 354.961 55.304C355.217 55.496 355.409 55.768 355.537 56.12C355.697 56.472 355.809 56.872 355.873 57.32C355.969 57.768 356.033 58.232 356.065 58.712C356.097 59.16 356.129 59.576 356.161 59.96C356.225 60.824 356.257 61.752 356.257 62.744C356.289 63.736 356.289 64.728 356.257 65.72V68.6C356.257 69.528 356.289 70.36 356.353 71.096H359.329C360.225 71.128 361.233 71.064 362.353 70.904C362.289 69.816 362.273 68.552 362.305 67.112C362.337 65.672 362.369 64.184 362.401 62.648C362.433 61.08 362.449 59.544 362.449 58.04C362.481 56.504 362.465 55.096 362.401 53.816C362.369 52.536 362.257 51.448 362.065 50.552C361.905 49.624 361.665 49.016 361.345 48.728C360.673 48.152 359.921 47.752 359.089 47.528C358.257 47.304 357.393 47.208 356.497 47.24C355.633 47.272 354.785 47.432 353.953 47.72C353.121 48.008 352.369 48.392 351.697 48.872C351.537 49 351.329 49.128 351.073 49.256C350.849 49.384 350.657 49.496 350.497 49.592L350.209 57.8Z" fill="#FDA6A6"/>
<path d="M158.689 38.168C158.145 38.232 157.601 38.248 157.057 38.216L155.425 38.12C154.881 38.056 154.353 38.008 153.841 37.976C153.361 37.944 152.913 37.96 152.497 38.024C152.433 38.632 152.385 39.32 152.353 40.088V42.488C152.353 43.32 152.369 44.152 152.401 44.984C152.433 45.784 152.449 46.536 152.449 47.24L158.737 47.288C158.737 46.808 158.721 46.344 158.689 45.896V38.168Z" fill="#F9D26E"/>
<path d="M270.064 38.168C269.52 38.232 268.976 38.248 268.432 38.216L266.8 38.12C266.256 38.056 265.728 38.008 265.216 37.976C264.736 37.944 264.288 37.96 263.872 38.024C263.808 38.632 263.76 39.32 263.728 40.088V42.488C263.728 43.32 263.744 44.152 263.776 44.984C263.808 45.784 263.824 46.536 263.824 47.24L263.728 53C263.696 55.336 263.712 57.608 263.776 59.816C263.84 61.992 264.08 64.312 264.496 66.776C264.912 67.768 265.584 68.552 266.512 69.128C267.472 69.704 268.56 70.136 269.776 70.424C270.992 70.712 272.288 70.904 273.664 71C275.04 71.064 276.368 71.064 277.648 71C277.808 70.52 277.904 69.992 277.936 69.416C278 68.84 278.016 68.264 277.984 67.688C277.952 67.112 277.904 66.552 277.84 66.008C277.776 65.464 277.712 64.968 277.648 64.52C277.104 64.552 276.464 64.552 275.728 64.52C275.024 64.488 274.32 64.408 273.616 64.28C272.912 64.12 272.256 63.912 271.648 63.656C271.04 63.4 270.576 63.048 270.256 62.6C270.224 61.16 270.208 59.624 270.208 57.992V52.904L270.112 47.288C270.112 46.808 270.096 46.344 270.064 45.896V44.6V38.168Z" fill="#F9D26E"/>
<path d="M350.7 49.592C350.668 49.144 350.652 48.744 350.652 48.392C350.684 48.04 350.668 47.592 350.604 47.048C350.604 46.952 350.476 46.904 350.22 46.904C349.964 46.872 349.676 46.872 349.356 46.904C349.036 46.936 348.716 46.984 348.396 47.048C348.076 47.08 347.852 47.096 347.724 47.096C347.34 47.128 347.02 47.16 346.764 47.192H345.324C345.068 47.16 344.748 47.128 344.364 47.096C344.236 51.32 344.204 55.4 344.268 59.336C344.364 63.272 344.412 67.208 344.412 71.144C345.18 71.08 345.82 71.064 346.332 71.096C346.844 71.128 347.308 71.144 347.724 71.144C348.14 71.176 348.54 71.176 348.924 71.144C349.34 71.112 349.82 71.016 350.364 70.856V70.664C350.492 69.608 350.556 68.552 350.556 67.496C350.556 66.44 350.524 65.384 350.46 64.328C350.428 63.24 350.396 62.168 350.364 61.112C350.332 60.024 350.348 58.92 350.412 57.8L350.7 49.592Z" fill="#C5D64B"/>
</g>
<defs>
<clipPath id="clip0_304_5">
<rect width="394" height="111" fill="white"/>
</clipPath>
</defs>
</svg>
