<svg width="407" height="109" viewBox="0 0 407 109" fill="none" xmlns="http://www.w3.org/2000/svg">
<path d="M55.736 37.64C52.44 37.288 49.048 37.128 45.56 37.16C42.104 37.16 38.744 37.176 35.48 37.208C35.48 37.24 35.48 37.256 35.48 37.256C35.512 37.256 35.528 37.272 35.528 37.304C35.464 38.072 35.432 38.872 35.432 39.704C35.432 40.536 35.432 41.32 35.432 42.056C35.464 42.76 35.496 43.368 35.528 43.88C35.592 44.392 35.656 44.712 35.72 44.84C35.912 44.904 36.248 44.936 36.728 44.936C37.208 44.936 37.736 44.952 38.312 44.984C38.888 44.984 39.464 45.016 40.04 45.08C40.616 45.112 41.096 45.224 41.48 45.416L41.528 45.464C41.72 49.944 41.832 53.768 41.864 56.936C41.928 60.104 41.944 62.712 41.912 64.76C41.912 66.776 41.896 68.296 41.864 69.32C41.832 70.344 41.832 70.92 41.864 71.048C42.44 70.952 43.064 70.904 43.736 70.904C44.408 70.904 45.08 70.904 45.752 70.904C46.456 70.904 47.144 70.904 47.816 70.904C48.52 70.872 49.16 70.808 49.736 70.712V70.616C49.672 67.128 49.624 64.104 49.592 61.544C49.56 58.952 49.528 56.744 49.496 54.92C49.464 53.064 49.432 51.56 49.4 50.408C49.4 49.224 49.4 48.28 49.4 47.576C49.4 46.84 49.4 46.312 49.4 45.992C49.432 45.64 49.464 45.384 49.496 45.224C49.496 45.192 49.496 45.176 49.496 45.176C49.528 45.144 49.544 45.112 49.544 45.08H49.688C51.192 45.016 52.392 44.968 53.288 44.936C54.184 44.904 54.936 44.952 55.544 45.08C55.704 43.928 55.784 42.664 55.784 41.288C55.816 39.912 55.8 38.696 55.736 37.64Z" fill="black"/>
<path d="M64.2973 49.592C64.2973 49.464 64.2973 49.064 64.2973 48.392C64.2973 47.72 64.2973 46.92 64.2973 45.992C64.2973 45.064 64.2973 44.072 64.2973 43.016C64.2973 41.928 64.2973 40.92 64.2973 39.992C64.2973 39.032 64.2973 38.216 64.2973 37.544C64.2973 36.84 64.2813 36.408 64.2493 36.248C64.2493 36.152 64.1213 36.104 63.8653 36.104C63.6093 36.072 63.3213 36.072 63.0013 36.104C62.6813 36.136 62.3613 36.184 62.0413 36.248C61.7213 36.28 61.4973 36.296 61.3693 36.296C60.9853 36.328 60.6653 36.36 60.4093 36.392C60.1533 36.392 59.9133 36.392 59.6893 36.392C59.4653 36.392 59.2253 36.392 58.9693 36.392C58.7133 36.36 58.3933 36.328 58.0093 36.296C57.9773 37.704 57.9453 39.368 57.9133 41.288C57.9133 43.176 57.9133 45.192 57.9133 47.336C57.9133 49.48 57.9133 51.688 57.9133 53.96C57.9133 56.2 57.9133 58.376 57.9133 60.488C57.9453 62.6 57.9613 64.584 57.9613 66.44C57.9933 68.264 58.0093 69.832 58.0093 71.144C58.7773 71.08 59.4173 71.064 59.9293 71.096C60.4413 71.128 60.9053 71.144 61.3213 71.144C61.7373 71.176 62.1373 71.176 62.5213 71.144C62.9373 71.112 63.4173 71.016 63.9613 70.856V70.664C64.0893 69.608 64.1533 68.552 64.1533 67.496C64.1533 66.44 64.1213 65.384 64.0573 64.328C64.0253 63.24 63.9933 62.168 63.9613 61.112C63.9293 60.024 63.9453 58.92 64.0093 57.8C64.0733 56.936 64.2973 56.296 64.6813 55.88C65.0653 55.432 65.4972 55.144 65.9772 55.016C66.4572 54.856 66.9373 54.824 67.4173 54.92C67.9293 54.984 68.3133 55.08 68.5693 55.208C68.6013 55.24 68.6333 55.256 68.6653 55.256C68.6973 55.256 68.7293 55.272 68.7613 55.304C69.0173 55.496 69.2092 55.768 69.3372 56.12C69.4972 56.472 69.6093 56.872 69.6733 57.32C69.7693 57.768 69.8332 58.232 69.8652 58.712C69.8972 59.16 69.9292 59.576 69.9613 59.96C70.0252 60.824 70.0573 61.752 70.0573 62.744C70.0893 63.736 70.0893 64.728 70.0573 65.72C70.0573 66.712 70.0573 67.672 70.0573 68.6C70.0573 69.528 70.0893 70.36 70.1533 71.096C71.2733 71.096 72.2652 71.096 73.1292 71.096C74.0252 71.128 75.0333 71.064 76.1533 70.904C76.0893 69.816 76.0733 68.552 76.1053 67.112C76.1373 65.672 76.1693 64.184 76.2013 62.648C76.2333 61.08 76.2493 59.544 76.2493 58.04C76.2813 56.504 76.2653 55.096 76.2013 53.816C76.1693 52.536 76.0573 51.448 75.8652 50.552C75.7052 49.624 75.4653 49.016 75.1453 48.728C74.4733 48.152 73.7213 47.752 72.8893 47.528C72.0573 47.304 71.1933 47.208 70.2973 47.24C69.4333 47.272 68.5853 47.432 67.7533 47.72C66.9213 48.008 66.1693 48.392 65.4973 48.872C65.3373 49 65.1293 49.128 64.8733 49.256C64.6493 49.384 64.4573 49.496 64.2973 49.592Z" fill="black"/>
<path d="M85.2849 58.952C85.6049 59.016 86.1169 59.064 86.8209 59.096C87.5249 59.128 88.3089 59.144 89.1729 59.144C90.0689 59.144 90.9969 59.128 91.9569 59.096C92.9169 59.064 93.8129 59.016 94.6449 58.952C95.5089 58.888 96.2449 58.824 96.8529 58.76C97.4929 58.696 97.9249 58.632 98.1489 58.568C98.2449 57.224 98.2449 55.896 98.1489 54.584C98.0529 53.272 97.7649 52.072 97.2849 50.984C96.8369 49.896 96.1649 48.968 95.2689 48.2C94.3729 47.432 93.1889 46.92 91.7169 46.664C90.5649 46.376 89.3809 46.248 88.1649 46.28C86.9489 46.312 85.7969 46.504 84.7089 46.856C83.6209 47.176 82.6449 47.672 81.7809 48.344C80.9169 48.984 80.2769 49.768 79.8609 50.696C79.4769 51.752 79.2209 52.84 79.0929 53.96C78.9969 55.048 78.9009 56.184 78.8049 57.368C78.7409 58.68 78.7729 59.992 78.9009 61.304C79.0289 62.616 79.2689 63.864 79.6209 65.048C79.9729 66.2 80.4369 67.272 81.0129 68.264C81.5889 69.224 82.3089 70.008 83.1729 70.616C83.9409 71.064 84.7729 71.352 85.6689 71.48C86.5649 71.48 87.5409 71.512 88.5969 71.576C89.6849 71.64 90.7409 71.64 91.7649 71.576C92.7889 71.512 93.7329 71.32 94.5969 71C95.4609 70.68 96.1649 70.136 96.7089 69.368C96.9329 69.176 97.1089 68.84 97.2369 68.36C97.3969 67.848 97.5249 67.256 97.6209 66.584C97.7169 65.88 97.7969 65.128 97.8609 64.328C97.9249 63.528 97.9889 62.712 98.0529 61.88C97.7009 61.784 97.2529 61.736 96.7089 61.736C96.1649 61.704 95.5889 61.704 94.9809 61.736C94.4049 61.768 93.8449 61.8 93.3009 61.832C92.7569 61.832 92.3249 61.816 92.0049 61.784C92.0689 63.096 91.8609 64.088 91.3809 64.76C90.9329 65.4 90.3729 65.784 89.7009 65.912C89.0289 66.04 88.3409 65.928 87.6369 65.576C86.9329 65.224 86.3889 64.68 86.0049 63.944C85.6529 63.368 85.4449 62.776 85.3809 62.168C85.3489 61.56 85.3169 60.776 85.2849 59.816V58.952ZM91.0929 51.512C91.6689 51.8 92.1169 52.232 92.4369 52.808C92.7889 53.384 92.9649 53.992 92.9649 54.632C92.9649 54.888 92.9649 55.064 92.9649 55.16C92.9649 55.224 92.8689 55.272 92.6769 55.304C92.5169 55.304 92.2289 55.288 91.8129 55.256C91.3969 55.224 90.7729 55.208 89.9409 55.208C88.7249 55.208 87.7969 55.224 87.1569 55.256C86.5489 55.256 86.1009 55.24 85.8129 55.208C85.5249 55.144 85.3649 55.048 85.3329 54.92C85.3329 54.76 85.3649 54.504 85.4289 54.152C85.4929 53.736 85.5889 53.336 85.7169 52.952C85.8769 52.568 86.1009 52.232 86.3889 51.944C86.6769 51.656 87.0609 51.432 87.5409 51.272C88.0209 51.112 88.6449 51.032 89.4129 51.032C89.7649 51.032 90.0689 51.08 90.3249 51.176C90.5809 51.24 90.8369 51.352 91.0929 51.512Z" fill="black"/>
<path d="M125.36 54.152C125.232 53.608 125.056 52.872 124.832 51.944C124.608 51.016 124.368 49.992 124.112 48.872C123.856 47.752 123.584 46.584 123.296 45.368C123.04 44.152 122.784 43.016 122.528 41.96C122.304 40.872 122.08 39.912 121.856 39.08C121.664 38.216 121.52 37.576 121.424 37.16C120.368 37.256 119.504 37.32 118.832 37.352C118.192 37.352 117.664 37.352 117.248 37.352C116.832 37.352 116.496 37.352 116.24 37.352C115.984 37.352 115.744 37.368 115.52 37.4C114.752 39.96 114.048 42.536 113.408 45.128C112.768 47.72 112.176 50.216 111.632 52.616C111.088 55.016 110.608 57.288 110.192 59.432C109.808 61.544 109.472 63.416 109.184 65.048C108.896 66.68 108.672 68.008 108.512 69.032C108.352 70.056 108.24 70.68 108.176 70.904C108.208 70.936 108.24 70.952 108.272 70.952C110.448 70.92 112.048 70.936 113.072 71C114.096 71.064 114.736 71.064 114.992 71C115.024 71 115.04 71 115.04 71C115.072 70.968 115.104 70.952 115.136 70.952C115.424 70.408 115.648 69.784 115.808 69.08C115.968 68.376 116.112 67.656 116.24 66.92C116.4 66.152 116.544 65.432 116.672 64.76C116.832 64.056 117.024 63.448 117.248 62.936C117.6 62.936 117.872 62.936 118.064 62.936C118.288 62.904 118.48 62.888 118.64 62.888C118.832 62.888 119.04 62.888 119.264 62.888C119.488 62.888 119.808 62.92 120.224 62.984C120.448 63.464 120.656 64.04 120.848 64.712C121.04 65.384 121.216 66.088 121.376 66.824C121.568 67.56 121.744 68.28 121.904 68.984C122.096 69.688 122.288 70.296 122.48 70.808H122.528C123.552 71.032 124.64 71.16 125.792 71.192C126.944 71.256 128 71.192 128.96 71V70.952L125.36 54.152ZM120.464 57.272C119.856 57.272 119.248 57.288 118.64 57.32C118.032 57.32 117.456 57.304 116.912 57.272C117.136 55.64 117.328 54.12 117.488 52.712C117.68 51.304 117.84 50.136 117.968 49.208C118.128 48.28 118.288 47.672 118.448 47.384C118.64 47.064 118.816 47.176 118.976 47.72C119.168 48.264 119.376 49.304 119.6 50.84C119.856 52.376 120.144 54.52 120.464 57.272Z" fill="black"/>
<path d="M149.005 61.784C148.653 61.688 148.205 61.64 147.661 61.64C147.117 61.608 146.541 61.608 145.933 61.64C145.325 61.672 144.749 61.704 144.205 61.736C143.661 61.736 143.229 61.72 142.909 61.688C142.813 62.104 142.669 62.584 142.477 63.128C142.317 63.64 142.077 64.008 141.757 64.232C141.373 64.488 140.861 64.664 140.221 64.76C139.581 64.824 138.957 64.792 138.349 64.664C137.741 64.504 137.213 64.216 136.765 63.8C136.349 63.384 136.173 62.808 136.237 62.072C136.301 60.952 136.333 59.88 136.333 58.856C136.333 57.832 136.397 56.824 136.525 55.832C136.621 55.32 136.765 55 136.957 54.872C137.373 54.36 137.917 54.008 138.589 53.816C139.837 53.496 140.845 53.656 141.613 54.296C142.381 54.904 142.845 55.768 143.005 56.888C143.421 56.952 143.885 57.016 144.397 57.08C144.941 57.144 145.485 57.192 146.029 57.224C146.605 57.256 147.149 57.272 147.661 57.272C148.205 57.272 148.685 57.224 149.101 57.128C149.069 56.072 149.037 55.096 149.005 54.2C149.005 53.272 148.941 52.44 148.813 51.704C148.685 50.968 148.493 50.328 148.237 49.784C148.013 49.24 147.677 48.808 147.229 48.488C146.557 47.848 145.757 47.368 144.829 47.048C143.901 46.728 142.925 46.536 141.901 46.472C141.229 46.408 140.589 46.408 139.981 46.472C139.405 46.504 138.797 46.488 138.157 46.424C137.389 46.424 136.621 46.472 135.853 46.568C135.117 46.664 134.413 46.84 133.741 47.096C133.101 47.32 132.525 47.608 132.013 47.96C131.533 48.312 131.181 48.728 130.957 49.208C130.861 49.528 130.717 49.992 130.525 50.6C130.333 51.208 130.221 51.688 130.189 52.04C129.997 53.192 129.901 54.344 129.901 55.496C130.029 56.552 130.061 57.72 129.997 59C129.965 60.28 129.981 61.56 130.045 62.84C130.109 64.088 130.301 65.288 130.621 66.44C130.941 67.592 131.533 68.552 132.397 69.32C133.517 70.44 134.893 71.144 136.525 71.432C137.421 71.432 138.413 71.464 139.501 71.528C140.589 71.624 141.645 71.624 142.669 71.528C143.693 71.464 144.637 71.272 145.501 70.952C146.397 70.632 147.117 70.088 147.661 69.32C147.885 69.096 148.061 68.744 148.189 68.264C148.349 67.752 148.477 67.16 148.573 66.488C148.669 65.784 148.749 65.032 148.813 64.232C148.877 63.432 148.941 62.616 149.005 61.784Z" fill="black"/>
<path d="M160.351 38.168C159.807 38.232 159.263 38.248 158.719 38.216C158.175 38.184 157.631 38.152 157.087 38.12C156.543 38.056 156.015 38.008 155.503 37.976C155.023 37.944 154.575 37.96 154.159 38.024C154.095 38.632 154.047 39.32 154.015 40.088C154.015 40.856 154.015 41.656 154.015 42.488C154.015 43.32 154.031 44.152 154.063 44.984C154.095 45.784 154.111 46.536 154.111 47.24C153.599 47.24 153.055 47.24 152.479 47.24C151.935 47.24 151.343 47.224 150.703 47.192L150.559 53.048C151.231 53.048 151.839 53.048 152.383 53.048C152.959 53.048 153.503 53.032 154.015 53C153.983 55.336 153.999 57.608 154.063 59.816C154.127 61.992 154.367 64.312 154.783 66.776C155.199 67.768 155.871 68.552 156.799 69.128C157.759 69.704 158.847 70.136 160.063 70.424C161.279 70.712 162.575 70.904 163.951 71C165.327 71.064 166.655 71.064 167.935 71C168.095 70.52 168.191 69.992 168.223 69.416C168.287 68.84 168.303 68.264 168.271 67.688C168.239 67.112 168.191 66.552 168.127 66.008C168.063 65.464 167.999 64.968 167.935 64.52C167.391 64.552 166.751 64.552 166.015 64.52C165.311 64.488 164.607 64.408 163.903 64.28C163.199 64.12 162.543 63.912 161.935 63.656C161.327 63.4 160.863 63.048 160.543 62.6C160.511 61.16 160.495 59.624 160.495 57.992C160.495 56.328 160.495 54.632 160.495 52.904H167.935C167.871 52.488 167.855 51.992 167.887 51.416C167.951 50.808 167.999 50.216 168.031 49.64C168.063 49.064 168.063 48.536 168.031 48.056C167.999 47.544 167.871 47.16 167.647 46.904C166.015 47 164.639 47.08 163.519 47.144C162.431 47.208 161.391 47.256 160.399 47.288C160.399 46.808 160.383 46.344 160.351 45.896C160.351 45.448 160.351 45.016 160.351 44.6V38.168Z" fill="black"/>
<path d="M176.178 46.856C175.154 46.888 174.274 46.888 173.538 46.856C172.802 46.824 172.226 46.792 171.81 46.76C171.65 46.76 171.41 46.744 171.09 46.712C170.802 46.68 170.594 46.68 170.466 46.712V46.76C170.274 48.648 170.178 50.6 170.178 52.616C170.178 54.6 170.21 56.616 170.274 58.664C170.338 60.712 170.37 62.776 170.37 64.856C170.402 66.936 170.338 68.984 170.178 71C170.402 70.936 170.85 70.92 171.522 70.952C172.194 70.984 172.898 71 173.634 71C174.402 71.032 175.106 71.032 175.746 71C176.386 71 176.786 70.904 176.946 70.712C176.722 66.84 176.658 62.888 176.754 58.856C176.882 54.824 176.962 50.872 176.994 47V46.856H176.178ZM170.274 36.392C170.242 37.864 170.258 39.112 170.322 40.136C170.418 41.128 170.466 42.088 170.466 43.016C171.074 42.984 171.73 43 172.434 43.064C173.138 43.096 173.794 43.128 174.402 43.16C175.042 43.16 175.586 43.128 176.034 43.064C176.514 43 176.818 42.872 176.946 42.68C176.946 42.2 176.93 41.656 176.898 41.048C176.898 40.408 176.882 39.8 176.85 39.224C176.85 38.616 176.834 38.072 176.802 37.592C176.802 37.08 176.802 36.728 176.802 36.536L170.274 36.392Z" fill="black"/>
<path d="M185.731 47.144C184.707 47.016 183.619 47 182.467 47.096C181.347 47.16 180.211 47.128 179.059 47C180.083 50.776 181.011 54.744 181.843 58.904C182.675 63.064 183.411 67.144 184.051 71.144C184.659 71.144 185.347 71.144 186.115 71.144C186.915 71.176 187.715 71.192 188.515 71.192C189.347 71.224 190.147 71.224 190.915 71.192C191.715 71.192 192.435 71.144 193.075 71.048C193.619 69.032 194.115 67 194.563 64.952C195.011 62.872 195.459 60.808 195.907 58.76C196.355 56.712 196.819 54.712 197.299 52.76C197.811 50.776 198.403 48.872 199.075 47.048C198.403 47.016 197.795 47 197.251 47C196.707 47 196.179 47.016 195.667 47.048C195.155 47.08 194.659 47.112 194.179 47.144C193.699 47.176 193.187 47.192 192.643 47.192C192.259 48.152 191.907 49.368 191.587 50.84C191.267 52.312 190.963 53.832 190.675 55.4C190.419 56.968 190.147 58.488 189.859 59.96C189.571 61.4 189.251 62.6 188.899 63.56C188.547 62.6 188.227 61.432 187.939 60.056C187.651 58.648 187.379 57.176 187.123 55.64C186.867 54.104 186.627 52.6 186.403 51.128C186.179 49.624 185.955 48.296 185.731 47.144Z" fill="black"/>
<path d="M205.988 58.952C206.308 59.016 206.82 59.064 207.524 59.096C208.228 59.128 209.012 59.144 209.876 59.144C210.772 59.144 211.7 59.128 212.66 59.096C213.62 59.064 214.516 59.016 215.348 58.952C216.212 58.888 216.948 58.824 217.556 58.76C218.196 58.696 218.628 58.632 218.852 58.568C218.948 57.224 218.948 55.896 218.852 54.584C218.756 53.272 218.468 52.072 217.988 50.984C217.54 49.896 216.868 48.968 215.972 48.2C215.076 47.432 213.892 46.92 212.42 46.664C211.268 46.376 210.084 46.248 208.868 46.28C207.652 46.312 206.5 46.504 205.412 46.856C204.324 47.176 203.348 47.672 202.484 48.344C201.62 48.984 200.98 49.768 200.564 50.696C200.18 51.752 199.924 52.84 199.796 53.96C199.7 55.048 199.604 56.184 199.508 57.368C199.444 58.68 199.476 59.992 199.604 61.304C199.732 62.616 199.972 63.864 200.324 65.048C200.676 66.2 201.14 67.272 201.716 68.264C202.292 69.224 203.012 70.008 203.876 70.616C204.644 71.064 205.476 71.352 206.372 71.48C207.268 71.48 208.244 71.512 209.3 71.576C210.388 71.64 211.444 71.64 212.468 71.576C213.492 71.512 214.436 71.32 215.3 71C216.164 70.68 216.868 70.136 217.412 69.368C217.636 69.176 217.812 68.84 217.94 68.36C218.1 67.848 218.228 67.256 218.324 66.584C218.42 65.88 218.5 65.128 218.564 64.328C218.628 63.528 218.692 62.712 218.756 61.88C218.404 61.784 217.956 61.736 217.412 61.736C216.868 61.704 216.292 61.704 215.684 61.736C215.108 61.768 214.548 61.8 214.004 61.832C213.46 61.832 213.028 61.816 212.708 61.784C212.772 63.096 212.564 64.088 212.084 64.76C211.636 65.4 211.076 65.784 210.404 65.912C209.732 66.04 209.044 65.928 208.34 65.576C207.636 65.224 207.092 64.68 206.708 63.944C206.356 63.368 206.148 62.776 206.084 62.168C206.052 61.56 206.02 60.776 205.988 59.816V58.952ZM211.796 51.512C212.372 51.8 212.82 52.232 213.14 52.808C213.492 53.384 213.668 53.992 213.668 54.632C213.668 54.888 213.668 55.064 213.668 55.16C213.668 55.224 213.572 55.272 213.38 55.304C213.22 55.304 212.932 55.288 212.516 55.256C212.1 55.224 211.476 55.208 210.644 55.208C209.428 55.208 208.5 55.224 207.86 55.256C207.252 55.256 206.804 55.24 206.516 55.208C206.228 55.144 206.068 55.048 206.036 54.92C206.036 54.76 206.068 54.504 206.132 54.152C206.196 53.736 206.292 53.336 206.42 52.952C206.58 52.568 206.804 52.232 207.092 51.944C207.38 51.656 207.764 51.432 208.244 51.272C208.724 51.112 209.348 51.032 210.116 51.032C210.468 51.032 210.772 51.08 211.028 51.176C211.284 51.24 211.54 51.352 211.796 51.512Z" fill="black"/>
<path d="M243.454 53.768C244.03 52.424 244.701 51.08 245.469 49.736C246.237 48.392 247.005 47.048 247.773 45.704C248.573 44.36 249.31 43.016 249.982 41.672C250.686 40.328 251.23 38.984 251.614 37.64C250.59 37.48 249.502 37.432 248.35 37.496C247.198 37.56 246.109 37.56 245.085 37.496C244.413 38.456 243.806 39.416 243.262 40.376C242.75 41.336 242.238 42.296 241.726 43.256C241.246 44.216 240.733 45.16 240.189 46.088C239.645 47.016 239.038 47.912 238.366 48.776C238.302 48.84 238.238 48.92 238.174 49.016C238.142 49.08 238.126 49.096 238.126 49.064C238.062 47.24 238.045 45.32 238.077 43.304C238.109 41.288 238.093 39.368 238.029 37.544C237.005 37.544 235.934 37.528 234.814 37.496C233.726 37.432 232.654 37.416 231.598 37.448C231.63 43.048 231.549 48.632 231.357 54.2C231.197 59.736 231.245 65.256 231.501 70.76C231.917 70.856 232.43 70.936 233.038 71C233.678 71.064 234.334 71.096 235.006 71.096C235.678 71.096 236.318 71.064 236.926 71C237.534 70.968 238.062 70.888 238.51 70.76C238.51 69.864 238.494 68.888 238.462 67.832C238.462 66.776 238.445 65.704 238.413 64.616C238.381 63.528 238.35 62.456 238.318 61.4C238.318 60.312 238.334 59.304 238.366 58.376C238.878 59.272 239.39 60.28 239.902 61.4C240.414 62.52 240.926 63.656 241.438 64.808C241.982 65.96 242.542 67.08 243.118 68.168C243.694 69.224 244.318 70.136 244.99 70.904C246.014 70.936 247.117 70.984 248.301 71.048C249.517 71.112 250.637 71.032 251.661 70.808L243.454 53.768Z" fill="black"/>
<path d="M259.053 46.856C258.029 46.888 257.149 46.888 256.413 46.856C255.677 46.824 255.101 46.792 254.685 46.76C254.525 46.76 254.285 46.744 253.965 46.712C253.677 46.68 253.469 46.68 253.341 46.712V46.76C253.149 48.648 253.053 50.6 253.053 52.616C253.053 54.6 253.085 56.616 253.149 58.664C253.213 60.712 253.245 62.776 253.245 64.856C253.277 66.936 253.213 68.984 253.053 71C253.277 70.936 253.725 70.92 254.397 70.952C255.069 70.984 255.773 71 256.509 71C257.277 71.032 257.981 71.032 258.621 71C259.261 71 259.661 70.904 259.821 70.712C259.597 66.84 259.533 62.888 259.629 58.856C259.757 54.824 259.837 50.872 259.869 47V46.856H259.053ZM253.149 36.392C253.117 37.864 253.133 39.112 253.197 40.136C253.293 41.128 253.341 42.088 253.341 43.016C253.949 42.984 254.605 43 255.309 43.064C256.013 43.096 256.669 43.128 257.277 43.16C257.917 43.16 258.461 43.128 258.909 43.064C259.389 43 259.693 42.872 259.821 42.68C259.821 42.2 259.805 41.656 259.773 41.048C259.773 40.408 259.757 39.8 259.725 39.224C259.725 38.616 259.709 38.072 259.677 37.592C259.677 37.08 259.677 36.728 259.677 36.536L253.149 36.392Z" fill="black"/>
<path d="M271.726 38.168C271.182 38.232 270.638 38.248 270.094 38.216C269.55 38.184 269.006 38.152 268.462 38.12C267.918 38.056 267.39 38.008 266.878 37.976C266.398 37.944 265.95 37.96 265.534 38.024C265.47 38.632 265.422 39.32 265.39 40.088C265.39 40.856 265.39 41.656 265.39 42.488C265.39 43.32 265.406 44.152 265.438 44.984C265.47 45.784 265.486 46.536 265.486 47.24C264.974 47.24 264.43 47.24 263.854 47.24C263.31 47.24 262.718 47.224 262.078 47.192L261.934 53.048C262.606 53.048 263.214 53.048 263.758 53.048C264.334 53.048 264.878 53.032 265.39 53C265.358 55.336 265.374 57.608 265.438 59.816C265.502 61.992 265.742 64.312 266.158 66.776C266.574 67.768 267.246 68.552 268.174 69.128C269.134 69.704 270.222 70.136 271.438 70.424C272.654 70.712 273.95 70.904 275.326 71C276.702 71.064 278.03 71.064 279.31 71C279.47 70.52 279.566 69.992 279.598 69.416C279.662 68.84 279.678 68.264 279.646 67.688C279.614 67.112 279.566 66.552 279.502 66.008C279.438 65.464 279.374 64.968 279.31 64.52C278.766 64.552 278.126 64.552 277.39 64.52C276.686 64.488 275.982 64.408 275.278 64.28C274.574 64.12 273.918 63.912 273.31 63.656C272.702 63.4 272.238 63.048 271.918 62.6C271.886 61.16 271.87 59.624 271.87 57.992C271.87 56.328 271.87 54.632 271.87 52.904H279.31C279.246 52.488 279.23 51.992 279.262 51.416C279.326 50.808 279.374 50.216 279.406 49.64C279.438 49.064 279.438 48.536 279.406 48.056C279.374 47.544 279.246 47.16 279.022 46.904C277.39 47 276.014 47.08 274.894 47.144C273.806 47.208 272.766 47.256 271.774 47.288C271.774 46.808 271.758 46.344 271.726 45.896C271.726 45.448 271.726 45.016 271.726 44.6V38.168Z" fill="black"/>
<path d="M300.177 61.784C299.825 61.688 299.377 61.64 298.833 61.64C298.289 61.608 297.713 61.608 297.105 61.64C296.497 61.672 295.921 61.704 295.377 61.736C294.833 61.736 294.401 61.72 294.081 61.688C293.985 62.104 293.841 62.584 293.649 63.128C293.489 63.64 293.249 64.008 292.929 64.232C292.545 64.488 292.033 64.664 291.393 64.76C290.753 64.824 290.129 64.792 289.521 64.664C288.913 64.504 288.385 64.216 287.937 63.8C287.521 63.384 287.345 62.808 287.409 62.072C287.473 60.952 287.505 59.88 287.505 58.856C287.505 57.832 287.569 56.824 287.697 55.832C287.793 55.32 287.937 55 288.129 54.872C288.545 54.36 289.089 54.008 289.761 53.816C291.009 53.496 292.017 53.656 292.785 54.296C293.553 54.904 294.017 55.768 294.177 56.888C294.593 56.952 295.057 57.016 295.569 57.08C296.113 57.144 296.657 57.192 297.201 57.224C297.777 57.256 298.321 57.272 298.833 57.272C299.377 57.272 299.857 57.224 300.273 57.128C300.241 56.072 300.209 55.096 300.177 54.2C300.177 53.272 300.113 52.44 299.985 51.704C299.857 50.968 299.665 50.328 299.409 49.784C299.185 49.24 298.849 48.808 298.401 48.488C297.729 47.848 296.929 47.368 296.001 47.048C295.073 46.728 294.097 46.536 293.073 46.472C292.401 46.408 291.761 46.408 291.153 46.472C290.577 46.504 289.969 46.488 289.329 46.424C288.561 46.424 287.793 46.472 287.025 46.568C286.289 46.664 285.585 46.84 284.913 47.096C284.273 47.32 283.697 47.608 283.185 47.96C282.705 48.312 282.353 48.728 282.129 49.208C282.033 49.528 281.889 49.992 281.697 50.6C281.505 51.208 281.393 51.688 281.361 52.04C281.169 53.192 281.073 54.344 281.073 55.496C281.201 56.552 281.233 57.72 281.169 59C281.137 60.28 281.153 61.56 281.217 62.84C281.281 64.088 281.473 65.288 281.793 66.44C282.113 67.592 282.705 68.552 283.569 69.32C284.689 70.44 286.065 71.144 287.697 71.432C288.593 71.432 289.585 71.464 290.673 71.528C291.761 71.624 292.817 71.624 293.841 71.528C294.865 71.464 295.809 71.272 296.673 70.952C297.569 70.632 298.289 70.088 298.833 69.32C299.057 69.096 299.233 68.744 299.361 68.264C299.521 67.752 299.649 67.16 299.745 66.488C299.841 65.784 299.921 65.032 299.985 64.232C300.049 63.432 300.113 62.616 300.177 61.784Z" fill="black"/>
<path d="M309.219 49.592C309.219 49.464 309.219 49.064 309.219 48.392C309.219 47.72 309.219 46.92 309.219 45.992C309.219 45.064 309.219 44.072 309.219 43.016C309.219 41.928 309.219 40.92 309.219 39.992C309.219 39.032 309.219 38.216 309.219 37.544C309.219 36.84 309.203 36.408 309.171 36.248C309.171 36.152 309.043 36.104 308.787 36.104C308.531 36.072 308.243 36.072 307.923 36.104C307.603 36.136 307.283 36.184 306.963 36.248C306.643 36.28 306.419 36.296 306.291 36.296C305.907 36.328 305.587 36.36 305.331 36.392C305.075 36.392 304.835 36.392 304.611 36.392C304.387 36.392 304.147 36.392 303.891 36.392C303.635 36.36 303.315 36.328 302.931 36.296C302.899 37.704 302.867 39.368 302.835 41.288C302.835 43.176 302.835 45.192 302.835 47.336C302.835 49.48 302.835 51.688 302.835 53.96C302.835 56.2 302.835 58.376 302.835 60.488C302.867 62.6 302.883 64.584 302.883 66.44C302.915 68.264 302.931 69.832 302.931 71.144C303.699 71.08 304.339 71.064 304.851 71.096C305.363 71.128 305.827 71.144 306.243 71.144C306.659 71.176 307.059 71.176 307.443 71.144C307.859 71.112 308.339 71.016 308.883 70.856V70.664C309.011 69.608 309.075 68.552 309.075 67.496C309.075 66.44 309.043 65.384 308.979 64.328C308.947 63.24 308.915 62.168 308.883 61.112C308.851 60.024 308.867 58.92 308.931 57.8C308.995 56.936 309.219 56.296 309.603 55.88C309.987 55.432 310.419 55.144 310.899 55.016C311.379 54.856 311.859 54.824 312.339 54.92C312.851 54.984 313.235 55.08 313.491 55.208C313.523 55.24 313.555 55.256 313.587 55.256C313.619 55.256 313.651 55.272 313.683 55.304C313.939 55.496 314.131 55.768 314.259 56.12C314.419 56.472 314.531 56.872 314.595 57.32C314.691 57.768 314.755 58.232 314.787 58.712C314.819 59.16 314.851 59.576 314.883 59.96C314.947 60.824 314.979 61.752 314.979 62.744C315.011 63.736 315.011 64.728 314.979 65.72C314.979 66.712 314.979 67.672 314.979 68.6C314.979 69.528 315.011 70.36 315.075 71.096C316.195 71.096 317.187 71.096 318.051 71.096C318.947 71.128 319.955 71.064 321.075 70.904C321.011 69.816 320.995 68.552 321.027 67.112C321.059 65.672 321.091 64.184 321.123 62.648C321.155 61.08 321.171 59.544 321.171 58.04C321.203 56.504 321.187 55.096 321.123 53.816C321.091 52.536 320.979 51.448 320.787 50.552C320.627 49.624 320.387 49.016 320.067 48.728C319.395 48.152 318.643 47.752 317.811 47.528C316.979 47.304 316.115 47.208 315.219 47.24C314.355 47.272 313.507 47.432 312.675 47.72C311.843 48.008 311.091 48.392 310.419 48.872C310.259 49 310.051 49.128 309.795 49.256C309.571 49.384 309.379 49.496 309.219 49.592Z" fill="black"/>
<path d="M330.207 58.952C330.527 59.016 331.039 59.064 331.743 59.096C332.447 59.128 333.231 59.144 334.095 59.144C334.991 59.144 335.919 59.128 336.879 59.096C337.839 59.064 338.735 59.016 339.567 58.952C340.431 58.888 341.167 58.824 341.775 58.76C342.415 58.696 342.847 58.632 343.071 58.568C343.167 57.224 343.167 55.896 343.071 54.584C342.975 53.272 342.687 52.072 342.207 50.984C341.759 49.896 341.087 48.968 340.191 48.2C339.295 47.432 338.111 46.92 336.639 46.664C335.487 46.376 334.303 46.248 333.087 46.28C331.871 46.312 330.719 46.504 329.631 46.856C328.543 47.176 327.567 47.672 326.703 48.344C325.839 48.984 325.199 49.768 324.783 50.696C324.399 51.752 324.143 52.84 324.015 53.96C323.919 55.048 323.823 56.184 323.727 57.368C323.663 58.68 323.695 59.992 323.823 61.304C323.951 62.616 324.191 63.864 324.543 65.048C324.895 66.2 325.359 67.272 325.935 68.264C326.511 69.224 327.231 70.008 328.095 70.616C328.863 71.064 329.695 71.352 330.591 71.48C331.487 71.48 332.463 71.512 333.519 71.576C334.607 71.64 335.663 71.64 336.687 71.576C337.711 71.512 338.655 71.32 339.519 71C340.383 70.68 341.087 70.136 341.631 69.368C341.855 69.176 342.031 68.84 342.159 68.36C342.319 67.848 342.447 67.256 342.543 66.584C342.639 65.88 342.719 65.128 342.783 64.328C342.847 63.528 342.911 62.712 342.975 61.88C342.623 61.784 342.175 61.736 341.631 61.736C341.087 61.704 340.511 61.704 339.903 61.736C339.327 61.768 338.767 61.8 338.223 61.832C337.679 61.832 337.247 61.816 336.927 61.784C336.991 63.096 336.783 64.088 336.303 64.76C335.855 65.4 335.295 65.784 334.623 65.912C333.951 66.04 333.263 65.928 332.559 65.576C331.855 65.224 331.311 64.68 330.927 63.944C330.575 63.368 330.367 62.776 330.303 62.168C330.271 61.56 330.239 60.776 330.207 59.816V58.952ZM336.015 51.512C336.591 51.8 337.039 52.232 337.359 52.808C337.711 53.384 337.887 53.992 337.887 54.632C337.887 54.888 337.887 55.064 337.887 55.16C337.887 55.224 337.791 55.272 337.599 55.304C337.439 55.304 337.151 55.288 336.735 55.256C336.319 55.224 335.695 55.208 334.863 55.208C333.647 55.208 332.719 55.224 332.079 55.256C331.471 55.256 331.023 55.24 330.735 55.208C330.447 55.144 330.287 55.048 330.255 54.92C330.255 54.76 330.287 54.504 330.351 54.152C330.415 53.736 330.511 53.336 330.639 52.952C330.799 52.568 331.023 52.232 331.311 51.944C331.599 51.656 331.983 51.432 332.463 51.272C332.943 51.112 333.567 51.032 334.335 51.032C334.687 51.032 334.991 51.08 335.247 51.176C335.503 51.24 335.759 51.352 336.015 51.512Z" fill="black"/>
<path d="M352.159 49.592C352.127 49.144 352.111 48.744 352.111 48.392C352.143 48.04 352.127 47.592 352.063 47.048C352.063 46.952 351.935 46.904 351.679 46.904C351.423 46.872 351.135 46.872 350.815 46.904C350.495 46.936 350.175 46.984 349.855 47.048C349.535 47.08 349.311 47.096 349.183 47.096C348.799 47.128 348.479 47.16 348.223 47.192C347.967 47.192 347.727 47.192 347.503 47.192C347.279 47.192 347.039 47.192 346.783 47.192C346.527 47.16 346.207 47.128 345.823 47.096C345.695 51.32 345.663 55.4 345.727 59.336C345.823 63.272 345.871 67.208 345.871 71.144C346.639 71.08 347.279 71.064 347.791 71.096C348.303 71.128 348.767 71.144 349.183 71.144C349.599 71.176 349.999 71.176 350.383 71.144C350.799 71.112 351.279 71.016 351.823 70.856V70.664C351.951 69.608 352.015 68.552 352.015 67.496C352.015 66.44 351.983 65.384 351.919 64.328C351.887 63.24 351.855 62.168 351.823 61.112C351.791 60.024 351.807 58.92 351.871 57.8C351.935 56.936 352.159 56.296 352.543 55.88C352.927 55.432 353.359 55.144 353.839 55.016C354.319 54.856 354.799 54.824 355.279 54.92C355.791 54.984 356.175 55.08 356.431 55.208C356.463 55.24 356.495 55.256 356.527 55.256C356.559 55.256 356.591 55.272 356.623 55.304C356.879 55.496 357.071 55.768 357.199 56.12C357.359 56.472 357.471 56.872 357.535 57.32C357.631 57.768 357.695 58.232 357.727 58.712C357.759 59.16 357.791 59.576 357.823 59.96C357.887 60.824 357.919 61.752 357.919 62.744C357.951 63.736 357.951 64.728 357.919 65.72C357.919 66.712 357.919 67.672 357.919 68.6C357.919 69.528 357.951 70.36 358.015 71.096C359.135 71.096 360.127 71.096 360.991 71.096C361.887 71.128 362.895 71.064 364.015 70.904C363.951 69.816 363.935 68.552 363.967 67.112C363.999 65.672 364.031 64.184 364.063 62.648C364.095 61.08 364.111 59.544 364.111 58.04C364.143 56.504 364.127 55.096 364.063 53.816C364.031 52.536 363.919 51.448 363.727 50.552C363.567 49.624 363.327 49.016 363.007 48.728C362.335 48.152 361.583 47.752 360.751 47.528C359.919 47.304 359.055 47.208 358.159 47.24C357.295 47.272 356.447 47.432 355.615 47.72C354.783 48.008 354.031 48.392 353.359 48.872C353.199 49 352.991 49.128 352.735 49.256C352.511 49.384 352.319 49.496 352.159 49.592Z" fill="black"/>
<path d="M56.3746 12.4476C55.3757 11.4494 53.9115 11.5688 52.9343 12.5443L43.2478 22.2327C42.2899 23.1905 41.3388 23.1561 40.5837 22.4009C39.8932 21.7105 40.0555 20.735 40.7325 20.0581L50.7084 10.0081C51.8125 8.90316 51.5553 7.23219 50.6613 6.33915C49.7674 5.44435 48.0982 5.18867 46.9932 6.29122L36.9803 16.3068C36.3033 16.9812 35.2892 17.1074 34.5996 16.4169C33.8454 15.6626 33.8108 14.7115 34.7687 13.7536L44.4553 4.06603C45.4325 3.08966 45.5519 1.6249 44.5528 0.626687C43.5529 -0.373284 42.1595 -0.0444114 41.2076 0.692317C40.2556 1.42729 32.4065 8.16819 28.4893 11.9608C24.574 15.7551 24.6353 19.8539 25.5529 22.3632C26.181 24.0787 25.8598 26.0945 24.4521 27.5021L4.62988 46.6198C4.23217 47.0024 4.00506 47.5322 4.00009 48.0838C3.99502 48.6372 4.21281 49.1687 4.60379 49.5606L7.44116 52.3961C7.83131 52.788 8.36276 53.005 8.91615 52.9999C9.46862 52.9948 9.99748 52.7678 10.3802 52.3708L29.4986 32.5484C30.9055 31.1424 32.9229 30.8195 34.6375 31.4476C37.1467 32.3642 41.2455 32.4256 45.039 28.5103C48.8324 24.594 55.5733 16.7456 56.3091 15.792C57.044 14.8399 57.3728 13.4474 56.3746 12.4476Z" fill="black"/>
<path d="M1.6755 67.8146C-1.41092 73.2248 1.08479 82.2545 10.1522 87.4265C15.3464 90.389 20.9639 89.4555 23.7367 88.5115C26.4489 87.5885 28.3255 86.6674 29.8614 87.5437L54.6039 103.123C55.3485 103.565 56.241 103.691 57.0779 103.47C57.915 103.249 58.6291 102.7 59.0583 101.948L60.2615 99.8389C60.6899 99.0866 60.7994 98.1933 60.5632 97.3587C60.327 96.5269 59.7668 95.8228 59.0066 95.407L33.0022 82.036C31.4671 81.1603 31.3041 79.0766 30.7185 76.2728C30.1214 73.4043 28.0651 68.0938 22.8726 65.1309C13.805 59.958 4.76184 62.4045 1.6755 67.8146Z" fill="black"/>
<path d="M337.86 10.4062C340.226 14.5693 345.207 24.9768 352.095 31.2788C362.784 41.057 366.967 32.8955 374.27 38.9538L388.663 51.3132L393.596 45.5691L393.694 45.6024C393.694 45.6024 393.663 45.5759 393.621 45.5398C392.662 44.7159 381.205 34.8782 369.523 24.8471C357.962 14.9203 346.189 4.81125 344.16 3.06884C339.988 -0.513335 334.174 3.927 337.86 10.4062Z" fill="black"/>
<path d="M340.669 92.4511L346.5 89.0501L356.023 105.376L350.192 108.777L340.669 92.4511Z" fill="black"/>
<path d="M390.812 63.2019L396.643 59.8008L406.166 76.1264L400.335 79.5274L390.812 63.2019Z" fill="black"/>
<path d="M347.375 83.8512L355.537 79.0897L369.142 102.412L360.979 107.173L347.375 83.8512Z" fill="black"/>
<path d="M377.693 66.1656L385.856 61.4041L399.46 84.7263L391.298 89.4878L377.693 66.1656Z" fill="black"/>
<path d="M379.88 76.612L383.281 82.4425L366.955 91.9655L363.554 86.135L379.88 76.612Z" fill="black"/>
</svg>
