<svg width="251" height="180" viewBox="0 0 251 180" fill="none" xmlns="http://www.w3.org/2000/svg">
<path d="M56.736 48.64C53.44 48.288 50.048 48.128 46.56 48.16C43.104 48.16 39.744 48.176 36.48 48.208C36.48 48.24 36.48 48.256 36.48 48.256C36.512 48.256 36.528 48.272 36.528 48.304C36.464 49.072 36.432 49.872 36.432 50.704C36.432 51.536 36.432 52.32 36.432 53.056C36.464 53.76 36.496 54.368 36.528 54.88C36.592 55.392 36.656 55.712 36.72 55.84C36.912 55.904 37.248 55.936 37.728 55.936C38.208 55.936 38.736 55.952 39.312 55.984C39.888 55.984 40.464 56.016 41.04 56.08C41.616 56.112 42.096 56.224 42.48 56.416L42.528 56.464C42.72 60.944 42.832 64.768 42.864 67.936C42.928 71.104 42.944 73.712 42.912 75.76C42.912 77.776 42.896 79.296 42.864 80.32C42.832 81.344 42.832 81.92 42.864 82.048C43.44 81.952 44.064 81.904 44.736 81.904C45.408 81.904 46.08 81.904 46.752 81.904C47.456 81.904 48.144 81.904 48.816 81.904C49.52 81.872 50.16 81.808 50.736 81.712V81.616C50.672 78.128 50.624 75.104 50.592 72.544C50.56 69.952 50.528 67.744 50.496 65.92C50.464 64.064 50.432 62.56 50.4 61.408C50.4 60.224 50.4 59.28 50.4 58.576C50.4 57.84 50.4 57.312 50.4 56.992C50.432 56.64 50.464 56.384 50.496 56.224C50.496 56.192 50.496 56.176 50.496 56.176C50.528 56.144 50.544 56.112 50.544 56.08H50.688C52.192 56.016 53.392 55.968 54.288 55.936C55.184 55.904 55.936 55.952 56.544 56.08C56.704 54.928 56.784 53.664 56.784 52.288C56.816 50.912 56.8 49.696 56.736 48.64Z" fill="black"/>
<path d="M65.2972 60.592C65.2972 60.464 65.2972 60.064 65.2972 59.392C65.2972 58.72 65.2972 57.92 65.2972 56.992C65.2972 56.064 65.2972 55.072 65.2972 54.016C65.2972 52.928 65.2972 51.92 65.2972 50.992C65.2972 50.032 65.2972 49.216 65.2972 48.544C65.2972 47.84 65.2812 47.408 65.2493 47.248C65.2493 47.152 65.1212 47.104 64.8652 47.104C64.6093 47.072 64.3213 47.072 64.0013 47.104C63.6813 47.136 63.3613 47.184 63.0413 47.248C62.7213 47.28 62.4972 47.296 62.3693 47.296C61.9853 47.328 61.6652 47.36 61.4092 47.392C61.1532 47.392 60.9132 47.392 60.6893 47.392C60.4653 47.392 60.2253 47.392 59.9692 47.392C59.7132 47.36 59.3932 47.328 59.0093 47.296C58.9772 48.704 58.9453 50.368 58.9132 52.288C58.9132 54.176 58.9132 56.192 58.9132 58.336C58.9132 60.48 58.9132 62.688 58.9132 64.96C58.9132 67.2 58.9132 69.376 58.9132 71.488C58.9453 73.6 58.9613 75.584 58.9613 77.44C58.9933 79.264 59.0093 80.832 59.0093 82.144C59.7773 82.08 60.4172 82.064 60.9292 82.096C61.4412 82.128 61.9053 82.144 62.3213 82.144C62.7373 82.176 63.1373 82.176 63.5213 82.144C63.9373 82.112 64.4173 82.016 64.9613 81.856V81.664C65.0892 80.608 65.1533 79.552 65.1533 78.496C65.1533 77.44 65.1213 76.384 65.0573 75.328C65.0253 74.24 64.9932 73.168 64.9613 72.112C64.9293 71.024 64.9453 69.92 65.0093 68.8C65.0733 67.936 65.2972 67.296 65.6813 66.88C66.0653 66.432 66.4972 66.144 66.9772 66.016C67.4573 65.856 67.9372 65.824 68.4173 65.92C68.9293 65.984 69.3133 66.08 69.5693 66.208C69.6012 66.24 69.6333 66.256 69.6653 66.256C69.6973 66.256 69.7293 66.272 69.7613 66.304C70.0173 66.496 70.2093 66.768 70.3372 67.12C70.4973 67.472 70.6092 67.872 70.6732 68.32C70.7692 68.768 70.8333 69.232 70.8652 69.712C70.8972 70.16 70.9293 70.576 70.9613 70.96C71.0253 71.824 71.0573 72.752 71.0573 73.744C71.0892 74.736 71.0892 75.728 71.0573 76.72C71.0573 77.712 71.0573 78.672 71.0573 79.6C71.0573 80.528 71.0892 81.36 71.1533 82.096C72.2733 82.096 73.2653 82.096 74.1292 82.096C75.0253 82.128 76.0332 82.064 77.1533 81.904C77.0892 80.816 77.0732 79.552 77.1052 78.112C77.1372 76.672 77.1693 75.184 77.2012 73.648C77.2332 72.08 77.2493 70.544 77.2493 69.04C77.2812 67.504 77.2653 66.096 77.2012 64.816C77.1693 63.536 77.0573 62.448 76.8652 61.552C76.7052 60.624 76.4652 60.016 76.1452 59.728C75.4733 59.152 74.7213 58.752 73.8893 58.528C73.0573 58.304 72.1933 58.208 71.2972 58.24C70.4333 58.272 69.5853 58.432 68.7533 58.72C67.9212 59.008 67.1693 59.392 66.4973 59.872C66.3372 60 66.1292 60.128 65.8733 60.256C65.6493 60.384 65.4572 60.496 65.2972 60.592Z" fill="black"/>
<path d="M86.2849 69.952C86.6049 70.016 87.1169 70.064 87.8209 70.096C88.5249 70.128 89.3089 70.144 90.1729 70.144C91.0689 70.144 91.9969 70.128 92.9569 70.096C93.9169 70.064 94.8129 70.016 95.6449 69.952C96.5089 69.888 97.2449 69.824 97.8529 69.76C98.4929 69.696 98.9249 69.632 99.1489 69.568C99.2449 68.224 99.2449 66.896 99.1489 65.584C99.0529 64.272 98.7649 63.072 98.2849 61.984C97.8369 60.896 97.1649 59.968 96.2689 59.2C95.3729 58.432 94.1889 57.92 92.7169 57.664C91.5649 57.376 90.3809 57.248 89.1649 57.28C87.9489 57.312 86.7969 57.504 85.7089 57.856C84.6209 58.176 83.6449 58.672 82.7809 59.344C81.9169 59.984 81.2769 60.768 80.8609 61.696C80.4769 62.752 80.2209 63.84 80.0929 64.96C79.9969 66.048 79.9009 67.184 79.8049 68.368C79.7409 69.68 79.7729 70.992 79.9009 72.304C80.0289 73.616 80.2689 74.864 80.6209 76.048C80.9729 77.2 81.4369 78.272 82.0129 79.264C82.5889 80.224 83.3089 81.008 84.1729 81.616C84.9409 82.064 85.7729 82.352 86.6689 82.48C87.5649 82.48 88.5409 82.512 89.5969 82.576C90.6849 82.64 91.7409 82.64 92.7649 82.576C93.7889 82.512 94.7329 82.32 95.5969 82C96.4609 81.68 97.1649 81.136 97.7089 80.368C97.9329 80.176 98.1089 79.84 98.2369 79.36C98.3969 78.848 98.5249 78.256 98.6209 77.584C98.7169 76.88 98.7969 76.128 98.8609 75.328C98.9249 74.528 98.9889 73.712 99.0529 72.88C98.7009 72.784 98.2529 72.736 97.7089 72.736C97.1649 72.704 96.5889 72.704 95.9809 72.736C95.4049 72.768 94.8449 72.8 94.3009 72.832C93.7569 72.832 93.3249 72.816 93.0049 72.784C93.0689 74.096 92.8609 75.088 92.3809 75.76C91.9329 76.4 91.3729 76.784 90.7009 76.912C90.0289 77.04 89.3409 76.928 88.6369 76.576C87.9329 76.224 87.3889 75.68 87.0049 74.944C86.6529 74.368 86.4449 73.776 86.3809 73.168C86.3489 72.56 86.3169 71.776 86.2849 70.816V69.952ZM92.0929 62.512C92.6689 62.8 93.1169 63.232 93.4369 63.808C93.7889 64.384 93.9649 64.992 93.9649 65.632C93.9649 65.888 93.9649 66.064 93.9649 66.16C93.9649 66.224 93.8689 66.272 93.6769 66.304C93.5169 66.304 93.2289 66.288 92.8129 66.256C92.3969 66.224 91.7729 66.208 90.9409 66.208C89.7249 66.208 88.7969 66.224 88.1569 66.256C87.5489 66.256 87.1009 66.24 86.8129 66.208C86.5249 66.144 86.3649 66.048 86.3329 65.92C86.3329 65.76 86.3649 65.504 86.4289 65.152C86.4929 64.736 86.5889 64.336 86.7169 63.952C86.8769 63.568 87.1009 63.232 87.3889 62.944C87.6769 62.656 88.0609 62.432 88.5409 62.272C89.0209 62.112 89.6449 62.032 90.4129 62.032C90.7649 62.032 91.0689 62.08 91.3249 62.176C91.5809 62.24 91.8369 62.352 92.0929 62.512Z" fill="black"/>
<path d="M126.36 65.152C126.232 64.608 126.056 63.872 125.832 62.944C125.608 62.016 125.368 60.992 125.112 59.872C124.856 58.752 124.584 57.584 124.296 56.368C124.04 55.152 123.784 54.016 123.528 52.96C123.304 51.872 123.08 50.912 122.856 50.08C122.664 49.216 122.52 48.576 122.424 48.16C121.368 48.256 120.504 48.32 119.832 48.352C119.192 48.352 118.664 48.352 118.248 48.352C117.832 48.352 117.496 48.352 117.24 48.352C116.984 48.352 116.744 48.368 116.52 48.4C115.752 50.96 115.048 53.536 114.408 56.128C113.768 58.72 113.176 61.216 112.632 63.616C112.088 66.016 111.608 68.288 111.192 70.432C110.808 72.544 110.472 74.416 110.184 76.048C109.896 77.68 109.672 79.008 109.512 80.032C109.352 81.056 109.24 81.68 109.176 81.904C109.208 81.936 109.24 81.952 109.272 81.952C111.448 81.92 113.048 81.936 114.072 82C115.096 82.064 115.736 82.064 115.992 82C116.024 82 116.04 82 116.04 82C116.072 81.968 116.104 81.952 116.136 81.952C116.424 81.408 116.648 80.784 116.808 80.08C116.968 79.376 117.112 78.656 117.24 77.92C117.4 77.152 117.544 76.432 117.672 75.76C117.832 75.056 118.024 74.448 118.248 73.936C118.6 73.936 118.872 73.936 119.064 73.936C119.288 73.904 119.48 73.888 119.64 73.888C119.832 73.888 120.04 73.888 120.264 73.888C120.488 73.888 120.808 73.92 121.224 73.984C121.448 74.464 121.656 75.04 121.848 75.712C122.04 76.384 122.216 77.088 122.376 77.824C122.568 78.56 122.744 79.28 122.904 79.984C123.096 80.688 123.288 81.296 123.48 81.808H123.528C124.552 82.032 125.64 82.16 126.792 82.192C127.944 82.256 129 82.192 129.96 82V81.952L126.36 65.152ZM121.464 68.272C120.856 68.272 120.248 68.288 119.64 68.32C119.032 68.32 118.456 68.304 117.912 68.272C118.136 66.64 118.328 65.12 118.488 63.712C118.68 62.304 118.84 61.136 118.968 60.208C119.128 59.28 119.288 58.672 119.448 58.384C119.64 58.064 119.816 58.176 119.976 58.72C120.168 59.264 120.376 60.304 120.6 61.84C120.856 63.376 121.144 65.52 121.464 68.272Z" fill="black"/>
<path d="M150.005 72.784C149.653 72.688 149.205 72.64 148.661 72.64C148.117 72.608 147.541 72.608 146.933 72.64C146.325 72.672 145.749 72.704 145.205 72.736C144.661 72.736 144.229 72.72 143.909 72.688C143.813 73.104 143.669 73.584 143.477 74.128C143.317 74.64 143.077 75.008 142.757 75.232C142.373 75.488 141.861 75.664 141.221 75.76C140.581 75.824 139.957 75.792 139.349 75.664C138.741 75.504 138.213 75.216 137.765 74.8C137.349 74.384 137.173 73.808 137.237 73.072C137.301 71.952 137.333 70.88 137.333 69.856C137.333 68.832 137.397 67.824 137.525 66.832C137.621 66.32 137.765 66 137.957 65.872C138.373 65.36 138.917 65.008 139.589 64.816C140.837 64.496 141.845 64.656 142.613 65.296C143.381 65.904 143.845 66.768 144.005 67.888C144.421 67.952 144.885 68.016 145.397 68.08C145.941 68.144 146.485 68.192 147.029 68.224C147.605 68.256 148.149 68.272 148.661 68.272C149.205 68.272 149.685 68.224 150.101 68.128C150.069 67.072 150.037 66.096 150.005 65.2C150.005 64.272 149.941 63.44 149.813 62.704C149.685 61.968 149.493 61.328 149.237 60.784C149.013 60.24 148.677 59.808 148.229 59.488C147.557 58.848 146.757 58.368 145.829 58.048C144.901 57.728 143.925 57.536 142.901 57.472C142.229 57.408 141.589 57.408 140.981 57.472C140.405 57.504 139.797 57.488 139.157 57.424C138.389 57.424 137.621 57.472 136.853 57.568C136.117 57.664 135.413 57.84 134.741 58.096C134.101 58.32 133.525 58.608 133.013 58.96C132.533 59.312 132.181 59.728 131.957 60.208C131.861 60.528 131.717 60.992 131.525 61.6C131.333 62.208 131.221 62.688 131.189 63.04C130.997 64.192 130.901 65.344 130.901 66.496C131.029 67.552 131.061 68.72 130.997 70C130.965 71.28 130.981 72.56 131.045 73.84C131.109 75.088 131.301 76.288 131.621 77.44C131.941 78.592 132.533 79.552 133.397 80.32C134.517 81.44 135.893 82.144 137.525 82.432C138.421 82.432 139.413 82.464 140.501 82.528C141.589 82.624 142.645 82.624 143.669 82.528C144.693 82.464 145.637 82.272 146.501 81.952C147.397 81.632 148.117 81.088 148.661 80.32C148.885 80.096 149.061 79.744 149.189 79.264C149.349 78.752 149.477 78.16 149.573 77.488C149.669 76.784 149.749 76.032 149.813 75.232C149.877 74.432 149.941 73.616 150.005 72.784Z" fill="black"/>
<path d="M161.351 49.168C160.807 49.232 160.263 49.248 159.719 49.216C159.175 49.184 158.631 49.152 158.087 49.12C157.543 49.056 157.015 49.008 156.503 48.976C156.023 48.944 155.575 48.96 155.159 49.024C155.095 49.632 155.047 50.32 155.015 51.088C155.015 51.856 155.015 52.656 155.015 53.488C155.015 54.32 155.031 55.152 155.063 55.984C155.095 56.784 155.111 57.536 155.111 58.24C154.599 58.24 154.055 58.24 153.479 58.24C152.935 58.24 152.343 58.224 151.703 58.192L151.559 64.048C152.231 64.048 152.839 64.048 153.383 64.048C153.959 64.048 154.503 64.032 155.015 64C154.983 66.336 154.999 68.608 155.063 70.816C155.127 72.992 155.367 75.312 155.783 77.776C156.199 78.768 156.871 79.552 157.799 80.128C158.759 80.704 159.847 81.136 161.063 81.424C162.279 81.712 163.575 81.904 164.951 82C166.327 82.064 167.655 82.064 168.935 82C169.095 81.52 169.191 80.992 169.223 80.416C169.287 79.84 169.303 79.264 169.271 78.688C169.239 78.112 169.191 77.552 169.127 77.008C169.063 76.464 168.999 75.968 168.935 75.52C168.391 75.552 167.751 75.552 167.015 75.52C166.311 75.488 165.607 75.408 164.903 75.28C164.199 75.12 163.543 74.912 162.935 74.656C162.327 74.4 161.863 74.048 161.543 73.6C161.511 72.16 161.495 70.624 161.495 68.992C161.495 67.328 161.495 65.632 161.495 63.904H168.935C168.871 63.488 168.855 62.992 168.887 62.416C168.951 61.808 168.999 61.216 169.031 60.64C169.063 60.064 169.063 59.536 169.031 59.056C168.999 58.544 168.871 58.16 168.647 57.904C167.015 58 165.639 58.08 164.519 58.144C163.431 58.208 162.391 58.256 161.399 58.288C161.399 57.808 161.383 57.344 161.351 56.896C161.351 56.448 161.351 56.016 161.351 55.6V49.168Z" fill="black"/>
<path d="M177.178 57.856C176.154 57.888 175.274 57.888 174.538 57.856C173.802 57.824 173.226 57.792 172.81 57.76C172.65 57.76 172.41 57.744 172.09 57.712C171.802 57.68 171.594 57.68 171.466 57.712V57.76C171.274 59.648 171.178 61.6 171.178 63.616C171.178 65.6 171.21 67.616 171.274 69.664C171.338 71.712 171.37 73.776 171.37 75.856C171.402 77.936 171.338 79.984 171.178 82C171.402 81.936 171.85 81.92 172.522 81.952C173.194 81.984 173.898 82 174.634 82C175.402 82.032 176.106 82.032 176.746 82C177.386 82 177.786 81.904 177.946 81.712C177.722 77.84 177.658 73.888 177.754 69.856C177.882 65.824 177.962 61.872 177.994 58V57.856H177.178ZM171.274 47.392C171.242 48.864 171.258 50.112 171.322 51.136C171.418 52.128 171.466 53.088 171.466 54.016C172.074 53.984 172.73 54 173.434 54.064C174.138 54.096 174.794 54.128 175.402 54.16C176.042 54.16 176.586 54.128 177.034 54.064C177.514 54 177.818 53.872 177.946 53.68C177.946 53.2 177.93 52.656 177.898 52.048C177.898 51.408 177.882 50.8 177.85 50.224C177.85 49.616 177.834 49.072 177.802 48.592C177.802 48.08 177.802 47.728 177.802 47.536L171.274 47.392Z" fill="black"/>
<path d="M186.731 58.144C185.707 58.016 184.619 58 183.467 58.096C182.347 58.16 181.211 58.128 180.059 58C181.083 61.776 182.011 65.744 182.843 69.904C183.675 74.064 184.411 78.144 185.051 82.144C185.659 82.144 186.347 82.144 187.115 82.144C187.915 82.176 188.715 82.192 189.515 82.192C190.347 82.224 191.147 82.224 191.915 82.192C192.715 82.192 193.435 82.144 194.075 82.048C194.619 80.032 195.115 78 195.563 75.952C196.011 73.872 196.459 71.808 196.907 69.76C197.355 67.712 197.819 65.712 198.299 63.76C198.811 61.776 199.403 59.872 200.075 58.048C199.403 58.016 198.795 58 198.251 58C197.707 58 197.179 58.016 196.667 58.048C196.155 58.08 195.659 58.112 195.179 58.144C194.699 58.176 194.187 58.192 193.643 58.192C193.259 59.152 192.907 60.368 192.587 61.84C192.267 63.312 191.963 64.832 191.675 66.4C191.419 67.968 191.147 69.488 190.859 70.96C190.571 72.4 190.251 73.6 189.899 74.56C189.547 73.6 189.227 72.432 188.939 71.056C188.651 69.648 188.379 68.176 188.123 66.64C187.867 65.104 187.627 63.6 187.403 62.128C187.179 60.624 186.955 59.296 186.731 58.144Z" fill="black"/>
<path d="M206.988 69.952C207.308 70.016 207.82 70.064 208.524 70.096C209.228 70.128 210.012 70.144 210.876 70.144C211.772 70.144 212.7 70.128 213.66 70.096C214.62 70.064 215.516 70.016 216.348 69.952C217.212 69.888 217.948 69.824 218.556 69.76C219.196 69.696 219.628 69.632 219.852 69.568C219.948 68.224 219.948 66.896 219.852 65.584C219.756 64.272 219.468 63.072 218.988 61.984C218.54 60.896 217.868 59.968 216.972 59.2C216.076 58.432 214.892 57.92 213.42 57.664C212.268 57.376 211.084 57.248 209.868 57.28C208.652 57.312 207.5 57.504 206.412 57.856C205.324 58.176 204.348 58.672 203.484 59.344C202.62 59.984 201.98 60.768 201.564 61.696C201.18 62.752 200.924 63.84 200.796 64.96C200.7 66.048 200.604 67.184 200.508 68.368C200.444 69.68 200.476 70.992 200.604 72.304C200.732 73.616 200.972 74.864 201.324 76.048C201.676 77.2 202.14 78.272 202.716 79.264C203.292 80.224 204.012 81.008 204.876 81.616C205.644 82.064 206.476 82.352 207.372 82.48C208.268 82.48 209.244 82.512 210.3 82.576C211.388 82.64 212.444 82.64 213.468 82.576C214.492 82.512 215.436 82.32 216.3 82C217.164 81.68 217.868 81.136 218.412 80.368C218.636 80.176 218.812 79.84 218.94 79.36C219.1 78.848 219.228 78.256 219.324 77.584C219.42 76.88 219.5 76.128 219.564 75.328C219.628 74.528 219.692 73.712 219.756 72.88C219.404 72.784 218.956 72.736 218.412 72.736C217.868 72.704 217.292 72.704 216.684 72.736C216.108 72.768 215.548 72.8 215.004 72.832C214.46 72.832 214.028 72.816 213.708 72.784C213.772 74.096 213.564 75.088 213.084 75.76C212.636 76.4 212.076 76.784 211.404 76.912C210.732 77.04 210.044 76.928 209.34 76.576C208.636 76.224 208.092 75.68 207.708 74.944C207.356 74.368 207.148 73.776 207.084 73.168C207.052 72.56 207.02 71.776 206.988 70.816V69.952ZM212.796 62.512C213.372 62.8 213.82 63.232 214.14 63.808C214.492 64.384 214.668 64.992 214.668 65.632C214.668 65.888 214.668 66.064 214.668 66.16C214.668 66.224 214.572 66.272 214.38 66.304C214.22 66.304 213.932 66.288 213.516 66.256C213.1 66.224 212.476 66.208 211.644 66.208C210.428 66.208 209.5 66.224 208.86 66.256C208.252 66.256 207.804 66.24 207.516 66.208C207.228 66.144 207.068 66.048 207.036 65.92C207.036 65.76 207.068 65.504 207.132 65.152C207.196 64.736 207.292 64.336 207.42 63.952C207.58 63.568 207.804 63.232 208.092 62.944C208.38 62.656 208.764 62.432 209.244 62.272C209.724 62.112 210.348 62.032 211.116 62.032C211.468 62.032 211.772 62.08 212.028 62.176C212.284 62.24 212.54 62.352 212.796 62.512Z" fill="black"/>
<path d="M50.016 121.768C50.592 120.424 51.264 119.08 52.032 117.736C52.8 116.392 53.568 115.048 54.336 113.704C55.136 112.36 55.872 111.016 56.544 109.672C57.248 108.328 57.792 106.984 58.176 105.64C57.152 105.48 56.064 105.432 54.912 105.496C53.76 105.56 52.672 105.56 51.648 105.496C50.976 106.456 50.368 107.416 49.824 108.376C49.312 109.336 48.8 110.296 48.288 111.256C47.808 112.216 47.296 113.16 46.752 114.088C46.208 115.016 45.6 115.912 44.928 116.776C44.864 116.84 44.8 116.92 44.736 117.016C44.704 117.08 44.688 117.096 44.688 117.064C44.624 115.24 44.608 113.32 44.64 111.304C44.672 109.288 44.656 107.368 44.592 105.544C43.568 105.544 42.496 105.528 41.376 105.496C40.288 105.432 39.216 105.416 38.16 105.448C38.192 111.048 38.112 116.632 37.92 122.2C37.76 127.736 37.808 133.256 38.064 138.76C38.48 138.856 38.992 138.936 39.6 139C40.24 139.064 40.896 139.096 41.568 139.096C42.24 139.096 42.88 139.064 43.488 139C44.096 138.968 44.624 138.888 45.072 138.76C45.072 137.864 45.056 136.888 45.024 135.832C45.024 134.776 45.008 133.704 44.976 132.616C44.944 131.528 44.912 130.456 44.88 129.4C44.88 128.312 44.896 127.304 44.928 126.376C45.44 127.272 45.952 128.28 46.464 129.4C46.976 130.52 47.488 131.656 48 132.808C48.544 133.96 49.104 135.08 49.68 136.168C50.256 137.224 50.88 138.136 51.552 138.904C52.576 138.936 53.68 138.984 54.864 139.048C56.08 139.112 57.2 139.032 58.224 138.808L50.016 121.768Z" fill="black"/>
<path d="M65.6152 114.856C64.5912 114.888 63.7113 114.888 62.9753 114.856C62.2393 114.824 61.6632 114.792 61.2472 114.76C61.0872 114.76 60.8472 114.744 60.5272 114.712C60.2393 114.68 60.0312 114.68 59.9033 114.712V114.76C59.7113 116.648 59.6152 118.6 59.6152 120.616C59.6152 122.6 59.6473 124.616 59.7113 126.664C59.7752 128.712 59.8073 130.776 59.8073 132.856C59.8393 134.936 59.7752 136.984 59.6152 139C59.8392 138.936 60.2873 138.92 60.9593 138.952C61.6313 138.984 62.3353 139 63.0713 139C63.8393 139.032 64.5433 139.032 65.1833 139C65.8232 139 66.2233 138.904 66.3832 138.712C66.1592 134.84 66.0953 130.888 66.1913 126.856C66.3193 122.824 66.3993 118.872 66.4313 115V114.856H65.6152ZM59.7113 104.392C59.6792 105.864 59.6953 107.112 59.7593 108.136C59.8553 109.128 59.9033 110.088 59.9033 111.016C60.5113 110.984 61.1673 111 61.8713 111.064C62.5752 111.096 63.2312 111.128 63.8392 111.16C64.4792 111.16 65.0233 111.128 65.4713 111.064C65.9513 111 66.2552 110.872 66.3832 110.68C66.3832 110.2 66.3672 109.656 66.3353 109.048C66.3353 108.408 66.3192 107.8 66.2872 107.224C66.2872 106.616 66.2712 106.072 66.2393 105.592C66.2393 105.08 66.2393 104.728 66.2393 104.536L59.7113 104.392Z" fill="black"/>
<path d="M78.2887 106.168C77.7448 106.232 77.2008 106.248 76.6568 106.216C76.1128 106.184 75.5687 106.152 75.0247 106.12C74.4808 106.056 73.9528 106.008 73.4408 105.976C72.9607 105.944 72.5127 105.96 72.0967 106.024C72.0327 106.632 71.9847 107.32 71.9528 108.088C71.9528 108.856 71.9528 109.656 71.9528 110.488C71.9528 111.32 71.9688 112.152 72.0007 112.984C72.0327 113.784 72.0488 114.536 72.0488 115.24C71.5368 115.24 70.9927 115.24 70.4167 115.24C69.8727 115.24 69.2807 115.224 68.6407 115.192L68.4967 121.048C69.1687 121.048 69.7767 121.048 70.3207 121.048C70.8967 121.048 71.4408 121.032 71.9528 121C71.9208 123.336 71.9367 125.608 72.0007 127.816C72.0648 129.992 72.3047 132.312 72.7207 134.776C73.1367 135.768 73.8087 136.552 74.7367 137.128C75.6967 137.704 76.7847 138.136 78.0007 138.424C79.2168 138.712 80.5127 138.904 81.8887 139C83.2647 139.064 84.5928 139.064 85.8727 139C86.0327 138.52 86.1288 137.992 86.1608 137.416C86.2248 136.84 86.2407 136.264 86.2087 135.688C86.1768 135.112 86.1288 134.552 86.0648 134.008C86.0007 133.464 85.9368 132.968 85.8727 132.52C85.3288 132.552 84.6888 132.552 83.9528 132.52C83.2487 132.488 82.5448 132.408 81.8408 132.28C81.1367 132.12 80.4808 131.912 79.8727 131.656C79.2647 131.4 78.8008 131.048 78.4808 130.6C78.4488 129.16 78.4327 127.624 78.4327 125.992C78.4327 124.328 78.4327 122.632 78.4327 120.904H85.8727C85.8087 120.488 85.7928 119.992 85.8248 119.416C85.8888 118.808 85.9368 118.216 85.9688 117.64C86.0007 117.064 86.0007 116.536 85.9688 116.056C85.9368 115.544 85.8087 115.16 85.5847 114.904C83.9527 115 82.5768 115.08 81.4567 115.144C80.3688 115.208 79.3288 115.256 78.3368 115.288C78.3368 114.808 78.3207 114.344 78.2887 113.896C78.2887 113.448 78.2887 113.016 78.2887 112.6V106.168Z" fill="black"/>
<path d="M106.739 129.784C106.387 129.688 105.939 129.64 105.395 129.64C104.851 129.608 104.275 129.608 103.667 129.64C103.059 129.672 102.483 129.704 101.939 129.736C101.395 129.736 100.963 129.72 100.643 129.688C100.547 130.104 100.403 130.584 100.211 131.128C100.051 131.64 99.8112 132.008 99.4912 132.232C99.1072 132.488 98.5953 132.664 97.9553 132.76C97.3153 132.824 96.6913 132.792 96.0833 132.664C95.4753 132.504 94.9473 132.216 94.4993 131.8C94.0833 131.384 93.9072 130.808 93.9713 130.072C94.0353 128.952 94.0673 127.88 94.0673 126.856C94.0673 125.832 94.1313 124.824 94.2593 123.832C94.3553 123.32 94.4993 123 94.6913 122.872C95.1073 122.36 95.6513 122.008 96.3232 121.816C97.5713 121.496 98.5793 121.656 99.3473 122.296C100.115 122.904 100.579 123.768 100.739 124.888C101.155 124.952 101.619 125.016 102.131 125.08C102.675 125.144 103.219 125.192 103.763 125.224C104.339 125.256 104.883 125.272 105.395 125.272C105.939 125.272 106.419 125.224 106.835 125.128C106.803 124.072 106.771 123.096 106.739 122.2C106.739 121.272 106.675 120.44 106.547 119.704C106.419 118.968 106.227 118.328 105.971 117.784C105.747 117.24 105.411 116.808 104.963 116.488C104.291 115.848 103.491 115.368 102.563 115.048C101.635 114.728 100.659 114.536 99.6353 114.472C98.9633 114.408 98.3232 114.408 97.7152 114.472C97.1393 114.504 96.5312 114.488 95.8913 114.424C95.1233 114.424 94.3552 114.472 93.5872 114.568C92.8512 114.664 92.1472 114.84 91.4753 115.096C90.8353 115.32 90.2593 115.608 89.7473 115.96C89.2673 116.312 88.9153 116.728 88.6913 117.208C88.5953 117.528 88.4512 117.992 88.2592 118.6C88.0672 119.208 87.9552 119.688 87.9232 120.04C87.7312 121.192 87.6353 122.344 87.6353 123.496C87.7633 124.552 87.7952 125.72 87.7312 127C87.6992 128.28 87.7152 129.56 87.7793 130.84C87.8433 132.088 88.0352 133.288 88.3552 134.44C88.6752 135.592 89.2673 136.552 90.1312 137.32C91.2513 138.44 92.6273 139.144 94.2593 139.432C95.1553 139.432 96.1473 139.464 97.2353 139.528C98.3232 139.624 99.3792 139.624 100.403 139.528C101.427 139.464 102.371 139.272 103.235 138.952C104.131 138.632 104.851 138.088 105.395 137.32C105.619 137.096 105.795 136.744 105.923 136.264C106.083 135.752 106.211 135.16 106.307 134.488C106.403 133.784 106.483 133.032 106.547 132.232C106.611 131.432 106.675 130.616 106.739 129.784Z" fill="black"/>
<path d="M115.782 117.592C115.782 117.464 115.782 117.064 115.782 116.392C115.782 115.72 115.782 114.92 115.782 113.992C115.782 113.064 115.782 112.072 115.782 111.016C115.782 109.928 115.782 108.92 115.782 107.992C115.782 107.032 115.782 106.216 115.782 105.544C115.782 104.84 115.766 104.408 115.734 104.248C115.734 104.152 115.606 104.104 115.35 104.104C115.094 104.072 114.806 104.072 114.486 104.104C114.166 104.136 113.846 104.184 113.526 104.248C113.206 104.28 112.982 104.296 112.854 104.296C112.47 104.328 112.15 104.36 111.894 104.392C111.638 104.392 111.398 104.392 111.174 104.392C110.95 104.392 110.71 104.392 110.454 104.392C110.198 104.36 109.878 104.328 109.494 104.296C109.462 105.704 109.43 107.368 109.398 109.288C109.398 111.176 109.398 113.192 109.398 115.336C109.398 117.48 109.398 119.688 109.398 121.96C109.398 124.2 109.398 126.376 109.398 128.488C109.43 130.6 109.446 132.584 109.446 134.44C109.478 136.264 109.494 137.832 109.494 139.144C110.262 139.08 110.902 139.064 111.414 139.096C111.926 139.128 112.39 139.144 112.806 139.144C113.222 139.176 113.622 139.176 114.006 139.144C114.422 139.112 114.902 139.016 115.446 138.856V138.664C115.574 137.608 115.638 136.552 115.638 135.496C115.638 134.44 115.606 133.384 115.542 132.328C115.51 131.24 115.478 130.168 115.446 129.112C115.414 128.024 115.43 126.92 115.494 125.8C115.558 124.936 115.782 124.296 116.166 123.88C116.55 123.432 116.982 123.144 117.462 123.016C117.942 122.856 118.422 122.824 118.902 122.92C119.414 122.984 119.798 123.08 120.054 123.208C120.086 123.24 120.118 123.256 120.15 123.256C120.182 123.256 120.214 123.272 120.246 123.304C120.502 123.496 120.694 123.768 120.822 124.12C120.982 124.472 121.094 124.872 121.158 125.32C121.254 125.768 121.318 126.232 121.35 126.712C121.382 127.16 121.414 127.576 121.446 127.96C121.51 128.824 121.542 129.752 121.542 130.744C121.574 131.736 121.574 132.728 121.542 133.72C121.542 134.712 121.542 135.672 121.542 136.6C121.542 137.528 121.574 138.36 121.638 139.096C122.758 139.096 123.75 139.096 124.614 139.096C125.51 139.128 126.518 139.064 127.638 138.904C127.574 137.816 127.558 136.552 127.59 135.112C127.622 133.672 127.654 132.184 127.686 130.648C127.718 129.08 127.734 127.544 127.734 126.04C127.766 124.504 127.75 123.096 127.686 121.816C127.654 120.536 127.542 119.448 127.35 118.552C127.19 117.624 126.95 117.016 126.63 116.728C125.958 116.152 125.206 115.752 124.374 115.528C123.542 115.304 122.678 115.208 121.782 115.24C120.918 115.272 120.07 115.432 119.238 115.72C118.406 116.008 117.654 116.392 116.982 116.872C116.822 117 116.614 117.128 116.358 117.256C116.134 117.384 115.942 117.496 115.782 117.592Z" fill="black"/>
<path d="M136.769 126.952C137.089 127.016 137.601 127.064 138.305 127.096C139.009 127.128 139.793 127.144 140.657 127.144C141.553 127.144 142.481 127.128 143.441 127.096C144.401 127.064 145.297 127.016 146.129 126.952C146.993 126.888 147.729 126.824 148.337 126.76C148.977 126.696 149.409 126.632 149.633 126.568C149.729 125.224 149.729 123.896 149.633 122.584C149.537 121.272 149.249 120.072 148.769 118.984C148.321 117.896 147.649 116.968 146.753 116.2C145.857 115.432 144.673 114.92 143.201 114.664C142.049 114.376 140.865 114.248 139.649 114.28C138.433 114.312 137.281 114.504 136.193 114.856C135.105 115.176 134.129 115.672 133.265 116.344C132.401 116.984 131.761 117.768 131.345 118.696C130.961 119.752 130.705 120.84 130.577 121.96C130.481 123.048 130.385 124.184 130.289 125.368C130.225 126.68 130.257 127.992 130.385 129.304C130.513 130.616 130.753 131.864 131.105 133.048C131.457 134.2 131.921 135.272 132.497 136.264C133.073 137.224 133.793 138.008 134.657 138.616C135.425 139.064 136.257 139.352 137.153 139.48C138.049 139.48 139.025 139.512 140.081 139.576C141.169 139.64 142.225 139.64 143.249 139.576C144.273 139.512 145.217 139.32 146.081 139C146.945 138.68 147.649 138.136 148.193 137.368C148.417 137.176 148.593 136.84 148.721 136.36C148.881 135.848 149.009 135.256 149.105 134.584C149.201 133.88 149.281 133.128 149.345 132.328C149.409 131.528 149.473 130.712 149.537 129.88C149.185 129.784 148.737 129.736 148.193 129.736C147.649 129.704 147.073 129.704 146.465 129.736C145.889 129.768 145.329 129.8 144.785 129.832C144.241 129.832 143.809 129.816 143.489 129.784C143.553 131.096 143.345 132.088 142.865 132.76C142.417 133.4 141.857 133.784 141.185 133.912C140.513 134.04 139.825 133.928 139.121 133.576C138.417 133.224 137.873 132.68 137.489 131.944C137.137 131.368 136.929 130.776 136.865 130.168C136.833 129.56 136.801 128.776 136.769 127.816V126.952ZM142.577 119.512C143.153 119.8 143.601 120.232 143.921 120.808C144.273 121.384 144.449 121.992 144.449 122.632C144.449 122.888 144.449 123.064 144.449 123.16C144.449 123.224 144.353 123.272 144.161 123.304C144.001 123.304 143.713 123.288 143.297 123.256C142.881 123.224 142.257 123.208 141.425 123.208C140.209 123.208 139.281 123.224 138.641 123.256C138.033 123.256 137.585 123.24 137.297 123.208C137.009 123.144 136.849 123.048 136.817 122.92C136.817 122.76 136.849 122.504 136.913 122.152C136.977 121.736 137.073 121.336 137.201 120.952C137.361 120.568 137.585 120.232 137.873 119.944C138.161 119.656 138.545 119.432 139.025 119.272C139.505 119.112 140.129 119.032 140.897 119.032C141.249 119.032 141.553 119.08 141.809 119.176C142.065 119.24 142.321 119.352 142.577 119.512Z" fill="black"/>
<path d="M158.721 117.592C158.689 117.144 158.673 116.744 158.673 116.392C158.705 116.04 158.689 115.592 158.625 115.048C158.625 114.952 158.497 114.904 158.241 114.904C157.985 114.872 157.697 114.872 157.377 114.904C157.057 114.936 156.737 114.984 156.417 115.048C156.097 115.08 155.873 115.096 155.745 115.096C155.361 115.128 155.041 115.16 154.785 115.192C154.529 115.192 154.289 115.192 154.065 115.192C153.841 115.192 153.601 115.192 153.345 115.192C153.089 115.16 152.769 115.128 152.385 115.096C152.257 119.32 152.225 123.4 152.289 127.336C152.385 131.272 152.433 135.208 152.433 139.144C153.201 139.08 153.841 139.064 154.353 139.096C154.865 139.128 155.329 139.144 155.745 139.144C156.161 139.176 156.561 139.176 156.945 139.144C157.361 139.112 157.841 139.016 158.385 138.856V138.664C158.513 137.608 158.577 136.552 158.577 135.496C158.577 134.44 158.545 133.384 158.481 132.328C158.449 131.24 158.417 130.168 158.385 129.112C158.353 128.024 158.369 126.92 158.433 125.8C158.497 124.936 158.721 124.296 159.105 123.88C159.489 123.432 159.921 123.144 160.401 123.016C160.881 122.856 161.361 122.824 161.841 122.92C162.353 122.984 162.737 123.08 162.993 123.208C163.025 123.24 163.057 123.256 163.089 123.256C163.121 123.256 163.153 123.272 163.185 123.304C163.441 123.496 163.633 123.768 163.761 124.12C163.921 124.472 164.033 124.872 164.097 125.32C164.193 125.768 164.257 126.232 164.289 126.712C164.321 127.16 164.353 127.576 164.385 127.96C164.449 128.824 164.481 129.752 164.481 130.744C164.513 131.736 164.513 132.728 164.481 133.72C164.481 134.712 164.481 135.672 164.481 136.6C164.481 137.528 164.513 138.36 164.577 139.096C165.697 139.096 166.689 139.096 167.553 139.096C168.449 139.128 169.457 139.064 170.577 138.904C170.513 137.816 170.497 136.552 170.529 135.112C170.561 133.672 170.593 132.184 170.625 130.648C170.657 129.08 170.673 127.544 170.673 126.04C170.705 124.504 170.689 123.096 170.625 121.816C170.593 120.536 170.481 119.448 170.289 118.552C170.129 117.624 169.889 117.016 169.569 116.728C168.897 116.152 168.145 115.752 167.313 115.528C166.481 115.304 165.617 115.208 164.721 115.24C163.857 115.272 163.009 115.432 162.177 115.72C161.345 116.008 160.593 116.392 159.921 116.872C159.761 117 159.553 117.128 159.297 117.256C159.073 117.384 158.881 117.496 158.721 117.592Z" fill="black"/>
<path d="M52.3746 14.4476C51.3757 13.4494 49.9115 13.5688 48.9343 14.5443L39.2478 24.2327C38.2899 25.1905 37.3388 25.1561 36.5837 24.4009C35.8932 23.7106 36.0555 22.735 36.7325 22.0581L46.7084 12.0081C47.8125 10.9032 47.5553 9.23219 46.6613 8.33915C45.7674 7.44435 44.0982 7.18867 42.9932 8.29122L32.9803 18.3068C32.3033 18.9812 31.2892 19.1074 30.5996 18.4169C29.8454 17.6626 29.8109 16.7115 30.7687 15.7536L40.4553 6.06603C41.4325 5.08966 41.5519 3.6249 40.5528 2.62669C39.5529 1.62672 38.1595 1.95559 37.2076 2.69232C36.2556 3.42729 28.4065 10.1682 24.4893 13.9608C20.574 17.7551 20.6353 21.8539 21.5529 24.3632C22.181 26.0787 21.8598 28.0945 20.4521 29.5021L0.629876 48.6198C0.232169 49.0024 0.00505541 49.5322 8.6653e-05 50.0838C-0.00498562 50.6372 0.212811 51.1687 0.60379 51.5606L3.44116 54.3961C3.83131 54.788 4.36276 55.005 4.91615 54.9999C5.46861 54.9948 5.99748 54.7678 6.38017 54.3708L25.4986 34.5484C26.9055 33.1424 28.9229 32.8195 30.6375 33.4476C33.1467 34.3642 37.2454 34.4256 41.039 30.5103C44.8324 26.594 51.5733 18.7456 52.3091 17.792C53.044 16.8399 53.3728 15.4474 52.3746 14.4476Z" fill="black"/>
<path d="M3.67549 141.815C0.589077 147.225 3.08478 156.254 12.1522 161.426C17.3464 164.389 22.9639 163.455 25.7367 162.512C28.4489 161.588 30.3255 160.667 31.8614 161.544L56.6039 177.123C57.3485 177.565 58.241 177.691 59.0779 177.47C59.915 177.249 60.6291 176.7 61.0583 175.948L62.2615 173.839C62.6899 173.087 62.7994 172.193 62.5632 171.359C62.327 170.527 61.7667 169.823 61.0066 169.407L35.0022 156.036C33.4671 155.16 33.3041 153.077 32.7185 150.273C32.1214 147.404 30.0651 142.094 24.8726 139.131C15.805 133.958 6.76184 136.404 3.67549 141.815Z" fill="black"/>
<path d="M194.86 9.40617C197.226 13.5693 202.207 23.9768 209.095 30.2788C219.784 40.057 223.967 31.8955 231.27 37.9538L245.663 50.3132L250.596 44.5691L250.694 44.6024C250.694 44.6024 250.663 44.5759 250.621 44.5398C249.662 43.7159 238.205 33.8782 226.523 23.8471C214.962 13.9203 203.189 3.81125 201.16 2.06884C196.988 -1.51333 191.174 2.92701 194.86 9.40617Z" fill="black"/>
<path d="M186.627 165.109L191.765 160.731L204.022 175.117L198.884 179.495L186.627 165.109Z" fill="black"/>
<path d="M230.813 127.46L235.951 123.083L248.208 137.469L243.07 141.847L230.813 127.46Z" fill="black"/>
<path d="M191.707 155.459L198.9 149.33L216.411 169.882L209.218 176.011L191.707 155.459Z" fill="black"/>
<path d="M218.424 132.695L225.617 126.567L243.128 147.118L235.935 153.247L218.424 132.695Z" fill="black"/>
<path d="M222.422 142.591L226.799 147.729L212.413 159.986L208.036 154.849L222.422 142.591Z" fill="black"/>
</svg>
