<!--?xml version="1.0" encoding="utf-8"?-->
<!-- Generator: Adobe Illustrator 22.1.0, SVG Export Plug-In . SVG Version: 6.00 Build 0)  -->
<svg version="1.1" id="_x34_" xmlns="http://www.w3.org/2000/svg" xmlns:xlink="http://www.w3.org/1999/xlink" x="0px" y="0px" viewBox="0 0 800 354.1" style="enable-background:new 0 0 800 354.1;" xml:space="preserve">
<style type="text/css">
	.st0{fill:#AB8C36;}
</style>
<g>
	<path class="st0" d="M34.6,352.4v-3.3c0-15.1-12.2-27.3-27.3-27.3l0,0H4V32.4h3.3c15.1,0,27.3-12.2,27.3-27.3l0,0V1.8h727.6V5V1.8
		h3.3V5c0,15.1,12.2,27.3,27.3,27.3l0,0h3.3v289.4h-3.3c-15.1,0-27.3,12.2-27.3,27.3l0,0v3.3L34.6,352.4L34.6,352.4z M759.1,345.8
		c1.5-16.1,14.3-28.9,30.4-30.4l0,0V38.7c-16.1-1.5-28.9-14.3-30.4-30.4l0,0H40.9c-1.5,16.1-14.3,28.9-30.4,30.4l0,0v276.7
		c16.1,1.5,28.9,14.3,30.4,30.4l0,0L759.1,345.8L759.1,345.8z" style="fill: rgb(117, 77, 17);"></path>
	<path class="st0" d="M15.9,340V14.2h768.2v324.6v1.2H15.9L15.9,340z M782.9,338.7v-1.2V338.7L782.9,338.7z M18.4,337.5h763.3V16.6
		H18.4V337.5L18.4,337.5z" style="fill: rgb(117, 77, 17);"></path>
</g>
</svg>
