<!--?xml version="1.0" encoding="utf-8"?-->
<!-- Generator: Adobe Illustrator 22.1.0, SVG Export Plug-In . SVG Version: 6.00 Build 0)  -->
<svg version="1.1" id="_x32_" xmlns="http://www.w3.org/2000/svg" xmlns:xlink="http://www.w3.org/1999/xlink" x="0px" y="0px" viewBox="0 0 800 520" style="enable-background:new 0 0 800 520;" xml:space="preserve">
<style type="text/css">
	.st0{fill:#FFC05F;}
	.st1{fill:#FF901F;}
	.st2{fill:#FFA400;}
	.st3{fill:#FFFFFF;}
</style>
<g>
	<path class="st0" d="M4,517.4V109h81.7c39.3,0,76.6-20.3,119.8-43.9C259.2,35.8,320.2,2.6,400,2.6c79.8,0,140.8,33.2,194.6,62.6
		c43.2,23.5,80.5,43.9,119.8,43.9H796v408.4L4,517.4L4,517.4z"></path>
	<polygon class="st1" points="796,109 796,517.4 771.2,492.6 760.5,306.1 771.2,133.8 	"></polygon>
	<polygon class="st0" points="4,109 4,517.4 28.8,492.6 39.5,306.1 28.8,133.8 	"></polygon>
	<polygon class="st1" points="28.8,492.6 4,517.4 796,517.4 771.2,492.6 402.2,466.2 	"></polygon>
	<path class="st2" d="M771.2,492.6V133.8h-56.9c-99,0-178.2-106.4-314.3-106.4c-136.1,0-215.3,106.4-314.3,106.4H28.8v358.9
		L771.2,492.6L771.2,492.6z"></path>
	<path class="st3" d="M47.7,473.7V152.8h37.9c50.4,0,94.3-23.9,140.7-49.2C278,75.4,331.4,46.3,400,46.3c68.6,0,122,29.1,173.6,57.2
		c46.4,25.3,90.3,49.2,140.7,49.2h37.9v320.9L47.7,473.7L47.7,473.7z"></path>
	<path class="st2" d="M57.6,463.8V162.7h28c52.9,0,97.9-24.5,145.4-50.4c50.5-27.5,102.8-56,168.9-56c66.1,0,118.4,28.5,168.9,56
		c47.6,25.9,92.5,50.4,145.4,50.4h28v301.1H57.6z"></path>
	<path class="st2" d="M66.7,454.7v-283h19c55.2,0,101.2-25,149.8-51.5c25-13.6,50.9-27.8,78.1-38.1c29.8-11.3,58.1-16.8,86.5-16.8
		c28.4,0,56.7,5.5,86.5,16.8c27.2,10.3,53.1,24.4,78.1,38.1c48.6,26.5,94.5,51.5,149.8,51.5h19v283H66.7z"></path>
</g>
</svg>
