<!--?xml version="1.0" encoding="utf-8"?-->
<!-- Generator: Adobe Illustrator 18.1.1, SVG Export Plug-In . SVG Version: 6.00 Build 0)  -->

<svg version="1.1" id="_x32_" xmlns="http://www.w3.org/2000/svg" xmlns:xlink="http://www.w3.org/1999/xlink" x="0px" y="0px" viewBox="0 0 512 512" style="width: 256px; height: 256px; opacity: 1;" xml:space="preserve">
<style type="text/css">
	.st0{fill:#4B4B4B;}
</style>
<g>
	<path class="st0" d="M505.958,120.25c-9.65-9.643-23.794-8.489-33.234,0.934l-93.576,93.593c-9.253,9.253-18.441,8.92-25.736,1.625
		c-6.67-6.669-5.102-16.093,1.438-22.632l96.371-97.086c10.666-10.674,8.181-26.816-0.455-35.443
		c-8.636-8.644-24.761-11.114-35.436-0.463l-96.728,96.753c-6.54,6.515-16.337,7.734-22.998,1.064
		c-7.286-7.287-7.62-16.475,1.633-25.728l93.576-93.585c9.44-9.432,10.594-23.582,0.942-33.225
		c-9.659-9.66-23.12-6.483-32.316,0.634c-9.196,7.1-85.022,72.219-122.863,108.857c-37.823,36.654-37.231,76.249-28.367,100.49
		c6.068,16.572,2.965,36.045-10.634,49.643L6.085,450.363c-3.842,3.696-6.036,8.814-6.084,14.143
		c-0.049,5.346,2.055,10.48,5.832,14.266l27.41,27.392c3.769,3.786,8.903,5.882,14.249,5.833c5.337-0.049,10.446-2.242,14.143-6.077
		L246.326,314.43c13.591-13.583,33.08-16.702,49.644-10.634c24.24,8.854,63.835,9.447,100.482-28.376
		c36.646-37.832,101.765-113.65,108.873-122.862C512.425,143.361,515.601,129.909,505.958,120.25z" style="fill: rgb(255, 255, 255);"></path>
</g>
</svg>
