<?xml version="1.0" encoding="utf-8"?>
<!-- Generator: Adobe Illustrator 19.0.0, SVG Export Plug-In . SVG Version: 6.00 Build 0)  -->
<svg version="1.1" id="レイヤー_1" xmlns="http://www.w3.org/2000/svg" xmlns:xlink="http://www.w3.org/1999/xlink" x="0px"
	 y="0px" viewBox="0 0 318.9 321.1" style="enable-background:new 0 0 318.9 321.1;" xml:space="preserve">
<style type="text/css">
	.st0{clip-path:url(#SVGID_2_);fill:#06C755;}
	.st1{clip-path:url(#SVGID_2_);fill:#FFFFFF;}
</style>
<g>
	<defs>
		<rect id="SVGID_1_" x="-808.5" y="-446.3" width="1937" height="1217"/>
	</defs>
	<clipPath id="SVGID_2_">
		<use xlink:href="#SVGID_1_"  style="overflow:visible;"/>
	</clipPath>
	<path class="st0" d="M247.9,322.2H72.1C32.3,322.2,0,289.9,0,250V74.3C0,34.5,32.3,2.2,72.1,2.2h175.7c39.8,0,72.1,32.3,72.1,72.1
		V250C320,289.9,287.7,322.2,247.9,322.2"/>
	<path class="st1" d="M266.7,147.1c0-47.7-47.9-86.6-106.7-86.6c-58.8,0-106.7,38.8-106.7,86.6c0,42.8,38,78.6,89.2,85.4
		c3.5,0.8,8.2,2.3,9.4,5.3c1.1,2.7,0.7,6.9,0.3,9.6c0,0-1.3,7.5-1.5,9.1c-0.5,2.7-2.1,10.5,9.2,5.8c11.4-4.8,61.4-36.2,83.8-61.9h0
		C259.2,183.4,266.7,166.2,266.7,147.1"/>
	<path class="st0" d="M231.2,174.7h-29.9h0c-1.1,0-2-0.9-2-2v0v0v-46.5v0v0c0-1.1,0.9-2,2-2h0h29.9c1.1,0,2,0.9,2,2v7.6
		c0,1.1-0.9,2-2,2h-20.4v7.9h20.4c1.1,0,2,0.9,2,2v7.6c0,1.1-0.9,2-2,2h-20.4v7.9h20.4c1.1,0,2,0.9,2,2v7.6
		C233.2,173.8,232.3,174.7,231.2,174.7"/>
	<path class="st0" d="M120.3,174.7c1.1,0,2-0.9,2-2v-7.6c0-1.1-0.9-2-2-2H99.9v-37c0-1.1-0.9-2-2-2h-7.6c-1.1,0-2,0.9-2,2v46.5v0v0
		c0,1.1,0.9,2,2,2h0H120.3z"/>
	<path class="st0" d="M138.3,124h-7.6c-1.1,0-2,0.9-2,2v46.6c0,1.1,0.9,2,2,2h7.6c1.1,0,2-0.9,2-2v-46.6
		C140.4,124.9,139.5,124,138.3,124"/>
	<path class="st0" d="M189.8,124h-7.6c-1.1,0-2,0.9-2,2v27.7L158.9,125c-0.1-0.1-0.1-0.1-0.2-0.2c0,0,0,0,0,0c0,0-0.1-0.1-0.1-0.1
		l0,0c0,0-0.1-0.1-0.1-0.1l-0.1,0c0,0-0.1,0-0.1-0.1c0,0,0,0-0.1,0c0,0-0.1,0-0.1-0.1c0,0,0,0-0.1,0c0,0-0.1,0-0.1-0.1
		c0,0,0,0-0.1,0c0,0-0.1,0-0.1,0c0,0,0,0-0.1,0c0,0-0.1,0-0.1,0c0,0-0.1,0-0.1,0c0,0-0.1,0-0.1,0c0,0-0.1,0-0.1,0c0,0,0,0-0.1,0
		h-7.5c-1.1,0-2,0.9-2,2v46.6c0,1.1,0.9,2,2,2h7.6c1.1,0,2-0.9,2-2V145l21.3,28.8c0.1,0.2,0.3,0.4,0.5,0.5c0,0,0,0,0,0
		c0,0,0.1,0.1,0.1,0.1c0,0,0,0,0.1,0c0,0,0.1,0,0.1,0c0,0,0.1,0,0.1,0c0,0,0,0,0.1,0c0,0,0.1,0,0.1,0c0,0,0,0,0,0
		c0.2,0,0.3,0.1,0.5,0.1h7.5c1.1,0,2-0.9,2-2v-46.6C191.9,124.9,191,124,189.8,124"/>
</g>
</svg>
