<!--?xml version="1.0" encoding="utf-8"?-->
<!-- Generator: Adobe Illustrator 18.1.1, SVG Export Plug-In . SVG Version: 6.00 Build 0)  -->

<svg version="1.1" id="_x31_0" xmlns="http://www.w3.org/2000/svg" xmlns:xlink="http://www.w3.org/1999/xlink" x="0px" y="0px" viewBox="0 0 512 512" style="width: 256px; height: 256px; opacity: 1;" xml:space="preserve">
<style type="text/css">
	.st0{fill:#374149;}
</style>
<g>
	<path class="st0" d="M405.213,0H106.787c-37.621,0-68.23,30.606-68.23,68.226V443.77c0,37.621,30.61,68.23,68.23,68.23h179.305
		c12.863,0,25.683-1.297,38.11-3.855c73.152-15.199,130.187-72.234,145.371-145.317c2.574-12.492,3.87-25.316,3.87-38.179V68.226
		C473.443,30.606,442.834,0,405.213,0z M316.123,372.797v96.125c-9.722,2.004-19.734,3.031-30.031,3.031H106.787
		c-15.566,0-28.183-12.617-28.183-28.183V68.226c0-15.562,12.617-28.183,28.183-28.183h298.426
		c15.566,0,28.184,12.621,28.184,28.183v256.422c0,10.297-1.027,20.308-3.031,30.031H334.24
		C324.237,354.68,316.123,362.793,316.123,372.797z" style="fill: rgb(255, 255, 255);"></path>
	<polygon class="st0" points="142.322,162.027 142.451,144.035 168.596,183.91 181.299,183.91 181.299,113.957 166.565,113.957 
		166.518,113.957 166.518,113.957 166.362,113.957 166.362,135.789 166.229,153.742 140.08,113.957 127.58,113.957 127.541,113.957 
		127.541,113.957 127.385,113.957 127.385,183.91 142.322,183.91 	" style="fill: rgb(255, 255, 255);"></polygon>
	<polygon class="st0" points="243.346,170.406 211.666,170.406 211.666,155.398 238.642,155.398 238.642,141.894 211.666,141.894 
		211.666,127.461 243.346,127.461 243.346,113.957 197.03,113.957 196.885,113.957 196.885,113.957 196.729,113.957 196.729,183.91 
		243.346,183.91 	" style="fill: rgb(255, 255, 255);"></polygon>
	<polygon class="st0" points="292.607,144.621 304.526,183.91 316.87,183.91 331.748,128.418 335.627,114.117 335.584,114.117 
		335.627,113.957 320.041,113.957 314.627,135.851 309.87,154.516 298.135,113.957 286.947,113.957 280.6,135.863 275.061,154.5 
		265.135,113.957 252.885,113.957 249.702,113.914 249.713,113.957 249.549,113.957 268.213,183.91 280.557,183.91 287.115,162.274 
			" style="fill: rgb(255, 255, 255);"></polygon>
	<path class="st0" d="M363.049,170.981c-3.054,0-5.984-0.406-8.703-1.211c-2.293-0.68-4.343-1.942-6.206-3.566
		c-0.466-0.426-0.938-0.699-1.402-1.203l0,0l-0.11-0.114l-9.766,9.77l0.554,0.562c3.406,3.473,7.242,5.914,11.422,7.262
		c4.109,1.328,8.859,2.003,14.109,2.003c3.641,0,7.094-0.48,10.258-1.426c3.187-0.949,5.992-2.347,8.335-4.164
		c2.36-1.836,4.227-4.11,5.555-6.758c1.32-2.664,1.992-5.754,1.992-9.187c0-3.149-0.43-6.012-1.281-8.516
		c-0.875-2.55-2.305-4.73-4.227-6.45c-1.546-1.542-3.414-2.766-5.546-3.633c-2.11-0.851-4.79-1.515-7.961-1.968l-8.172-1.25
		c-1.383-0.18-2.547-0.481-3.469-0.898c-0.906-0.406-1.695-0.91-2.313-1.469c-0.617-0.617-1.039-1.274-1.289-1.996
		c-0.266-0.75-0.398-1.535-0.398-2.332c0-2.164,0.758-3.973,2.312-5.531c1.539-1.531,4.008-2.309,7.36-2.309
		c2.171,0,4.5,0.27,6.93,0.797c2.328,0.504,4.511,1.738,6.492,3.653c0.098,0.098,0.195,0.171,0.289,0.273l0.313,0.301l9.332-9.238
		l0.133-0.126h-0.004l0.118-0.113l-0.578-0.566c-3.023-2.954-6.383-5.082-10-6.332c-3.594-1.238-7.844-1.867-12.641-1.867
		c-3.774,0-7.226,0.535-10.25,1.586c-3.024,1.051-5.633,2.539-7.75,4.426c-2.117,1.883-3.774,4.172-4.914,6.809
		c-1.126,2.614-1.688,5.547-1.688,8.718c0,6.032,1.726,10.746,5.133,14.016c1.602,1.535,3.523,2.801,5.711,3.754
		c2.164,0.958,4.844,1.668,7.969,2.122l8.164,1.254c1.664,0.246,2.906,0.523,3.672,0.817c0.742,0.285,1.43,0.718,2.031,1.262
		c1.258,1.262,1.875,2.93,1.875,5.098c0,2.5-0.899,4.359-2.742,5.687C369.799,170.289,366.893,170.981,363.049,170.981z" style="fill: rgb(255, 255, 255);"></path>
	<polygon class="st0" points="127.541,238.578 127.541,238.715 127.385,238.578 127.385,339.324 243.478,339.324 173.53,278.621 	
		" style="fill: rgb(255, 255, 255);"></polygon>
	<polygon class="st0" points="140.279,223.402 140.416,223.527 140.174,223.527 254.299,322.598 254.299,223.527 189.569,223.527 	
		" style="fill: rgb(255, 255, 255);"></polygon>
	<polygon class="st0" points="287.717,223.527 287.717,223.527 287.557,223.527 287.557,246 396.291,246 396.291,223.527 
		288.049,223.527 	" style="fill: rgb(255, 255, 255);"></polygon>
	<polygon class="st0" points="396.291,267.527 288.049,267.527 287.717,267.527 287.717,267.527 287.557,267.527 287.557,290 
		396.291,290 	" style="fill: rgb(255, 255, 255);"></polygon>
</g>
</svg>
