<!--?xml version="1.0" encoding="utf-8"?-->
<!-- Generator: Adobe Illustrator 18.1.1, SVG Export Plug-In . SVG Version: 6.00 Build 0)  -->

<svg version="1.1" id="_x32_" xmlns="http://www.w3.org/2000/svg" xmlns:xlink="http://www.w3.org/1999/xlink" x="0px" y="0px" viewBox="0 0 512 512" style="width: 256px; height: 256px; opacity: 1;" xml:space="preserve">
<style type="text/css">
	.st0{fill:#4B4B4B;}
</style>
<g>
	<path class="st0" d="M482.54,29.462c-43.366-43.366-135.606-43.118-208.279,29.564c-41.628,41.636-47.354,97.412-45.591,126.198
		c1.721,28.157,5.594,48.372-6.718,60.683L9.717,440.426c-6.131,5.924-9.64,14.075-9.714,22.597
		c-0.083,8.523,3.276,16.731,9.308,22.762l16.905,16.905c6.032,6.023,14.231,9.383,22.771,9.308
		c8.514-0.083,16.656-3.575,22.58-9.714l194.536-212.242c12.304-12.304,32.517-8.44,60.667-6.719
		c28.794,1.78,84.571-3.955,126.198-45.574C525.65,165.068,525.905,72.827,482.54,29.462z" style="fill: rgb(255, 255, 255);"></path>
</g>
</svg>
