<svg width="402" height="119" viewBox="0 0 402 119" fill="none" xmlns="http://www.w3.org/2000/svg">
<g filter="url(#filter0_d_304_7)">
<path d="M332.257 94.4511L338.088 91.0501L347.611 107.376L341.78 110.777L332.257 94.4511Z" fill="#F9D26E"/>
<path d="M382.4 65.2019L388.23 61.8008L397.753 78.1264L391.923 81.5274L382.4 65.2019Z" fill="#F9D26E"/>
<path d="M338.962 85.8512L347.125 81.0897L360.729 104.412L352.567 109.173L338.962 85.8512Z" fill="#F9D26E"/>
<path d="M369.281 68.1656L377.444 63.4041L391.048 86.7263L382.886 91.4878L369.281 68.1656Z" fill="#F9D26E"/>
<path d="M340.718 10.4062C343.084 14.5693 348.065 24.9768 354.953 31.2788C365.641 41.057 369.825 32.8955 377.128 38.9538L391.521 51.3132L396.454 45.5691L396.552 45.6024L347.018 3.06884C342.846 -0.513335 337.032 3.927 340.718 10.4062Z" fill="#F9D26E"/>
<path d="M6.20766 65.4998C2.29526 70.3464 3.31388 79.659 11.4368 86.2154C16.09 89.9709 21.7845 89.9483 24.6726 89.4602C27.4976 88.9831 29.4974 88.3743 30.8733 89.485L52.8038 108.823C53.4682 109.379 54.3291 109.645 55.1905 109.561C56.0522 109.477 56.8449 109.05 57.389 108.376L58.9141 106.486C59.4574 105.812 59.7084 104.948 59.6089 104.086C59.5088 103.228 59.0684 102.443 58.3846 101.911L34.8549 84.5508C33.4798 83.4408 33.6523 81.3579 33.5229 78.4965C33.3925 75.5694 32.2125 69.9983 27.561 66.2427C19.4381 59.6854 10.12 60.6533 6.20766 65.4998Z" fill="#F9D26E"/>
<path d="M371.468 78.612L374.869 84.4425L358.543 93.9655L355.142 88.135L371.468 78.612Z" fill="#F9D26E"/>
<path d="M332.257 94.4511L338.088 91.0501L347.611 107.376L341.78 110.777L332.257 94.4511Z" fill="#C5D64B"/>
<path d="M382.4 65.2019L388.23 61.8008L397.753 78.1264L391.923 81.5274L382.4 65.2019Z" fill="#C5D64B"/>
<path d="M338.962 85.8512L347.125 81.0897L360.729 104.412L352.567 109.173L338.962 85.8512Z" fill="#C5D64B"/>
<path d="M369.281 68.1656L377.444 63.4041L391.048 86.7263L382.886 91.4878L369.281 68.1656Z" fill="#C5D64B"/>
<path d="M371.468 78.612L374.869 84.4425L358.543 93.9655L355.142 88.135L371.468 78.612Z" fill="#C5D64B"/>
<path d="M57.9625 12.4476C56.9636 11.4494 55.4994 11.5688 54.5223 12.5443L44.8357 22.2327C43.8778 23.1905 42.9267 23.1561 42.1716 22.4009C41.4811 21.7105 41.6434 20.735 42.3204 20.0581L52.2964 10.0081C53.4005 8.90316 53.1432 7.23219 52.2493 6.33915C51.3553 5.44435 49.6861 5.18867 48.5811 6.29122L38.5682 16.3068C37.8912 16.9812 36.8771 17.1074 36.1875 16.4169C35.4333 15.6626 35.3988 14.7115 36.3566 13.7536L46.0432 4.06603C47.0204 3.08966 47.1398 1.6249 46.1407 0.626687C45.1408 -0.373284 43.7474 -0.0444114 42.7955 0.692317C41.8435 1.42729 33.9944 8.16819 30.0772 11.9608C26.1619 15.7551 26.2232 19.8539 27.1408 22.3632C27.7689 24.0787 27.4477 26.0945 26.04 27.5021L6.21779 46.6198C5.82008 47.0024 5.59297 47.5322 5.588 48.0838C5.58292 48.6372 5.80072 49.1687 6.1917 49.5606L9.02907 52.3961C9.41922 52.788 9.95067 53.005 10.5041 52.9999C11.0565 52.9948 11.5854 52.7678 11.9681 52.3708L31.0865 32.5484C32.4934 31.1424 34.5108 30.8195 36.2254 31.4476C38.7347 32.3642 42.8334 32.4256 46.6269 28.5103C50.4203 24.594 57.1612 16.7456 57.897 15.792C58.6319 14.8399 58.9607 13.4474 57.9625 12.4476Z" fill="#FDA6A6"/>
<path d="M57.3239 37.64C54.0279 37.288 50.6359 37.128 47.1479 37.16C43.6919 37.16 40.3319 37.176 37.0679 37.208C37.0679 37.24 37.0679 37.256 37.0679 37.256C37.0999 37.256 37.1159 37.272 37.1159 37.304C37.0519 38.072 37.0199 38.872 37.0199 39.704C37.0199 40.536 37.0199 41.32 37.0199 42.056C37.0519 42.76 37.0839 43.368 37.1159 43.88C37.1799 44.392 37.2439 44.712 37.3079 44.84C37.4999 44.904 37.8359 44.936 38.3159 44.936C38.7959 44.936 39.3239 44.952 39.8999 44.984C40.4759 44.984 41.0519 45.016 41.6279 45.08C42.2039 45.112 42.6839 45.224 43.0679 45.416L43.1159 45.464C43.3079 49.944 43.4199 53.768 43.4519 56.936C43.5159 60.104 43.5319 62.712 43.4999 64.76C43.4999 66.776 43.4839 68.296 43.4519 69.32C43.4199 70.344 43.4199 70.92 43.4519 71.048C44.0279 70.952 44.6519 70.904 45.3239 70.904C45.9959 70.904 46.6679 70.904 47.3399 70.904C48.0439 70.904 48.7319 70.904 49.4039 70.904C50.1079 70.872 50.7479 70.808 51.3239 70.712V70.616C51.2599 67.128 51.2119 64.104 51.1799 61.544C51.1479 58.952 51.1159 56.744 51.0839 54.92C51.0519 53.064 51.0199 51.56 50.9879 50.408C50.9879 49.224 50.9879 48.28 50.9879 47.576C50.9879 46.84 50.9879 46.312 50.9879 45.992C51.0199 45.64 51.0519 45.384 51.0839 45.224C51.0839 45.192 51.0839 45.176 51.0839 45.176C51.1159 45.144 51.1319 45.112 51.1319 45.08H51.2759C52.7799 45.016 53.9799 44.968 54.8759 44.936C55.7719 44.904 56.5239 44.952 57.1319 45.08C57.2919 43.928 57.3719 42.664 57.3719 41.288C57.4039 39.912 57.3879 38.696 57.3239 37.64Z" fill="#C5D64B"/>
<path d="M261.391 46.856C260.367 46.888 259.487 46.888 258.751 46.856C258.015 46.824 257.439 46.792 257.023 46.76C256.863 46.76 256.623 46.744 256.303 46.712C256.015 46.68 255.807 46.68 255.679 46.712V46.76C255.487 48.648 255.391 50.6 255.391 52.616C255.391 54.6 255.423 56.616 255.487 58.664C255.551 60.712 255.583 62.776 255.583 64.856C255.615 66.936 255.551 68.984 255.391 71C255.615 70.936 256.063 70.92 256.735 70.952C257.407 70.984 258.111 71 258.847 71C259.615 71.032 260.319 71.032 260.959 71C261.599 71 261.999 70.904 262.159 70.712C261.935 66.84 261.871 62.888 261.967 58.856C262.095 54.824 262.175 50.872 262.207 47V46.856H261.391ZM255.487 36.392C255.455 37.864 255.471 39.112 255.535 40.136C255.631 41.128 255.679 42.088 255.679 43.016C256.287 42.984 256.943 43 257.647 43.064C258.351 43.096 259.007 43.128 259.615 43.16C260.255 43.16 260.799 43.128 261.247 43.064C261.727 43 262.031 42.872 262.159 42.68C262.159 42.2 262.143 41.656 262.111 41.048C262.111 40.408 262.095 39.8 262.063 39.224C262.063 38.616 262.047 38.072 262.015 37.592C262.015 37.08 262.015 36.728 262.015 36.536L255.487 36.392Z" fill="#C5D64B"/>
<path d="M274.064 38.168C273.52 38.232 272.976 38.248 272.432 38.216C271.888 38.184 271.344 38.152 270.8 38.12C270.256 38.056 269.728 38.008 269.216 37.976C268.736 37.944 268.288 37.96 267.872 38.024C267.808 38.632 267.76 39.32 267.728 40.088C267.728 40.856 267.728 41.656 267.728 42.488C267.728 43.32 267.744 44.152 267.776 44.984C267.808 45.784 267.824 46.536 267.824 47.24C267.312 47.24 266.768 47.24 266.192 47.24C265.648 47.24 265.056 47.224 264.416 47.192L264.272 53.048C264.944 53.048 265.552 53.048 266.096 53.048C266.672 53.048 267.216 53.032 267.728 53C267.696 55.336 267.712 57.608 267.776 59.816C267.84 61.992 268.08 64.312 268.496 66.776C268.912 67.768 269.584 68.552 270.512 69.128C271.472 69.704 272.56 70.136 273.776 70.424C274.992 70.712 276.288 70.904 277.664 71C279.04 71.064 280.368 71.064 281.648 71C281.808 70.52 281.904 69.992 281.936 69.416C282 68.84 282.016 68.264 281.984 67.688C281.952 67.112 281.904 66.552 281.84 66.008C281.776 65.464 281.712 64.968 281.648 64.52C281.104 64.552 280.464 64.552 279.728 64.52C279.024 64.488 278.32 64.408 277.616 64.28C276.912 64.12 276.256 63.912 275.648 63.656C275.04 63.4 274.576 63.048 274.256 62.6C274.224 61.16 274.208 59.624 274.208 57.992C274.208 56.328 274.208 54.632 274.208 52.904H281.648C281.584 52.488 281.568 51.992 281.6 51.416C281.664 50.808 281.712 50.216 281.744 49.64C281.776 49.064 281.776 48.536 281.744 48.056C281.712 47.544 281.584 47.16 281.36 46.904C279.728 47 278.352 47.08 277.232 47.144C276.144 47.208 275.104 47.256 274.112 47.288C274.112 46.808 274.096 46.344 274.064 45.896C274.064 45.448 274.064 45.016 274.064 44.6V38.168Z" fill="#C5D64B"/>
<path d="M302.515 61.784C302.163 61.688 301.715 61.64 301.171 61.64C300.627 61.608 300.051 61.608 299.443 61.64C298.835 61.672 298.259 61.704 297.715 61.736C297.171 61.736 296.739 61.72 296.419 61.688C296.323 62.104 296.179 62.584 295.987 63.128C295.827 63.64 295.587 64.008 295.267 64.232C294.883 64.488 294.371 64.664 293.731 64.76C293.091 64.824 292.467 64.792 291.859 64.664C291.251 64.504 290.723 64.216 290.275 63.8C289.859 63.384 289.683 62.808 289.747 62.072C289.811 60.952 289.843 59.88 289.843 58.856C289.843 57.832 289.907 56.824 290.035 55.832C290.131 55.32 290.275 55 290.467 54.872C290.883 54.36 291.427 54.008 292.099 53.816C293.347 53.496 294.355 53.656 295.123 54.296C295.891 54.904 296.355 55.768 296.515 56.888C296.931 56.952 297.395 57.016 297.907 57.08C298.451 57.144 298.995 57.192 299.539 57.224C300.115 57.256 300.659 57.272 301.171 57.272C301.715 57.272 302.195 57.224 302.611 57.128C302.579 56.072 302.547 55.096 302.515 54.2C302.515 53.272 302.451 52.44 302.323 51.704C302.195 50.968 302.003 50.328 301.747 49.784C301.523 49.24 301.187 48.808 300.739 48.488C300.067 47.848 299.267 47.368 298.339 47.048C297.411 46.728 296.435 46.536 295.411 46.472C294.739 46.408 294.099 46.408 293.491 46.472C292.915 46.504 292.307 46.488 291.667 46.424C290.899 46.424 290.131 46.472 289.363 46.568C288.627 46.664 287.923 46.84 287.251 47.096C286.611 47.32 286.035 47.608 285.523 47.96C285.043 48.312 284.691 48.728 284.467 49.208C284.371 49.528 284.227 49.992 284.035 50.6C283.843 51.208 283.731 51.688 283.699 52.04C283.507 53.192 283.411 54.344 283.411 55.496C283.539 56.552 283.571 57.72 283.507 59C283.475 60.28 283.491 61.56 283.555 62.84C283.619 64.088 283.811 65.288 284.131 66.44C284.451 67.592 285.043 68.552 285.907 69.32C287.027 70.44 288.403 71.144 290.035 71.432C290.931 71.432 291.923 71.464 293.011 71.528C294.099 71.624 295.155 71.624 296.179 71.528C297.203 71.464 298.147 71.272 299.011 70.952C299.907 70.632 300.627 70.088 301.171 69.32C301.395 69.096 301.571 68.744 301.699 68.264C301.859 67.752 301.987 67.16 302.083 66.488C302.179 65.784 302.259 65.032 302.323 64.232C302.387 63.432 302.451 62.616 302.515 61.784Z" fill="#C5D64B"/>
<path d="M311.557 49.592C311.557 49.464 311.557 49.064 311.557 48.392C311.557 47.72 311.557 46.92 311.557 45.992C311.557 45.064 311.557 44.072 311.557 43.016C311.557 41.928 311.557 40.92 311.557 39.992C311.557 39.032 311.557 38.216 311.557 37.544C311.557 36.84 311.541 36.408 311.509 36.248C311.509 36.152 311.381 36.104 311.125 36.104C310.869 36.072 310.581 36.072 310.261 36.104C309.941 36.136 309.621 36.184 309.301 36.248C308.981 36.28 308.757 36.296 308.629 36.296C308.245 36.328 307.925 36.36 307.669 36.392C307.413 36.392 307.173 36.392 306.949 36.392C306.725 36.392 306.485 36.392 306.229 36.392C305.973 36.36 305.653 36.328 305.269 36.296C305.237 37.704 305.205 39.368 305.173 41.288C305.173 43.176 305.173 45.192 305.173 47.336C305.173 49.48 305.173 51.688 305.173 53.96C305.173 56.2 305.173 58.376 305.173 60.488C305.205 62.6 305.221 64.584 305.221 66.44C305.253 68.264 305.269 69.832 305.269 71.144C306.037 71.08 306.677 71.064 307.189 71.096C307.701 71.128 308.165 71.144 308.581 71.144C308.997 71.176 309.397 71.176 309.781 71.144C310.197 71.112 310.677 71.016 311.221 70.856V70.664C311.349 69.608 311.413 68.552 311.413 67.496C311.413 66.44 311.381 65.384 311.317 64.328C311.285 63.24 311.253 62.168 311.221 61.112C311.189 60.024 311.205 58.92 311.269 57.8C311.333 56.936 311.557 56.296 311.941 55.88C312.325 55.432 312.757 55.144 313.237 55.016C313.717 54.856 314.197 54.824 314.677 54.92C315.189 54.984 315.573 55.08 315.829 55.208C315.861 55.24 315.893 55.256 315.925 55.256C315.957 55.256 315.989 55.272 316.021 55.304C316.277 55.496 316.469 55.768 316.597 56.12C316.757 56.472 316.869 56.872 316.933 57.32C317.029 57.768 317.093 58.232 317.125 58.712C317.157 59.16 317.189 59.576 317.221 59.96C317.285 60.824 317.317 61.752 317.317 62.744C317.349 63.736 317.349 64.728 317.317 65.72C317.317 66.712 317.317 67.672 317.317 68.6C317.317 69.528 317.349 70.36 317.413 71.096C318.533 71.096 319.525 71.096 320.389 71.096C321.285 71.128 322.293 71.064 323.413 70.904C323.349 69.816 323.333 68.552 323.365 67.112C323.397 65.672 323.429 64.184 323.461 62.648C323.493 61.08 323.509 59.544 323.509 58.04C323.541 56.504 323.525 55.096 323.461 53.816C323.429 52.536 323.317 51.448 323.125 50.552C322.965 49.624 322.725 49.016 322.405 48.728C321.733 48.152 320.981 47.752 320.149 47.528C319.317 47.304 318.453 47.208 317.557 47.24C316.693 47.272 315.845 47.432 315.013 47.72C314.181 48.008 313.429 48.392 312.757 48.872C312.597 49 312.389 49.128 312.133 49.256C311.909 49.384 311.717 49.496 311.557 49.592Z" fill="#C5D64B"/>
<path d="M332.545 58.952C332.865 59.016 333.377 59.064 334.081 59.096C334.785 59.128 335.569 59.144 336.433 59.144C337.329 59.144 338.257 59.128 339.217 59.096C340.177 59.064 341.073 59.016 341.905 58.952C342.769 58.888 343.505 58.824 344.113 58.76C344.753 58.696 345.185 58.632 345.409 58.568C345.505 57.224 345.505 55.896 345.409 54.584C345.313 53.272 345.025 52.072 344.545 50.984C344.097 49.896 343.425 48.968 342.529 48.2C341.633 47.432 340.449 46.92 338.977 46.664C337.825 46.376 336.641 46.248 335.425 46.28C334.209 46.312 333.057 46.504 331.969 46.856C330.881 47.176 329.905 47.672 329.041 48.344C328.177 48.984 327.537 49.768 327.121 50.696C326.737 51.752 326.481 52.84 326.353 53.96C326.257 55.048 326.161 56.184 326.065 57.368C326.001 58.68 326.033 59.992 326.161 61.304C326.289 62.616 326.529 63.864 326.881 65.048C327.233 66.2 327.697 67.272 328.273 68.264C328.849 69.224 329.569 70.008 330.433 70.616C331.201 71.064 332.033 71.352 332.929 71.48C333.825 71.48 334.801 71.512 335.857 71.576C336.945 71.64 338.001 71.64 339.025 71.576C340.049 71.512 340.993 71.32 341.857 71C342.721 70.68 343.425 70.136 343.969 69.368C344.193 69.176 344.369 68.84 344.497 68.36C344.657 67.848 344.785 67.256 344.881 66.584C344.977 65.88 345.057 65.128 345.121 64.328C345.185 63.528 345.249 62.712 345.313 61.88C344.961 61.784 344.513 61.736 343.969 61.736C343.425 61.704 342.849 61.704 342.241 61.736C341.665 61.768 341.105 61.8 340.561 61.832C340.017 61.832 339.585 61.816 339.265 61.784C339.329 63.096 339.121 64.088 338.641 64.76C338.193 65.4 337.633 65.784 336.961 65.912C336.289 66.04 335.601 65.928 334.897 65.576C334.193 65.224 333.649 64.68 333.265 63.944C332.913 63.368 332.705 62.776 332.641 62.168C332.609 61.56 332.577 60.776 332.545 59.816V58.952ZM338.353 51.512C338.929 51.8 339.377 52.232 339.697 52.808C340.049 53.384 340.225 53.992 340.225 54.632C340.225 54.888 340.225 55.064 340.225 55.16C340.225 55.224 340.129 55.272 339.937 55.304C339.777 55.304 339.489 55.288 339.073 55.256C338.657 55.224 338.033 55.208 337.201 55.208C335.985 55.208 335.057 55.224 334.417 55.256C333.809 55.256 333.361 55.24 333.073 55.208C332.785 55.144 332.625 55.048 332.593 54.92C332.593 54.76 332.625 54.504 332.689 54.152C332.753 53.736 332.849 53.336 332.977 52.952C333.137 52.568 333.361 52.232 333.649 51.944C333.937 51.656 334.321 51.432 334.801 51.272C335.281 51.112 335.905 51.032 336.673 51.032C337.025 51.032 337.329 51.08 337.585 51.176C337.841 51.24 338.097 51.352 338.353 51.512Z" fill="#C5D64B"/>
<path d="M65.8852 49.592V37.544C65.8852 36.84 65.8692 36.408 65.8372 36.248C65.8372 36.152 65.7092 36.104 65.4532 36.104C65.1972 36.072 64.9092 36.072 64.5892 36.104C64.2692 36.136 63.9492 36.184 63.6292 36.248C63.3092 36.28 63.0852 36.296 62.9572 36.296C62.5732 36.328 62.2532 36.36 61.9972 36.392H60.5572C60.3012 36.36 59.9812 36.328 59.5972 36.296C59.5652 37.704 59.5332 39.368 59.5012 41.288V60.488C59.5332 62.6 59.5492 64.584 59.5492 66.44C59.5812 68.264 59.5972 69.832 59.5972 71.144C60.3652 71.08 61.0052 71.064 61.5172 71.096C62.0292 71.128 62.4932 71.144 62.9092 71.144C63.3252 71.176 63.7252 71.176 64.1092 71.144C64.5252 71.112 65.0052 71.016 65.5492 70.856V70.664C65.6772 69.608 65.7412 68.552 65.7412 67.496C65.7412 66.44 65.7092 65.384 65.6452 64.328C65.6132 63.24 65.5812 62.168 65.5492 61.112C65.5172 60.024 65.5332 58.92 65.5972 57.8C65.6612 56.936 65.8852 56.296 66.2692 55.88C66.6532 55.432 67.0852 55.144 67.5652 55.016C68.0452 54.856 68.5252 54.824 69.0052 54.92C69.5172 54.984 69.9012 55.08 70.1572 55.208C70.1892 55.24 70.2212 55.256 70.2532 55.256C70.2852 55.256 70.3172 55.272 70.3492 55.304C70.6052 55.496 70.7972 55.768 70.9252 56.12C71.0852 56.472 71.1972 56.872 71.2612 57.32C71.3572 57.768 71.4212 58.232 71.4532 58.712C71.4852 59.16 71.5172 59.576 71.5492 59.96C71.6132 60.824 71.6452 61.752 71.6452 62.744C71.6772 63.736 71.6772 64.728 71.6452 65.72V68.6C71.6452 69.528 71.6772 70.36 71.7412 71.096H74.7172C75.6132 71.128 76.6212 71.064 77.7412 70.904C77.6772 69.816 77.6612 68.552 77.6932 67.112C77.7252 65.672 77.7572 64.184 77.7892 62.648C77.8212 61.08 77.8372 59.544 77.8372 58.04C77.8692 56.504 77.8532 55.096 77.7892 53.816C77.7572 52.536 77.6452 51.448 77.4532 50.552C77.2932 49.624 77.0532 49.016 76.7332 48.728C76.0612 48.152 75.3092 47.752 74.4772 47.528C73.6452 47.304 72.7812 47.208 71.8852 47.24C71.0212 47.272 70.1732 47.432 69.3412 47.72C68.5092 48.008 67.7572 48.392 67.0852 48.872C66.9252 49 66.7172 49.128 66.4612 49.256C66.2372 49.384 66.0452 49.496 65.8852 49.592Z" fill="#C5D64B"/>
<path fill-rule="evenodd" clip-rule="evenodd" d="M86.8728 58.952C87.1928 59.016 87.7048 59.064 88.4088 59.096C89.1128 59.128 89.8968 59.144 90.7608 59.144C91.6568 59.144 92.5848 59.128 93.5448 59.096C94.5048 59.064 95.4008 59.016 96.2328 58.952C97.0968 58.888 97.8328 58.824 98.4408 58.76C99.0808 58.696 99.5128 58.632 99.7368 58.568C99.8328 57.224 99.8328 55.896 99.7368 54.584C99.6408 53.272 99.3528 52.072 98.8728 50.984C98.4248 49.896 97.7528 48.968 96.8568 48.2C95.9608 47.432 94.7768 46.92 93.3048 46.664C92.1528 46.376 90.9688 46.248 89.7528 46.28C88.5368 46.312 87.3848 46.504 86.2968 46.856C85.2088 47.176 84.2328 47.672 83.3688 48.344C82.5048 48.984 81.8648 49.768 81.4488 50.696C81.0648 51.752 80.8088 52.84 80.6808 53.96C80.5848 55.048 80.4888 56.184 80.3928 57.368C80.3288 58.68 80.3608 59.992 80.4888 61.304C80.6168 62.616 80.8568 63.864 81.2088 65.048C81.5608 66.2 82.0248 67.272 82.6008 68.264C83.1768 69.224 83.8968 70.008 84.7608 70.616C85.5288 71.064 86.3608 71.352 87.2568 71.48C88.1528 71.48 89.1288 71.512 90.1848 71.576C91.2728 71.64 92.3288 71.64 93.3528 71.576C94.3768 71.512 95.3208 71.32 96.1848 71C97.0488 70.68 97.7528 70.136 98.2968 69.368C98.5208 69.176 98.6968 68.84 98.8248 68.36C98.9848 67.848 99.1128 67.256 99.2088 66.584C99.3048 65.88 99.3848 65.128 99.4488 64.328C99.5128 63.528 99.5768 62.712 99.6408 61.88C99.2888 61.784 98.8408 61.736 98.2968 61.736C97.7528 61.704 97.1768 61.704 96.5688 61.736C95.9928 61.768 95.4328 61.8 94.8888 61.832C94.3448 61.832 93.9128 61.816 93.5928 61.784C93.6568 63.096 93.4488 64.088 92.9688 64.76C92.5208 65.4 91.9608 65.784 91.2888 65.912C90.6168 66.04 89.9288 65.928 89.2248 65.576C88.5208 65.224 87.9768 64.68 87.5928 63.944C87.2408 63.368 87.0328 62.776 86.9688 62.168C86.9368 61.56 86.9048 60.776 86.8728 59.816V58.952ZM94.0248 52.808C93.7048 52.232 93.2568 51.8 92.6808 51.512C92.4248 51.352 92.1688 51.24 91.9128 51.176C91.6568 51.08 91.3528 51.032 91.0008 51.032C90.2328 51.032 89.6088 51.112 89.1288 51.272C88.6488 51.432 88.2648 51.656 87.9768 51.944C87.6888 52.232 87.4648 52.568 87.3048 52.952C87.1768 53.336 87.0808 53.736 87.0168 54.152C86.9528 54.504 86.9208 54.76 86.9208 54.92C86.9528 55.048 87.1128 55.144 87.4008 55.208C87.6888 55.24 88.1368 55.256 88.7448 55.256C89.3848 55.224 90.3128 55.208 91.5288 55.208C92.3608 55.208 92.9848 55.224 93.4008 55.256C93.8168 55.288 94.1048 55.304 94.2648 55.304C94.4568 55.272 94.5528 55.224 94.5528 55.16V54.632C94.5528 53.992 94.3768 53.384 94.0248 52.808Z" fill="#C5D64B"/>
<path fill-rule="evenodd" clip-rule="evenodd" d="M127.698 54.152C127.57 53.608 127.394 52.872 127.17 51.944C126.946 51.016 126.706 49.992 126.45 48.872C126.194 47.752 125.922 46.584 125.634 45.368C125.378 44.152 125.122 43.016 124.866 41.96C124.642 40.872 124.418 39.912 124.194 39.08C124.002 38.216 123.858 37.576 123.762 37.16C122.706 37.256 121.842 37.32 121.17 37.352H118.578C118.322 37.352 118.082 37.368 117.858 37.4C117.09 39.96 116.386 42.536 115.746 45.128C115.106 47.72 114.514 50.216 113.97 52.616C113.426 55.016 112.946 57.288 112.53 59.432C112.146 61.544 111.81 63.416 111.522 65.048C111.234 66.68 111.01 68.008 110.85 69.032C110.69 70.056 110.578 70.68 110.514 70.904C110.546 70.936 110.578 70.952 110.61 70.952C112.786 70.92 114.386 70.936 115.41 71C116.434 71.064 117.074 71.064 117.33 71H117.378C117.41 70.968 117.442 70.952 117.474 70.952C117.762 70.408 117.986 69.784 118.146 69.08C118.306 68.376 118.45 67.656 118.578 66.92C118.738 66.152 118.882 65.432 119.01 64.76C119.17 64.056 119.362 63.448 119.586 62.936H120.402C120.626 62.904 120.818 62.888 120.978 62.888H121.602C121.826 62.888 122.146 62.92 122.562 62.984C122.786 63.464 122.994 64.04 123.186 64.712C123.378 65.384 123.554 66.088 123.714 66.824C123.906 67.56 124.082 68.28 124.242 68.984C124.434 69.688 124.626 70.296 124.818 70.808H124.866C125.89 71.032 126.978 71.16 128.13 71.192C129.282 71.256 130.338 71.192 131.298 71V70.952L127.698 54.152ZM120.978 57.32C121.586 57.288 122.194 57.272 122.802 57.272C122.482 54.52 122.194 52.376 121.938 50.84C121.714 49.304 121.506 48.264 121.314 47.72C121.154 47.176 120.978 47.064 120.786 47.384C120.626 47.672 120.466 48.28 120.306 49.208C120.178 50.136 120.018 51.304 119.826 52.712C119.666 54.12 119.474 55.64 119.25 57.272C119.794 57.304 120.37 57.32 120.978 57.32Z" fill="#C5D64B"/>
<path d="M162.689 38.168C162.145 38.232 161.601 38.248 161.057 38.216L159.425 38.12C158.881 38.056 158.353 38.008 157.841 37.976C157.361 37.944 156.913 37.96 156.497 38.024C156.433 38.632 156.385 39.32 156.353 40.088V42.488C156.353 43.32 156.369 44.152 156.401 44.984C156.433 45.784 156.449 46.536 156.449 47.24H154.817C154.273 47.24 153.681 47.224 153.041 47.192L152.897 53.048H154.721C155.297 53.048 155.841 53.032 156.353 53C156.321 55.336 156.337 57.608 156.401 59.816C156.465 61.992 156.705 64.312 157.121 66.776C157.537 67.768 158.209 68.552 159.137 69.128C160.097 69.704 161.185 70.136 162.401 70.424C163.617 70.712 164.913 70.904 166.289 71C167.665 71.064 168.993 71.064 170.273 71C170.433 70.52 170.529 69.992 170.561 69.416C170.625 68.84 170.641 68.264 170.609 67.688C170.577 67.112 170.529 66.552 170.465 66.008C170.401 65.464 170.337 64.968 170.273 64.52C169.729 64.552 169.089 64.552 168.353 64.52C167.649 64.488 166.945 64.408 166.241 64.28C165.537 64.12 164.881 63.912 164.273 63.656C163.665 63.4 163.201 63.048 162.881 62.6C162.849 61.16 162.833 59.624 162.833 57.992V52.904H170.273C170.209 52.488 170.193 51.992 170.225 51.416C170.289 50.808 170.337 50.216 170.369 49.64C170.401 49.064 170.401 48.536 170.369 48.056C170.337 47.544 170.209 47.16 169.985 46.904C168.353 47 166.977 47.08 165.857 47.144C164.769 47.208 163.729 47.256 162.737 47.288C162.737 46.808 162.721 46.344 162.689 45.896V38.168Z" fill="#C5D64B"/>
<path d="M178.516 46.856C177.492 46.888 176.612 46.888 175.876 46.856C175.14 46.824 174.564 46.792 174.148 46.76C173.988 46.76 173.748 46.744 173.428 46.712C173.14 46.68 172.932 46.68 172.804 46.712V46.76C172.612 48.648 172.516 50.6 172.516 52.616C172.516 54.6 172.548 56.616 172.612 58.664C172.676 60.712 172.708 62.776 172.708 64.856C172.74 66.936 172.676 68.984 172.516 71C172.74 70.936 173.188 70.92 173.86 70.952C174.532 70.984 175.236 71 175.972 71C176.74 71.032 177.444 71.032 178.084 71C178.724 71 179.124 70.904 179.284 70.712C179.06 66.84 178.996 62.888 179.092 58.856C179.22 54.824 179.3 50.872 179.332 47V46.856H178.516Z" fill="#C5D64B"/>
<path d="M245.791 53.768C246.367 52.424 247.039 51.08 247.807 49.736L250.111 45.704C250.911 44.36 251.647 43.016 252.319 41.672C253.023 40.328 253.567 38.984 253.951 37.64C252.927 37.48 251.839 37.432 250.687 37.496C249.535 37.56 248.447 37.56 247.423 37.496C246.751 38.456 246.143 39.416 245.599 40.376L244.063 43.256C243.583 44.216 243.071 45.16 242.527 46.088C241.983 47.016 241.375 47.912 240.703 48.776C240.639 48.84 240.575 48.92 240.511 49.016C240.479 49.08 240.463 49.096 240.463 49.064C240.399 47.24 240.383 45.32 240.415 43.304C240.447 41.288 240.431 39.368 240.367 37.544C239.343 37.544 238.271 37.528 237.151 37.496C236.063 37.432 234.991 37.416 233.935 37.448C233.967 43.048 233.887 48.632 233.695 54.2C233.535 59.736 233.583 65.256 233.839 70.76C234.255 70.856 234.767 70.936 235.375 71C236.015 71.064 236.671 71.096 237.343 71.096C238.015 71.096 238.655 71.064 239.263 71C239.871 70.968 240.399 70.888 240.847 70.76C240.847 69.864 240.831 68.888 240.799 67.832C240.799 66.776 240.783 65.704 240.751 64.616C240.719 63.528 240.687 62.456 240.655 61.4C240.655 60.312 240.671 59.304 240.703 58.376C241.215 59.272 241.727 60.28 242.239 61.4C242.751 62.52 243.263 63.656 243.775 64.808C244.319 65.96 244.879 67.08 245.455 68.168C246.031 69.224 246.655 70.136 247.327 70.904C248.351 70.936 249.455 70.984 250.639 71.048C251.855 71.112 252.975 71.032 253.999 70.808L245.791 53.768Z" fill="#C5D64B"/>
<path fill-rule="evenodd" clip-rule="evenodd" d="M208.326 58.952C208.646 59.016 209.158 59.064 209.862 59.096C210.566 59.128 211.35 59.144 212.214 59.144C213.11 59.144 214.038 59.128 214.998 59.096C215.958 59.064 216.854 59.016 217.686 58.952C218.55 58.888 219.286 58.824 219.894 58.76C220.534 58.696 220.966 58.632 221.19 58.568C221.286 57.224 221.286 55.896 221.19 54.584C221.094 53.272 220.806 52.072 220.326 50.984C219.878 49.896 219.206 48.968 218.31 48.2C217.414 47.432 216.23 46.92 214.758 46.664C213.606 46.376 212.422 46.248 211.206 46.28C209.99 46.312 208.838 46.504 207.75 46.856C206.662 47.176 205.686 47.672 204.822 48.344C203.958 48.984 203.318 49.768 202.902 50.696C202.518 51.752 202.262 52.84 202.134 53.96C202.038 55.048 201.942 56.184 201.846 57.368C201.782 58.68 201.814 59.992 201.942 61.304C202.07 62.616 202.31 63.864 202.662 65.048C203.014 66.2 203.478 67.272 204.054 68.264C204.63 69.224 205.35 70.008 206.214 70.616C206.982 71.064 207.814 71.352 208.71 71.48C209.606 71.48 210.582 71.512 211.638 71.576C212.726 71.64 213.782 71.64 214.806 71.576C215.83 71.512 216.774 71.32 217.638 71C218.502 70.68 219.206 70.136 219.75 69.368C219.974 69.176 220.15 68.84 220.278 68.36C220.438 67.848 220.566 67.256 220.662 66.584C220.758 65.88 220.838 65.128 220.902 64.328C220.966 63.528 221.03 62.712 221.094 61.88C220.742 61.784 220.294 61.736 219.75 61.736C219.206 61.704 218.63 61.704 218.022 61.736C217.446 61.768 216.886 61.8 216.342 61.832C215.798 61.832 215.366 61.816 215.046 61.784C215.11 63.096 214.902 64.088 214.422 64.76C213.974 65.4 213.414 65.784 212.742 65.912C212.07 66.04 211.382 65.928 210.678 65.576C209.974 65.224 209.43 64.68 209.046 63.944C208.694 63.368 208.486 62.776 208.422 62.168C208.39 61.56 208.358 60.776 208.326 59.816V58.952ZM215.478 52.808C215.158 52.232 214.71 51.8 214.134 51.512C213.878 51.352 213.622 51.24 213.366 51.176C213.11 51.08 212.806 51.032 212.454 51.032C211.686 51.032 211.062 51.112 210.582 51.272C210.102 51.432 209.718 51.656 209.43 51.944C209.142 52.232 208.918 52.568 208.758 52.952C208.63 53.336 208.534 53.736 208.47 54.152C208.406 54.504 208.374 54.76 208.374 54.92C208.406 55.048 208.566 55.144 208.854 55.208C209.142 55.24 209.59 55.256 210.198 55.256C210.838 55.224 211.766 55.208 212.982 55.208C213.814 55.208 214.438 55.224 214.854 55.256C215.27 55.288 215.558 55.304 215.718 55.304C215.91 55.272 216.006 55.224 216.006 55.16V54.632C216.006 53.992 215.83 53.384 215.478 52.808Z" fill="#F9D26E"/>
<path d="M151.343 61.784C150.991 61.688 150.543 61.64 149.999 61.64C149.455 61.608 148.879 61.608 148.271 61.64C147.663 61.672 147.087 61.704 146.543 61.736C145.999 61.736 145.567 61.72 145.247 61.688C145.151 62.104 145.007 62.584 144.815 63.128C144.655 63.64 144.415 64.008 144.095 64.232C143.711 64.488 143.199 64.664 142.559 64.76C141.919 64.824 141.295 64.792 140.687 64.664C140.079 64.504 139.551 64.216 139.103 63.8C138.687 63.384 138.511 62.808 138.575 62.072C138.639 60.952 138.671 59.88 138.671 58.856C138.671 57.832 138.735 56.824 138.863 55.832C138.959 55.32 139.103 55 139.295 54.872C139.711 54.36 140.255 54.008 140.927 53.816C142.175 53.496 143.183 53.656 143.951 54.296C144.719 54.904 145.183 55.768 145.343 56.888C145.759 56.952 146.223 57.016 146.735 57.08C147.279 57.144 147.823 57.192 148.367 57.224C148.943 57.256 149.487 57.272 149.999 57.272C150.543 57.272 151.023 57.224 151.439 57.128C151.407 56.072 151.375 55.096 151.343 54.2C151.343 53.272 151.279 52.44 151.151 51.704C151.023 50.968 150.831 50.328 150.575 49.784C150.351 49.24 150.015 48.808 149.567 48.488C148.895 47.848 148.095 47.368 147.167 47.048C146.239 46.728 145.263 46.536 144.239 46.472C143.567 46.408 142.927 46.408 142.319 46.472C141.743 46.504 141.135 46.488 140.495 46.424C139.727 46.424 138.959 46.472 138.191 46.568C137.455 46.664 136.751 46.84 136.079 47.096C135.439 47.32 134.863 47.608 134.351 47.96C133.871 48.312 133.519 48.728 133.295 49.208C133.199 49.528 133.055 49.992 132.863 50.6C132.671 51.208 132.559 51.688 132.527 52.04C132.335 53.192 132.239 54.344 132.239 55.496C132.367 56.552 132.399 57.72 132.335 59C132.303 60.28 132.319 61.56 132.383 62.84C132.447 64.088 132.639 65.288 132.959 66.44C133.279 67.592 133.871 68.552 134.735 69.32C135.855 70.44 137.231 71.144 138.863 71.432C139.759 71.432 140.751 71.464 141.839 71.528C142.927 71.624 143.983 71.624 145.007 71.528C146.031 71.464 146.975 71.272 147.839 70.952C148.735 70.632 149.455 70.088 149.999 69.32C150.223 69.096 150.399 68.744 150.527 68.264C150.687 67.752 150.815 67.16 150.911 66.488C151.007 65.784 151.087 65.032 151.151 64.232C151.215 63.432 151.279 62.616 151.343 61.784Z" fill="#F9D26E"/>
<path d="M188.069 47.144C187.045 47.016 185.957 47 184.805 47.096C183.685 47.16 182.549 47.128 181.397 47C182.421 50.776 183.349 54.744 184.181 58.904C185.013 63.064 185.749 67.144 186.389 71.144H188.453C189.253 71.176 190.053 71.192 190.853 71.192C191.685 71.224 192.485 71.224 193.253 71.192C194.053 71.192 194.773 71.144 195.413 71.048C195.957 69.032 196.453 67 196.901 64.952C197.349 62.872 197.797 60.808 198.245 58.76C198.693 56.712 199.157 54.712 199.637 52.76C200.149 50.776 200.741 48.872 201.413 47.048C200.741 47.016 200.133 47 199.589 47C199.045 47 198.517 47.016 198.005 47.048C197.493 47.08 196.997 47.112 196.517 47.144C196.037 47.176 195.525 47.192 194.981 47.192C194.597 48.152 194.245 49.368 193.925 50.84C193.605 52.312 193.301 53.832 193.013 55.4C192.757 56.968 192.485 58.488 192.197 59.96C191.909 61.4 191.589 62.6 191.237 63.56C190.885 62.6 190.565 61.432 190.277 60.056C189.989 58.648 189.717 57.176 189.461 55.64C189.205 54.104 188.965 52.6 188.741 51.128C188.517 49.624 188.293 48.296 188.069 47.144Z" fill="#F9D26E"/>
<path d="M86.8728 58.952C87.1928 59.016 87.7048 59.064 88.4088 59.096C89.1128 59.128 89.8968 59.144 90.7608 59.144C91.6568 59.144 92.5848 59.128 93.5448 59.096C94.5048 59.064 95.4008 59.016 96.2328 58.952C97.0968 58.888 97.8328 58.824 98.4408 58.76C99.0808 58.696 99.5128 58.632 99.7368 58.568C99.8328 57.224 99.8328 55.896 99.7368 54.584L94.5528 55.16C94.5528 55.224 94.4568 55.272 94.2648 55.304C94.1048 55.304 93.8168 55.288 93.4008 55.256C92.9848 55.224 92.3608 55.208 91.5288 55.208C90.3128 55.208 89.3848 55.224 88.7448 55.256C88.1368 55.256 87.6888 55.24 87.4008 55.208C87.1128 55.144 86.9528 55.048 86.9208 54.92L86.8728 58.952Z" fill="#C5D64B"/>
<path d="M190.853 71.192C191.685 71.224 192.485 71.224 193.253 71.192C194.053 71.192 194.773 71.144 195.413 71.048C195.957 69.032 196.453 67 196.901 64.952C197.349 62.872 197.797 60.808 198.245 58.76C198.693 56.712 199.157 54.712 199.637 52.76C200.149 50.776 200.741 48.872 201.413 47.048C200.741 47.016 200.133 47 199.589 47C199.045 47 198.517 47.016 198.005 47.048C197.493 47.08 196.997 47.112 196.517 47.144C196.037 47.176 195.525 47.192 194.981 47.192C194.597 48.152 194.245 49.368 193.925 50.84C193.605 52.312 193.301 53.832 193.013 55.4C192.757 56.968 192.485 58.488 192.197 59.96C191.909 61.4 191.589 62.6 191.237 63.56L190.853 71.192Z" fill="#C5D64B"/>
<path d="M212.214 59.144C213.11 59.144 214.038 59.128 214.998 59.096C215.958 59.064 216.854 59.016 217.686 58.952C218.55 58.888 219.286 58.824 219.894 58.76C220.534 58.696 220.966 58.632 221.19 58.568C221.286 57.224 221.286 55.896 221.19 54.584C221.094 53.272 220.806 52.072 220.326 50.984C219.878 49.896 219.206 48.968 218.31 48.2C217.414 47.432 216.23 46.92 214.758 46.664C213.606 46.376 212.422 46.248 211.206 46.28V51.1219C211.568 51.062 211.984 51.032 212.454 51.032C212.806 51.032 213.11 51.08 213.366 51.176C213.622 51.24 213.878 51.352 214.134 51.512C214.71 51.8 215.158 52.232 215.478 52.808C215.83 53.384 216.006 53.992 216.006 54.632V55.16C216.006 55.224 215.91 55.272 215.718 55.304C215.558 55.304 215.27 55.288 214.854 55.256C214.438 55.224 213.814 55.208 212.982 55.208C212.299 55.208 211.707 55.213 211.206 55.2231V59.1362C211.529 59.1414 211.865 59.144 212.214 59.144Z" fill="#C5D64B"/>
<path d="M261.391 46.856C260.367 46.888 259.487 46.888 258.751 46.856C258.015 46.824 257.439 46.792 257.023 46.76C256.863 46.76 256.623 46.744 256.303 46.712C256.015 46.68 255.807 46.68 255.679 46.712V46.76C255.487 48.648 255.391 50.6 255.391 52.616C255.391 54.6 255.423 56.616 255.487 58.664C255.551 60.712 255.583 62.776 255.583 64.856C255.615 66.936 255.551 68.984 255.391 71C255.615 70.936 256.063 70.92 256.735 70.952C257.407 70.984 258.111 71 258.847 71C259.615 71.032 260.319 71.032 260.959 71C261.599 71 261.999 70.904 262.159 70.712C261.935 66.84 261.871 62.888 261.967 58.856C262.095 54.824 262.175 50.872 262.207 47V46.856H261.391Z" fill="#C5D64B"/>
<path d="M274.208 52.904H281.648C281.584 52.488 281.568 51.992 281.6 51.416C281.664 50.808 281.712 50.216 281.744 49.64C281.776 49.064 281.776 48.536 281.744 48.056C281.712 47.544 281.584 47.16 281.36 46.904C279.728 47 278.352 47.08 277.232 47.144C276.144 47.208 275.104 47.256 274.112 47.288L274.208 52.904Z" fill="#C5D64B"/>
<path d="M267.824 47.24H266.192C265.648 47.24 265.056 47.224 264.416 47.192L264.272 53.048H266.096C266.672 53.048 267.216 53.032 267.728 53L267.824 47.24Z" fill="#C5D64B"/>
<path d="M295.123 54.296C295.891 54.904 296.355 55.768 296.515 56.888C296.931 56.952 297.395 57.016 297.907 57.08C298.451 57.144 298.995 57.192 299.539 57.224C300.115 57.256 300.659 57.272 301.171 57.272C301.715 57.272 302.195 57.224 302.611 57.128C302.579 56.072 302.547 55.096 302.515 54.2C302.515 53.272 302.451 52.44 302.323 51.704C302.195 50.968 302.003 50.328 301.747 49.784C301.523 49.24 301.187 48.808 300.739 48.488C300.067 47.848 299.267 47.368 298.339 47.048C297.411 46.728 296.435 46.536 295.411 46.472C294.739 46.408 294.099 46.408 293.491 46.472C292.915 46.504 292.307 46.488 291.667 46.424L295.123 54.296Z" fill="#C5D64B"/>
<path d="M311.557 49.592V48.392V45.992V43.016V39.992V37.544C311.557 36.84 311.541 36.408 311.509 36.248C311.509 36.152 311.381 36.104 311.125 36.104C310.869 36.072 310.581 36.072 310.261 36.104C309.941 36.136 309.621 36.184 309.301 36.248C308.981 36.28 308.757 36.296 308.629 36.296C308.245 36.328 307.925 36.36 307.669 36.392H306.949H306.229C305.973 36.36 305.653 36.328 305.269 36.296C305.237 37.704 305.205 39.368 305.173 41.288V47.336V53.96V60.488C305.205 62.6 305.221 64.584 305.221 66.44C305.253 68.264 305.269 69.832 305.269 71.144C306.037 71.08 306.677 71.064 307.189 71.096C307.701 71.128 308.165 71.144 308.581 71.144C308.997 71.176 309.397 71.176 309.781 71.144C310.197 71.112 310.677 71.016 311.221 70.856V70.664C311.349 69.608 311.413 68.552 311.413 67.496C311.413 66.44 311.381 65.384 311.317 64.328C311.285 63.24 311.253 62.168 311.221 61.112C311.189 60.024 311.205 58.92 311.269 57.8L311.557 49.592Z" fill="#C5D64B"/>
<path d="M332.545 58.952C332.865 59.016 333.377 59.064 334.081 59.096C334.785 59.128 335.569 59.144 336.433 59.144C337.329 59.144 338.257 59.128 339.217 59.096C340.177 59.064 341.073 59.016 341.905 58.952C342.769 58.888 343.505 58.824 344.113 58.76C344.753 58.696 345.185 58.632 345.409 58.568C345.505 57.224 345.505 55.896 345.409 54.584L340.225 55.16C340.225 55.224 340.129 55.272 339.937 55.304C339.777 55.304 339.489 55.288 339.073 55.256C338.657 55.224 338.033 55.208 337.201 55.208C335.985 55.208 335.057 55.224 334.417 55.256C333.809 55.256 333.361 55.24 333.073 55.208C332.785 55.144 332.625 55.048 332.593 54.92L326.353 53.96C326.257 55.048 326.161 56.184 326.065 57.368C326.001 58.68 326.033 59.992 326.161 61.304C326.289 62.616 326.529 63.864 326.881 65.048C327.233 66.2 327.697 67.272 328.273 68.264C328.849 69.224 329.569 70.008 330.433 70.616C331.201 71.064 332.033 71.352 332.929 71.48C333.825 71.48 334.801 71.512 335.857 71.576C336.945 71.64 338.001 71.64 339.025 71.576C340.049 71.512 340.993 71.32 341.857 71C342.721 70.68 343.425 70.136 343.969 69.368C344.193 69.176 344.369 68.84 344.497 68.36C344.657 67.848 344.785 67.256 344.881 66.584C344.977 65.88 345.057 65.128 345.121 64.328C345.185 63.528 345.249 62.712 345.313 61.88C344.961 61.784 344.513 61.736 343.969 61.736C343.425 61.704 342.849 61.704 342.241 61.736C341.665 61.768 341.105 61.8 340.561 61.832C340.017 61.832 339.585 61.816 339.265 61.784C339.329 63.096 339.121 64.088 338.641 64.76C338.193 65.4 337.633 65.784 336.961 65.912C336.289 66.04 335.601 65.928 334.897 65.576C334.193 65.224 333.649 64.68 333.265 63.944C332.913 63.368 332.705 62.776 332.641 62.168C332.609 61.56 332.577 60.776 332.545 59.816V58.952Z" fill="#C5D64B"/>
<path d="M245.791 53.768C246.367 52.424 247.039 51.08 247.807 49.736L250.111 45.704C250.911 44.36 251.647 43.016 252.319 41.672C253.023 40.328 253.567 38.984 253.951 37.64C252.927 37.48 251.839 37.432 250.687 37.496C249.535 37.56 248.447 37.56 247.423 37.496C246.751 38.456 246.143 39.416 245.599 40.376L244.063 43.256C243.583 44.216 243.071 45.16 242.527 46.088C241.983 47.016 241.375 47.912 240.703 48.776C240.639 48.84 240.575 48.92 240.511 49.016C240.483 49.072 240.468 49.0913 240.464 49.0738L240.703 58.376C241.215 59.272 241.727 60.28 242.239 61.4C242.751 62.52 243.263 63.656 243.775 64.808C244.319 65.96 244.879 67.08 245.455 68.168C246.031 69.224 246.655 70.136 247.327 70.904C248.351 70.936 249.455 70.984 250.639 71.048C251.855 71.112 252.975 71.032 253.999 70.808L245.791 53.768Z" fill="#F9D26E"/>
<path d="M345.409 54.584C345.313 53.272 345.025 52.072 344.545 50.984C344.097 49.896 343.425 48.968 342.529 48.2C341.633 47.432 340.449 46.92 338.977 46.664C337.825 46.376 336.641 46.248 335.425 46.28C334.209 46.312 333.057 46.504 331.969 46.856C330.881 47.176 329.905 47.672 329.041 48.344C328.177 48.984 327.537 49.768 327.121 50.696C326.737 51.752 326.481 52.84 326.353 53.96L332.593 54.92C332.593 54.76 332.625 54.504 332.689 54.152C332.753 53.736 332.849 53.336 332.977 52.952C333.137 52.568 333.361 52.232 333.649 51.944C333.937 51.656 334.321 51.432 334.801 51.272C335.281 51.112 335.905 51.032 336.673 51.032C337.025 51.032 337.329 51.08 337.585 51.176C337.841 51.24 338.097 51.352 338.353 51.512C338.929 51.8 339.377 52.232 339.697 52.808C340.049 53.384 340.225 53.992 340.225 54.632V55.16L345.409 54.584Z" fill="#F9D26E"/>
<path d="M178.516 46.856C177.492 46.888 176.612 46.888 175.876 46.856C175.14 46.824 174.564 46.792 174.148 46.76C173.988 46.76 173.748 46.744 173.428 46.712C173.14 46.68 172.932 46.68 172.804 46.712V46.76C172.612 48.648 172.516 50.6 172.516 52.616C172.516 54.6 172.548 56.616 172.612 58.664C172.676 60.712 172.708 62.776 172.708 64.856C172.74 66.936 172.676 68.984 172.516 71C172.74 70.936 173.188 70.92 173.86 70.952C174.532 70.984 175.236 71 175.972 71C176.74 71.032 177.444 71.032 178.084 71C178.724 71 179.124 70.904 179.284 70.712C179.06 66.84 178.996 62.888 179.092 58.856C179.22 54.824 179.3 50.872 179.332 47V46.856H178.516Z" fill="#F9D26E"/>
<path d="M57.3239 37.64C54.0279 37.288 50.6359 37.128 47.1479 37.16C43.6919 37.16 40.3319 37.176 37.0679 37.208V37.256C37.0999 37.256 37.1159 37.272 37.1159 37.304C37.0519 38.072 37.0199 38.872 37.0199 39.704V42.056C37.0519 42.76 37.0839 43.368 37.1159 43.88C37.1799 44.392 37.2439 44.712 37.3079 44.84C37.4999 44.904 37.8359 44.936 38.3159 44.936C38.7959 44.936 39.3239 44.952 39.8999 44.984C40.4759 44.984 41.0519 45.016 41.6279 45.08C42.2039 45.112 42.6839 45.224 43.0679 45.416L43.1159 45.464L51.0839 45.176C51.1159 45.144 51.1319 45.112 51.1319 45.08H51.2759C52.7799 45.016 53.9799 44.968 54.8759 44.936C55.7719 44.904 56.5239 44.952 57.1319 45.08C57.2919 43.928 57.3719 42.664 57.3719 41.288C57.4039 39.912 57.3879 38.696 57.3239 37.64Z" fill="#FDA6A6"/>
<path d="M43.1159 45.464C43.3079 49.944 43.4199 53.768 43.4519 56.936C43.5159 60.104 43.5319 62.712 43.4999 64.76C43.4999 66.776 43.4839 68.296 43.4519 69.32C43.4199 70.344 43.4199 70.92 43.4519 71.048C44.0279 70.952 44.6519 70.904 45.3239 70.904H47.3399H49.4039C50.1079 70.872 50.7479 70.808 51.3239 70.712V70.616C51.2599 67.128 51.2119 64.104 51.1799 61.544C51.1479 58.952 51.1159 56.744 51.0839 54.92C51.0519 53.064 51.0199 51.56 50.9879 50.408V47.576V45.992C51.0199 45.64 51.0519 45.384 51.0839 45.224V45.176L43.1159 45.464Z" fill="#FDA6A6"/>
<path d="M65.8852 49.592V37.544C65.8852 36.84 65.8692 36.408 65.8372 36.248C65.8372 36.152 65.7092 36.104 65.4532 36.104C65.1972 36.072 64.9092 36.072 64.5892 36.104C64.2692 36.136 63.9492 36.184 63.6292 36.248C63.3092 36.28 63.0852 36.296 62.9572 36.296C62.5732 36.328 62.2532 36.36 61.9972 36.392H60.5572C60.3012 36.36 59.9812 36.328 59.5972 36.296C59.5652 37.704 59.5332 39.368 59.5012 41.288V60.488C59.5332 62.6 59.5492 64.584 59.5492 66.44C59.5812 68.264 59.5972 69.832 59.5972 71.144C60.3652 71.08 61.0052 71.064 61.5172 71.096C62.0292 71.128 62.4932 71.144 62.9092 71.144C63.3252 71.176 63.7252 71.176 64.1092 71.144C64.5252 71.112 65.0052 71.016 65.5492 70.856V70.664C65.6772 69.608 65.7412 68.552 65.7412 67.496C65.7412 66.44 65.7092 65.384 65.6452 64.328C65.6132 63.24 65.5812 62.168 65.5492 61.112C65.5172 60.024 65.5332 58.92 65.5972 57.8L65.8852 49.592Z" fill="#F9D26E"/>
<path d="M65.5972 57.8C65.6612 56.936 65.8852 56.296 66.2692 55.88C66.6532 55.432 67.0852 55.144 67.5652 55.016C68.0452 54.856 68.5252 54.824 69.0052 54.92C69.5172 54.984 69.9012 55.08 70.1572 55.208C70.1892 55.24 70.2212 55.256 70.2532 55.256C70.2852 55.256 70.3172 55.272 70.3492 55.304C70.6052 55.496 70.7972 55.768 70.9252 56.12C71.0852 56.472 71.1972 56.872 71.2612 57.32C71.3572 57.768 71.4212 58.232 71.4532 58.712C71.4852 59.16 71.5172 59.576 71.5492 59.96C71.6132 60.824 71.6452 61.752 71.6452 62.744C71.6772 63.736 71.6772 64.728 71.6452 65.72V68.6C71.6452 69.528 71.6772 70.36 71.7412 71.096H74.7172C75.6132 71.128 76.6212 71.064 77.7412 70.904C77.6772 69.816 77.6612 68.552 77.6932 67.112C77.7252 65.672 77.7572 64.184 77.7892 62.648C77.8212 61.08 77.8372 59.544 77.8372 58.04C77.8692 56.504 77.8532 55.096 77.7892 53.816C77.7572 52.536 77.6452 51.448 77.4532 50.552C77.2932 49.624 77.0532 49.016 76.7332 48.728C76.0612 48.152 75.3092 47.752 74.4772 47.528C73.6452 47.304 72.7812 47.208 71.8852 47.24C71.0212 47.272 70.1732 47.432 69.3412 47.72C68.5092 48.008 67.7572 48.392 67.0852 48.872C66.9252 49 66.7172 49.128 66.4612 49.256C66.2372 49.384 66.0452 49.496 65.8852 49.592L65.5972 57.8Z" fill="#FDA6A6"/>
<path d="M127.698 54.152C127.57 53.608 127.394 52.872 127.17 51.944C126.946 51.016 126.706 49.992 126.45 48.872C126.194 47.752 125.922 46.584 125.634 45.368C125.378 44.152 125.122 43.016 124.866 41.96C124.642 40.872 124.418 39.912 124.194 39.08C124.002 38.216 123.858 37.576 123.762 37.16C122.706 37.256 121.842 37.32 121.17 37.352H118.578C118.322 37.352 118.082 37.368 117.858 37.4L121.247 47.5195C121.27 47.5781 121.292 47.6449 121.314 47.72C121.506 48.264 121.714 49.304 121.938 50.84C122.194 52.376 122.482 54.52 122.802 57.272L122.562 62.984C122.786 63.464 122.994 64.04 123.186 64.712C123.378 65.384 123.554 66.088 123.714 66.824C123.906 67.56 124.082 68.28 124.242 68.984C124.434 69.688 124.626 70.296 124.818 70.808H124.866C125.89 71.032 126.978 71.16 128.13 71.192C129.282 71.256 130.338 71.192 131.298 71V70.952L127.698 54.152Z" fill="#FDA6A6"/>
<path d="M117.858 37.4C117.09 39.96 116.386 42.536 115.746 45.128C115.106 47.72 114.514 50.216 113.97 52.616C113.426 55.016 112.946 57.288 112.53 59.432C112.146 61.544 111.81 63.416 111.522 65.048C111.234 66.68 111.01 68.008 110.85 69.032C110.69 70.056 110.578 70.68 110.514 70.904C110.546 70.936 110.578 70.952 110.61 70.952C112.786 70.92 114.386 70.936 115.41 71C116.434 71.064 117.074 71.064 117.33 71H117.378C117.41 70.968 117.442 70.952 117.474 70.952C117.762 70.408 117.986 69.784 118.146 69.08C118.306 68.376 118.45 67.656 118.578 66.92C118.738 66.152 118.882 65.432 119.01 64.76C119.17 64.056 119.362 63.448 119.586 62.936H120.402C120.626 62.904 120.818 62.888 120.978 62.888H121.602C121.826 62.888 122.146 62.92 122.562 62.984L122.802 57.272C122.194 57.272 121.586 57.288 120.978 57.32C120.37 57.32 119.794 57.304 119.25 57.272C119.474 55.64 119.666 54.12 119.826 52.712C120.018 51.304 120.178 50.136 120.306 49.208C120.466 48.28 120.626 47.672 120.786 47.384C120.952 47.1082 121.105 47.1534 121.247 47.5195L117.858 37.4Z" fill="#FDA6A6"/>
<path d="M156.353 53C156.321 55.336 156.337 57.608 156.401 59.816C156.465 61.992 156.705 64.312 157.121 66.776C157.537 67.768 158.209 68.552 159.137 69.128C160.097 69.704 161.185 70.136 162.401 70.424C163.617 70.712 164.913 70.904 166.289 71C167.665 71.064 168.993 71.064 170.273 71C170.433 70.52 170.529 69.992 170.561 69.416C170.625 68.84 170.641 68.264 170.609 67.688C170.577 67.112 170.529 66.552 170.465 66.008C170.401 65.464 170.337 64.968 170.273 64.52C169.729 64.552 169.089 64.552 168.353 64.52C167.649 64.488 166.945 64.408 166.241 64.28C165.537 64.12 164.881 63.912 164.273 63.656C163.665 63.4 163.201 63.048 162.881 62.6C162.849 61.16 162.833 59.624 162.833 57.992V52.904L156.353 53Z" fill="#FDA6A6"/>
<path d="M172.612 36.392C172.58 37.864 172.596 39.112 172.66 40.136C172.756 41.128 172.804 42.088 172.804 43.016C173.412 42.984 174.068 43 174.772 43.064C175.476 43.096 176.132 43.128 176.74 43.16C177.38 43.16 177.924 43.128 178.372 43.064C178.852 43 179.156 42.872 179.284 42.68C179.284 42.2 179.268 41.656 179.236 41.048C179.236 40.408 179.22 39.8 179.188 39.224C179.188 38.616 179.172 38.072 179.14 37.592V36.536L172.612 36.392Z" fill="#FDA6A6"/>
<path d="M240.463 49.064C240.399 47.24 240.383 45.32 240.415 43.304C240.447 41.288 240.431 39.368 240.367 37.544C239.343 37.544 238.271 37.528 237.151 37.496C236.063 37.432 234.991 37.416 233.935 37.448C233.967 43.048 233.887 48.632 233.695 54.2C233.535 59.736 233.583 65.256 233.839 70.76C234.255 70.856 234.767 70.936 235.375 71C236.015 71.064 236.671 71.096 237.343 71.096C238.015 71.096 238.655 71.064 239.263 71C239.871 70.968 240.399 70.888 240.847 70.76C240.847 69.864 240.831 68.888 240.799 67.832C240.799 66.776 240.783 65.704 240.751 64.616C240.719 63.528 240.687 62.456 240.655 61.4C240.655 60.312 240.671 59.304 240.703 58.376L240.464 49.0738C240.464 49.0738 240.464 49.0704 240.464 49.0683L240.463 49.064Z" fill="#FDA6A6"/>
<path d="M208.326 58.952C208.646 59.016 209.158 59.064 209.862 59.096C210.281 59.1151 210.729 59.1285 211.206 59.1362V55.2231C210.815 55.231 210.479 55.242 210.198 55.256C209.59 55.256 209.142 55.24 208.854 55.208C208.566 55.144 208.406 55.048 208.374 54.92C208.374 54.76 208.406 54.504 208.47 54.152C208.534 53.736 208.63 53.336 208.758 52.952C208.918 52.568 209.142 52.232 209.43 51.944C209.718 51.656 210.102 51.432 210.582 51.272C210.768 51.2099 210.976 51.1599 211.206 51.1219V46.28C209.99 46.312 208.838 46.504 207.75 46.856C206.662 47.176 205.686 47.672 204.822 48.344C203.958 48.984 203.318 49.768 202.902 50.696C202.518 51.752 202.262 52.84 202.134 53.96C202.038 55.048 201.942 56.184 201.846 57.368C201.782 58.68 201.814 59.992 201.942 61.304C202.07 62.616 202.31 63.864 202.662 65.048C203.014 66.2 203.478 67.272 204.054 68.264C204.63 69.224 205.35 70.008 206.214 70.616C206.982 71.064 207.814 71.352 208.71 71.48C209.606 71.48 210.582 71.512 211.638 71.576C212.726 71.64 213.782 71.64 214.806 71.576C215.83 71.512 216.774 71.32 217.638 71C218.502 70.68 219.206 70.136 219.75 69.368C219.974 69.176 220.15 68.84 220.278 68.36C220.438 67.848 220.566 67.256 220.662 66.584C220.758 65.88 220.838 65.128 220.902 64.328C220.966 63.528 221.03 62.712 221.094 61.88C220.742 61.784 220.294 61.736 219.75 61.736C219.206 61.704 218.63 61.704 218.022 61.736C217.446 61.768 216.886 61.8 216.342 61.832C215.798 61.832 215.366 61.816 215.046 61.784C215.11 63.096 214.902 64.088 214.422 64.76C213.974 65.4 213.414 65.784 212.742 65.912C212.07 66.04 211.382 65.928 210.678 65.576C209.974 65.224 209.43 64.68 209.046 63.944C208.694 63.368 208.486 62.776 208.422 62.168C208.39 61.56 208.358 60.776 208.326 59.816V58.952Z" fill="#FDA6A6"/>
<path d="M302.515 61.784C302.163 61.688 301.715 61.64 301.171 61.64C300.627 61.608 300.051 61.608 299.443 61.64C298.835 61.672 298.259 61.704 297.715 61.736C297.171 61.736 296.739 61.72 296.419 61.688C296.323 62.104 296.179 62.584 295.987 63.128C295.827 63.64 295.587 64.008 295.267 64.232C294.883 64.488 294.371 64.664 293.731 64.76C293.091 64.824 292.467 64.792 291.859 64.664C291.251 64.504 290.723 64.216 290.275 63.8C289.859 63.384 289.683 62.808 289.747 62.072C289.811 60.952 289.843 59.88 289.843 58.856C289.843 57.832 289.907 56.824 290.035 55.832C290.131 55.32 290.275 55 290.467 54.872C290.883 54.36 291.427 54.008 292.099 53.816C293.347 53.496 294.355 53.656 295.123 54.296L291.667 46.424C290.899 46.424 290.131 46.472 289.363 46.568C288.627 46.664 287.923 46.84 287.251 47.096C286.611 47.32 286.035 47.608 285.523 47.96C285.043 48.312 284.691 48.728 284.467 49.208C284.371 49.528 284.227 49.992 284.035 50.6C283.843 51.208 283.731 51.688 283.699 52.04C283.507 53.192 283.411 54.344 283.411 55.496C283.539 56.552 283.571 57.72 283.507 59C283.475 60.28 283.491 61.56 283.555 62.84C283.619 64.088 283.811 65.288 284.131 66.44C284.451 67.592 285.043 68.552 285.907 69.32C287.027 70.44 288.403 71.144 290.035 71.432C290.931 71.432 291.923 71.464 293.011 71.528C294.099 71.624 295.155 71.624 296.179 71.528C297.203 71.464 298.147 71.272 299.011 70.952C299.907 70.632 300.627 70.088 301.171 69.32C301.395 69.096 301.571 68.744 301.699 68.264C301.859 67.752 301.987 67.16 302.083 66.488C302.179 65.784 302.259 65.032 302.323 64.232C302.387 63.432 302.451 62.616 302.515 61.784Z" fill="#FDA6A6"/>
<path d="M311.269 57.8C311.333 56.936 311.557 56.296 311.941 55.88C312.325 55.432 312.757 55.144 313.237 55.016C313.717 54.856 314.197 54.824 314.677 54.92C315.189 54.984 315.573 55.08 315.829 55.208C315.861 55.24 315.893 55.256 315.925 55.256C315.957 55.256 315.989 55.272 316.021 55.304C316.277 55.496 316.469 55.768 316.597 56.12C316.757 56.472 316.869 56.872 316.933 57.32C317.029 57.768 317.093 58.232 317.125 58.712C317.157 59.16 317.189 59.576 317.221 59.96C317.285 60.824 317.317 61.752 317.317 62.744C317.349 63.736 317.349 64.728 317.317 65.72V68.6C317.317 69.528 317.349 70.36 317.413 71.096H320.389C321.285 71.128 322.293 71.064 323.413 70.904C323.349 69.816 323.333 68.552 323.365 67.112C323.397 65.672 323.429 64.184 323.461 62.648C323.493 61.08 323.509 59.544 323.509 58.04C323.541 56.504 323.525 55.096 323.461 53.816C323.429 52.536 323.317 51.448 323.125 50.552C322.965 49.624 322.725 49.016 322.405 48.728C321.733 48.152 320.981 47.752 320.149 47.528C319.317 47.304 318.453 47.208 317.557 47.24C316.693 47.272 315.845 47.432 315.013 47.72C314.181 48.008 313.429 48.392 312.757 48.872C312.597 49 312.389 49.128 312.133 49.256C311.909 49.384 311.717 49.496 311.557 49.592L311.269 57.8Z" fill="#FDA6A6"/>
<path d="M354.209 57.8C354.273 56.936 354.497 56.296 354.881 55.88C355.265 55.432 355.697 55.144 356.177 55.016C356.657 54.856 357.137 54.824 357.617 54.92C358.129 54.984 358.513 55.08 358.769 55.208C358.801 55.24 358.833 55.256 358.865 55.256C358.897 55.256 358.929 55.272 358.961 55.304C359.217 55.496 359.409 55.768 359.537 56.12C359.697 56.472 359.809 56.872 359.873 57.32C359.969 57.768 360.033 58.232 360.065 58.712C360.097 59.16 360.129 59.576 360.161 59.96C360.225 60.824 360.257 61.752 360.257 62.744C360.289 63.736 360.289 64.728 360.257 65.72V68.6C360.257 69.528 360.289 70.36 360.353 71.096H363.329C364.225 71.128 365.233 71.064 366.353 70.904C366.289 69.816 366.273 68.552 366.305 67.112C366.337 65.672 366.369 64.184 366.401 62.648C366.433 61.08 366.449 59.544 366.449 58.04C366.481 56.504 366.465 55.096 366.401 53.816C366.369 52.536 366.257 51.448 366.065 50.552C365.905 49.624 365.665 49.016 365.345 48.728C364.673 48.152 363.921 47.752 363.089 47.528C362.257 47.304 361.393 47.208 360.497 47.24C359.633 47.272 358.785 47.432 357.953 47.72C357.121 48.008 356.369 48.392 355.697 48.872C355.537 49 355.329 49.128 355.073 49.256C354.849 49.384 354.657 49.496 354.497 49.592L354.209 57.8Z" fill="#FDA6A6"/>
<path d="M162.689 38.168C162.145 38.232 161.601 38.248 161.057 38.216L159.425 38.12C158.881 38.056 158.353 38.008 157.841 37.976C157.361 37.944 156.913 37.96 156.497 38.024C156.433 38.632 156.385 39.32 156.353 40.088V42.488C156.353 43.32 156.369 44.152 156.401 44.984C156.433 45.784 156.449 46.536 156.449 47.24L162.737 47.288C162.737 46.808 162.721 46.344 162.689 45.896V38.168Z" fill="#F9D26E"/>
<path d="M274.064 38.168C273.52 38.232 272.976 38.248 272.432 38.216L270.8 38.12C270.256 38.056 269.728 38.008 269.216 37.976C268.736 37.944 268.288 37.96 267.872 38.024C267.808 38.632 267.76 39.32 267.728 40.088V42.488C267.728 43.32 267.744 44.152 267.776 44.984C267.808 45.784 267.824 46.536 267.824 47.24L267.728 53C267.696 55.336 267.712 57.608 267.776 59.816C267.84 61.992 268.08 64.312 268.496 66.776C268.912 67.768 269.584 68.552 270.512 69.128C271.472 69.704 272.56 70.136 273.776 70.424C274.992 70.712 276.288 70.904 277.664 71C279.04 71.064 280.368 71.064 281.648 71C281.808 70.52 281.904 69.992 281.936 69.416C282 68.84 282.016 68.264 281.984 67.688C281.952 67.112 281.904 66.552 281.84 66.008C281.776 65.464 281.712 64.968 281.648 64.52C281.104 64.552 280.464 64.552 279.728 64.52C279.024 64.488 278.32 64.408 277.616 64.28C276.912 64.12 276.256 63.912 275.648 63.656C275.04 63.4 274.576 63.048 274.256 62.6C274.224 61.16 274.208 59.624 274.208 57.992V52.904L274.112 47.288C274.112 46.808 274.096 46.344 274.064 45.896V44.6V38.168Z" fill="#F9D26E"/>
<path d="M354.7 49.592C354.668 49.144 354.652 48.744 354.652 48.392C354.684 48.04 354.668 47.592 354.604 47.048C354.604 46.952 354.476 46.904 354.22 46.904C353.964 46.872 353.676 46.872 353.356 46.904C353.036 46.936 352.716 46.984 352.396 47.048C352.076 47.08 351.852 47.096 351.724 47.096C351.34 47.128 351.02 47.16 350.764 47.192H349.324C349.068 47.16 348.748 47.128 348.364 47.096C348.236 51.32 348.204 55.4 348.268 59.336C348.364 63.272 348.412 67.208 348.412 71.144C349.18 71.08 349.82 71.064 350.332 71.096C350.844 71.128 351.308 71.144 351.724 71.144C352.14 71.176 352.54 71.176 352.924 71.144C353.34 71.112 353.82 71.016 354.364 70.856V70.664C354.492 69.608 354.556 68.552 354.556 67.496C354.556 66.44 354.524 65.384 354.46 64.328C354.428 63.24 354.396 62.168 354.364 61.112C354.332 60.024 354.348 58.92 354.412 57.8L354.7 49.592Z" fill="#C5D64B"/>
</g>
<defs>
<filter id="filter0_d_304_7" x="0" y="0" width="401.753" height="118.777" filterUnits="userSpaceOnUse" color-interpolation-filters="sRGB">
<feFlood flood-opacity="0" result="BackgroundImageFix"/>
<feColorMatrix in="SourceAlpha" type="matrix" values="0 0 0 0 0 0 0 0 0 0 0 0 0 0 0 0 0 0 127 0" result="hardAlpha"/>
<feOffset dy="4"/>
<feGaussianBlur stdDeviation="2"/>
<feComposite in2="hardAlpha" operator="out"/>
<feColorMatrix type="matrix" values="0 0 0 0 0 0 0 0 0 0 0 0 0 0 0 0 0 0 0.25 0"/>
<feBlend mode="normal" in2="BackgroundImageFix" result="effect1_dropShadow_304_7"/>
<feBlend mode="normal" in="SourceGraphic" in2="effect1_dropShadow_304_7" result="shape"/>
</filter>
</defs>
</svg>
