<!--?xml version="1.0" encoding="utf-8"?-->
<!-- Generator: Adobe Illustrator 18.1.1, SVG Export Plug-In . SVG Version: 6.00 Build 0)  -->

<svg version="1.1" id="_x31_0" xmlns="http://www.w3.org/2000/svg" xmlns:xlink="http://www.w3.org/1999/xlink" x="0px" y="0px" viewBox="0 0 512 512" style="width: 256px; height: 256px; opacity: 1;" xml:space="preserve">
<style type="text/css">
	.st0{fill:#374149;}
</style>
<g>
	<path class="st0" d="M245.59,275.693v-0.309l0,0v-0.16H124.809v100.93h-12.887v41.477h146.551v-41.477H245.59V275.693z
		 M217.938,376.154h-65.481v-73.281h65.481V376.154z" style="fill: rgb(255, 255, 255);"></path>
	<path class="st0" d="M500.977,91.158l-94.543-80.77l-8.894-7.554H114.457l-8.816,7.554l-94.622,80.77L0,100.604v85.098
		c0,25.426,19.996,46.133,47.703,51.879v209.625v0.48H17.082v35.738c0,14.25,11.57,25.742,25.742,25.742h426.352
		c14.246,0,25.742-11.492,25.742-25.742v-35.738h-30.625V237.58C492.004,231.912,512,211.127,512,185.701v-85.098L500.977,91.158z
		 M431.152,447.685H396.75v-171.32l0.003-0.523h-0.003v-0.164H290.793v171.117v0.89H80.926V237.342
		c5.352-1.18,10.313-2.91,14.875-5.118c9.527,4.566,20.547,7.086,31.961,7.086c11.73,0,22.672-2.52,32.039-7.086
		c9.367,4.566,20.313,7.086,32.039,7.086c11.809,0,22.75-2.52,32.121-7.086c9.367,4.566,20.23,7.086,32.039,7.086
		c11.809,0,22.672-2.52,32.039-7.086c9.367,4.566,20.309,7.086,32.117,7.086c11.809,0,22.75-2.52,32.039-7.086
		c9.367,4.566,20.309,7.086,32.118,7.086c11.414,0,22.438-2.52,31.961-7.086c4.566,2.207,9.606,3.938,14.878,5.195v209.786V447.685z
		 M337.789,365.975c0,5.664-4.566,10.152-10.152,10.152h-4.649c-5.586,0-10.074-4.488-10.074-10.152
		c0-5.59,4.488-10.157,10.074-10.157h4.649C333.222,355.818,337.789,360.384,337.789,365.975z M352.305,185.92
		c0.031-0.07,0.07-0.14,0.129-0.21v0.019c-0.004,0.188-0.074,0.363-0.082,0.547C352.332,186.158,352.313,186.037,352.305,185.92z
		 M424.981,200.56c-1.23-1.027-2.406-2.11-3.348-3.43c0.141-0.558,0.309-1.114,0.309-1.668v-57.074L354.086,34.717h-42.434
		l40.782,103.671v24.383l-0.152,22.977c0-0.016-0.008-0.031-0.008-0.047c0,12.203-14.406,22.121-32.118,22.121
		c-13.144,0-24.48-5.511-29.363-13.305v-56.129L277.176,34.717h-42.352l-13.621,103.671v56.129
		c-4.957,7.871-16.215,13.305-29.363,13.305c-14.356,0-26.43-6.621-30.473-15.648c-0.863-2.035-1.45-4.145-1.406-6.379
		c-0.004,0.118-0.046,0.258-0.086,0.402c-0.004-0.168-0.074-0.324-0.074-0.496c0,0.332-0.09,0.695-0.164,1.047
		c-0.023,0.042-0.043,0.09-0.07,0.136v-48.496l29.566-75.32l11.133-28.191h-0.062l0.062-0.16h-42.351l-67.86,103.671v57.074
		c0,0.707,0.238,1.418,0.395,2.203c-2.442,2.598-5.668,4.883-9.524,6.535c-3.148,1.496-6.691,2.598-10.55,3.149
		c-2.203,0.316-4.489,0.472-6.77,0.472c-0.551,0-1.102,0-1.653-0.078c-17.003-0.551-30.465-10.234-30.465-22.043v-70.61
		l94.543-80.77h259.934l94.547,80.77v70.61c0,11.809-13.462,21.492-30.387,22.043c-0.55,0.078-1.102,0.078-1.652,0.078
		c-2.363,0-4.645-0.156-6.852-0.472c-3.777-0.551-7.32-1.653-10.469-3.07C428.848,203.244,426.828,201.959,424.981,200.56z" style="fill: rgb(255, 255, 255);"></path>
</g>
</svg>
